<svg width="64" height="64" viewBox="0 0 64 64" fill="none" xmlns="http://www.w3.org/2000/svg">
    <path fillRule="evenodd" clipRule="evenodd"
        d="M41.9383 53.969C41.9893 55.3295 43.1193 56.3992 44.4803 56.3752C46.807 56.3345 54.3167 56.5157 54.3167 56.5157C54.6593 56.524 55 56.4617 55.3175 56.3328C55.6349 56.2038 55.9225 56.0109 56.1623 55.766C56.4022 55.5213 56.5892 55.2298 56.7116 54.9098C56.834 54.5897 56.8893 54.2478 56.874 53.9055C56.1538 37.7055 57.1765 20.922 57.1765 20.922C57.1967 20.5901 57.1504 20.2575 57.0405 19.9437C56.9305 19.6299 56.7591 19.3411 56.5362 19.0944C56.3134 18.8476 56.0435 18.6478 55.7425 18.5066C55.4414 18.3654 55.1152 18.2856 54.783 18.272C48.861 18.0302 44.1845 18.4682 44.1845 18.4682C43.5772 18.5249 43.0114 18.8015 42.5939 19.2462C42.1763 19.6908 41.9357 20.2728 41.9173 20.8825C41.375 38.9265 41.9383 53.969 41.9383 53.969ZM24.6423 53.7672C24.6288 54.1088 24.6855 54.4494 24.8089 54.7681C24.9323 55.0868 25.1197 55.3769 25.3596 55.6204C25.5994 55.8638 25.8866 56.0555 26.2035 56.1837C26.5203 56.3118 26.8601 56.3736 27.2018 56.3652C31.1595 56.2682 36.4777 56.338 36.4777 56.338C36.8082 56.3424 37.1363 56.2812 37.4429 56.158C37.7496 56.0347 38.0288 55.8519 38.2643 55.62C38.4998 55.3882 38.687 55.1119 38.8151 54.8072C38.9431 54.5025 39.0095 54.1755 39.0103 53.845C39.0505 38.884 38.7328 34.401 38.7328 34.401C38.6906 33.7994 38.4324 33.2333 38.0057 32.807C37.5791 32.3808 37.0127 32.1232 36.411 32.0817C31.1043 31.7157 27.3037 32.02 27.3037 32.02C26.6624 32.0706 26.0652 32.3665 25.6364 32.8462C25.2076 33.3259 24.9803 33.9525 25.0018 34.5955C25.1855 40.1157 24.6423 53.7672 24.6423 53.7672Z"
        fill="#F1F1F6" />
    <path fillRule="evenodd" clipRule="evenodd"
        d="M12.1885 53.9827C12.1847 54.3155 12.2474 54.6456 12.3728 54.9539C12.4983 55.2621 12.684 55.5421 12.9191 55.7776C13.1542 56.0131 13.4339 56.1993 13.7419 56.3253C14.0499 56.4513 14.38 56.5145 14.7128 56.5112C19.2045 56.4675 22.9355 56.4017 22.9355 56.4017C23.2698 56.3958 23.5995 56.3229 23.9051 56.1873C24.2107 56.0518 24.486 55.8563 24.7147 55.6124C24.9434 55.3686 25.1209 55.0814 25.2367 54.7678C25.3525 54.4541 25.4042 54.1205 25.3888 53.7865C25.1003 47.55 25.2853 41.3085 25.2853 41.3085C25.3038 40.6844 25.0882 40.076 24.6808 39.6029C24.2733 39.1298 23.7037 38.8263 23.0838 38.752C17.5285 38.0865 14.929 38.5442 14.929 38.5442C14.4185 38.6272 13.9463 38.8666 13.5774 39.2292C13.2086 39.5918 12.9614 40.0599 12.8698 40.569C12.3263 43.5887 12.1885 53.9827 12.1885 53.9827Z"
        fill="#F1F1F6" />
    <path fillRule="evenodd" clipRule="evenodd"
        d="M8.36476 12.1039C8.36476 12.1039 7.74851 36.1842 8.32176 58.8309C8.36201 60.4172 9.68226 61.6724 11.2685 61.6322C12.8548 61.5922 14.11 60.2717 14.07 58.6854C13.5003 36.1804 14.1128 12.2509 14.1128 12.2509C14.1533 10.6647 12.8985 9.34394 11.3123 9.30344C9.72601 9.26294 8.40526 10.5177 8.36476 12.1039Z"
        fill="#F1F1F6" />
    <path fillRule="evenodd" clipRule="evenodd"
        d="M6.016 57.0655C6.016 57.0655 32.7978 56.336 57.9895 56.9742C59.5758 57.0145 60.8963 55.7592 60.9365 54.173C60.9768 52.5867 59.7215 51.2662 58.1353 51.2262C32.797 50.5842 5.85925 51.3177 5.85925 51.3177C4.27325 51.361 3.0205 52.6837 3.06375 54.27C3.107 55.856 4.42975 57.1087 6.016 57.0655ZM36.3508 13.7372C35.0986 15.0112 33.8049 16.2437 32.4718 17.4327C30.1099 17.0124 27.7664 16.4943 25.4475 15.8797C25.0367 15.7705 24.6048 15.7677 24.1927 15.8718C23.7805 15.9758 23.4017 16.1833 23.092 16.4745C23.092 16.4745 18.3108 20.9707 14.6298 24.8895C14.2138 25.3325 13.8833 25.9555 13.9255 26.8287C13.946 27.2462 14.1988 28.1297 14.851 29.0862C15.8625 30.5695 17.8773 32.5787 18.5708 32.9067C19.3188 33.2605 19.953 33.2097 20.3843 33.102C20.6838 33.027 21.3785 32.7437 22.1308 31.9225C22.9803 30.9952 24.6778 28.7392 26.856 26.2312C28.842 26.5885 32.5958 27.2212 36.0118 27.5607C36.4666 27.6059 36.9251 27.5256 37.3375 27.3284C37.7498 27.1312 38.1002 26.8247 38.3505 26.4422C38.3505 26.4422 40.9388 22.4885 44.3333 17.6487C44.3928 17.7105 44.4528 17.772 44.5138 17.833C44.8424 18.1614 45.256 18.3918 45.7083 18.4983C46.1606 18.6048 46.6336 18.5831 47.0742 18.4358C47.5149 18.2885 47.9058 18.0213 48.203 17.6642C48.5003 17.3071 48.6922 16.8743 48.7573 16.4142C48.7573 16.4142 49.664 9.95273 49.664 5.24173C49.664 4.80308 49.5486 4.37215 49.3294 3.99222C49.1101 3.61229 48.7948 3.29672 48.415 3.07722C48.0352 2.85772 47.6044 2.74201 47.1657 2.7417C46.7271 2.74139 46.2961 2.85651 45.916 3.07548C45.916 3.07548 39.9355 6.53048 36.18 9.85548C35.9013 10.1024 35.6813 10.4085 35.536 10.7513C35.3907 11.0941 35.3238 11.4651 35.3402 11.8371C35.3565 12.209 35.4557 12.5727 35.6306 12.9014C35.8054 13.2302 36.0515 13.5157 36.3508 13.7372Z"
        fill="#F1F1F6" />
    <path fillRule="evenodd" clipRule="evenodd"
        d="M44.4365 53.8757C44.4365 53.8757 43.8767 38.9097 44.4162 20.9574C44.4162 20.9574 48.9455 20.5357 54.681 20.7699C54.681 20.7699 53.6505 37.6872 54.3765 54.0164C54.3765 54.0164 46.7877 53.8344 44.4365 53.8757Z"
        fill="#FFBE32" />
    <path fillRule="evenodd" clipRule="evenodd"
        d="M54.014 48.6409C54.014 48.6409 53.1233 49.6452 51.8505 50.7107C51.8247 50.7316 51.8033 50.7574 51.7875 50.7866C51.7718 50.8158 51.762 50.8479 51.7588 50.8809C51.7556 50.914 51.759 50.9473 51.7688 50.9791C51.7786 51.0108 51.7946 51.0402 51.816 51.0657C51.8373 51.0911 51.8635 51.1121 51.893 51.1273C51.9225 51.1425 51.9547 51.1517 51.9878 51.1544C52.0209 51.157 52.0542 51.153 52.0857 51.1426C52.1173 51.1323 52.1464 51.1157 52.1715 51.0939C53.4758 50.0022 54.3883 48.9727 54.3883 48.9727C54.4292 48.9227 54.4493 48.8587 54.4441 48.7942C54.439 48.7297 54.4091 48.6697 54.3607 48.6268C54.3123 48.5839 54.2491 48.5614 54.1845 48.5641C54.1199 48.5667 54.0588 48.5942 54.014 48.6409ZM53.9473 42.7519C53.9473 42.7519 51.2015 45.3949 48.6783 48.2187C48.6343 48.2682 48.6117 48.333 48.6155 48.3991C48.6193 48.4652 48.6491 48.5271 48.6985 48.5712C48.7478 48.6153 48.8126 48.638 48.8787 48.6344C48.9448 48.6308 49.0068 48.6012 49.051 48.5519C51.562 45.7422 54.294 43.1122 54.294 43.1122C54.3418 43.0662 54.3693 43.0031 54.3706 42.9368C54.3719 42.8705 54.3467 42.8065 54.3008 42.7587C54.2548 42.7109 54.1917 42.6834 54.1254 42.6821C54.0591 42.6808 53.995 42.706 53.9473 42.7519ZM53.9515 37.9414C53.9515 37.9414 53.2478 38.6792 50.4348 40.6039C50.38 40.6414 50.3424 40.6991 50.3302 40.7643C50.318 40.8295 50.3322 40.8968 50.3696 40.9516C50.4071 41.0063 50.4648 41.0439 50.53 41.0561C50.5951 41.0683 50.6625 41.0541 50.7173 41.0167C53.5975 39.0459 54.3145 38.2854 54.3145 38.2854C54.3601 38.2373 54.3847 38.173 54.383 38.1067C54.3812 38.0404 54.3531 37.9776 54.305 37.9319C54.2569 37.8863 54.1926 37.8617 54.1263 37.8635C54.06 37.8653 53.9971 37.8933 53.9515 37.9414ZM54.0483 32.9867C54.0483 32.9867 51.2138 35.3989 47.9193 37.5474C47.8637 37.5837 47.8249 37.6405 47.8112 37.7054C47.7976 37.7703 47.8103 37.8379 47.8465 37.8934C47.8827 37.949 47.9395 37.9878 48.0044 38.0015C48.0693 38.0151 48.137 38.0024 48.1925 37.9662C51.5143 35.7999 54.3723 33.3674 54.3723 33.3674C54.4216 33.3242 54.452 33.2632 54.4568 33.1977C54.4616 33.1322 54.4404 33.0674 54.3979 33.0174C54.3553 32.9674 54.2948 32.9361 54.2294 32.9304C54.1639 32.9246 54.0989 32.9449 54.0483 32.9867ZM54.188 29.1157C54.188 29.1157 52.7588 29.9379 51.0885 31.4259C51.0631 31.4475 51.0423 31.474 51.0273 31.5037C51.0123 31.5334 51.0034 31.5659 51.0011 31.5991C50.9988 31.6323 51.0032 31.6657 51.014 31.6972C51.0247 31.7287 51.0417 31.7577 51.0639 31.7826C51.086 31.8075 51.1129 31.8277 51.143 31.842C51.173 31.8563 51.2057 31.8645 51.2389 31.8661C51.2722 31.8676 51.3055 31.8625 51.3367 31.851C51.368 31.8395 51.3966 31.8219 51.421 31.7992C53.047 30.3507 54.4375 29.5489 54.4375 29.5489C54.494 29.5154 54.535 29.4609 54.5517 29.3973C54.5684 29.3338 54.5593 29.2662 54.5265 29.2092C54.4937 29.1522 54.4398 29.1105 54.3764 29.093C54.3131 29.0755 54.2454 29.0836 54.188 29.1157ZM54.388 23.0644C54.388 23.0644 50.4773 26.4207 46.1515 29.5302C46.0977 29.5689 46.0614 29.6274 46.0507 29.6929C46.04 29.7583 46.0558 29.8253 46.0945 29.8792C46.1332 29.933 46.1917 29.9693 46.2572 29.98C46.3226 29.9907 46.3897 29.9749 46.4435 29.9362C50.787 26.8139 54.7138 23.4437 54.7138 23.4437C54.7392 23.4225 54.7602 23.3964 54.7755 23.367C54.7908 23.3376 54.8001 23.3054 54.8029 23.2724C54.8056 23.2394 54.8018 23.2061 54.7916 23.1746C54.7814 23.1431 54.765 23.1139 54.7434 23.0887C54.7218 23.0636 54.6954 23.043 54.6658 23.0281C54.6361 23.0133 54.6038 23.0045 54.5708 23.0022C54.5377 22.9999 54.5045 23.0043 54.4731 23.015C54.4418 23.0256 54.4128 23.0425 54.388 23.0644ZM51.4183 20.4822C51.4183 20.4822 49.994 21.2824 47.8125 23.1609C47.7876 23.1824 47.7672 23.2085 47.7524 23.2378C47.7376 23.2671 47.7287 23.299 47.7263 23.3318C47.7238 23.3645 47.7279 23.3974 47.7381 23.4286C47.7484 23.4598 47.7647 23.4887 47.7861 23.5136C47.8076 23.5384 47.8337 23.5589 47.863 23.5737C47.8923 23.5885 47.9242 23.5973 47.957 23.5998C47.9897 23.6022 48.0226 23.5982 48.0538 23.5879C48.085 23.5777 48.1139 23.5614 48.1388 23.5399C50.2723 21.7027 51.6635 20.9177 51.6635 20.9177C51.6931 20.9021 51.7192 20.8808 51.7404 20.8549C51.7615 20.829 51.7773 20.7992 51.7867 20.7672C51.7962 20.7351 51.7991 20.7015 51.7953 20.6683C51.7915 20.6351 51.7811 20.603 51.7648 20.5739C51.7484 20.5447 51.7263 20.5192 51.6999 20.4988C51.6734 20.4783 51.6432 20.4634 51.6109 20.4548C51.5786 20.4463 51.5449 20.4443 51.5118 20.449C51.4787 20.4537 51.4469 20.465 51.4183 20.4822Z"
        fill="white" />
    <path fillRule="evenodd" clipRule="evenodd"
        d="M27.1403 53.866C27.1403 53.866 27.686 40.085 27.5005 34.5122C27.5005 34.5122 31.1473 34.2245 36.239 34.5757C36.239 34.5757 36.55 39.0167 36.5103 53.8382C36.5103 53.8382 31.1383 53.768 27.1403 53.866Z"
        fill="#FF9227" />
    <path fillRule="evenodd" clipRule="evenodd"
        d="M36.3305 45.3552C36.3305 45.3552 34.3345 47.063 31.749 49.6787C31.7037 49.7261 31.6788 49.7894 31.6797 49.855C31.6806 49.9206 31.7072 49.9832 31.7539 50.0293C31.8005 50.0755 31.8634 50.1014 31.929 50.1016C31.9946 50.1017 32.0576 50.0761 32.1045 50.0302C34.673 47.432 36.6555 45.735 36.6555 45.735C36.6814 45.7139 36.7028 45.6879 36.7185 45.6585C36.7342 45.629 36.7438 45.5967 36.7469 45.5635C36.7499 45.5303 36.7462 45.4968 36.7361 45.465C36.7259 45.4332 36.7095 45.4037 36.6878 45.3784C36.6661 45.353 36.6396 45.3323 36.6097 45.3173C36.5799 45.3024 36.5473 45.2936 36.514 45.2915C36.4807 45.2893 36.4473 45.2938 36.4158 45.3048C36.3843 45.3157 36.3553 45.3329 36.3305 45.3552ZM36.287 40.2837C36.287 40.2837 34.8518 41.2732 33.1338 42.8945C33.0864 42.9402 33.0591 43.0027 33.0575 43.0685C33.056 43.1342 33.0804 43.1979 33.1256 43.2458C33.1707 43.2936 33.2329 43.3218 33.2986 43.3241C33.3643 43.3264 33.4283 43.3028 33.4767 43.2582C35.1627 41.667 36.5708 40.6952 36.5708 40.6952C36.6235 40.6569 36.6592 40.5994 36.6702 40.5351C36.6812 40.4708 36.6666 40.4048 36.6296 40.3511C36.5926 40.2974 36.536 40.2603 36.472 40.2477C36.408 40.2351 36.3416 40.248 36.287 40.2837ZM36.2057 36.4057C36.2057 36.4057 33.592 37.9097 29.9442 41.045C29.8951 41.0885 29.865 41.1496 29.8606 41.2151C29.8561 41.2806 29.8775 41.3452 29.9203 41.3951C29.9631 41.4449 30.0238 41.4758 30.0892 41.4813C30.1546 41.4868 30.2196 41.4663 30.27 41.4242C33.874 38.3265 36.4552 36.839 36.4552 36.839C36.5118 36.8054 36.5528 36.751 36.5695 36.6874C36.5861 36.6238 36.5771 36.5562 36.5443 36.4993C36.5115 36.4423 36.4576 36.4005 36.3942 36.383C36.3308 36.3655 36.2631 36.3737 36.2057 36.4057ZM33.488 34.2752C33.488 34.2752 32.3665 35.5022 30.4487 36.771C30.3947 36.8081 30.3574 36.8649 30.3448 36.9293C30.3323 36.9936 30.3455 37.0603 30.3817 37.115C30.4178 37.1697 30.474 37.208 30.5381 37.2216C30.6023 37.2353 30.6692 37.2232 30.7245 37.188C32.7022 35.8797 33.8572 34.6122 33.8572 34.6122C33.9005 34.563 33.9227 34.4988 33.9191 34.4334C33.9155 34.368 33.8864 34.3066 33.838 34.2625C33.7897 34.2183 33.7259 34.1949 33.6604 34.1973C33.595 34.1997 33.533 34.2277 33.488 34.2752Z"
        fill="white" />
    <path fillRule="evenodd" clipRule="evenodd"
        d="M14.6885 54.0112C14.6885 54.0112 14.8035 43.9382 15.3303 41.012C15.3303 41.012 17.7063 40.6255 22.7863 41.2342C22.7863 41.2342 22.5985 47.5707 22.8915 53.9022C22.8915 53.9022 19.1695 53.9677 14.6885 54.0112Z"
        fill="#394CFF" />
    <path fillRule="evenodd" clipRule="evenodd"
        d="M22.6075 48.0135C22.6075 48.0135 21.4185 48.7395 19.7208 50.2253C19.6956 50.2467 19.675 50.273 19.6601 50.3025C19.6452 50.332 19.6363 50.3642 19.634 50.3972C19.6316 50.4302 19.6358 50.4633 19.6463 50.4946C19.6568 50.526 19.6734 50.5549 19.6952 50.5798C19.7169 50.6047 19.7434 50.625 19.7731 50.6396C19.8028 50.6542 19.8351 50.6627 19.8681 50.6647C19.9011 50.6667 19.9341 50.6622 19.9654 50.6513C19.9966 50.6405 20.0254 50.6235 20.05 50.6015C21.7083 49.1505 22.8683 48.44 22.8683 48.44C22.9233 48.4047 22.9624 48.3493 22.9771 48.2855C22.9918 48.2218 22.9809 48.1549 22.9468 48.099C22.9126 48.0432 22.858 48.003 22.7946 47.987C22.7312 47.971 22.664 47.9805 22.6075 48.0135ZM22.5688 44.114C22.5688 44.114 19.86 46.5225 17.0945 48.0985C17.0369 48.1314 16.9947 48.1858 16.9772 48.2497C16.9597 48.3137 16.9683 48.382 17.0011 48.4396C17.034 48.4972 17.0884 48.5395 17.1524 48.557C17.2163 48.5745 17.2846 48.5659 17.3423 48.533C20.1503 46.9328 22.901 44.4878 22.901 44.4878C23.004 44.396 23.0133 44.238 22.9218 44.1348C22.83 44.0318 22.6718 44.0225 22.5688 44.114ZM21.4698 40.8975C21.4698 40.8975 19.865 41.9685 18.4883 43.1278C18.4629 43.1488 18.442 43.1747 18.4267 43.2039C18.4114 43.2331 18.402 43.265 18.399 43.2978C18.3961 43.3307 18.3997 43.3638 18.4096 43.3952C18.4195 43.4266 18.4356 43.4558 18.4568 43.481C18.478 43.5062 18.504 43.527 18.5333 43.5421C18.5626 43.5573 18.5946 43.5664 18.6274 43.5692C18.6603 43.5719 18.6934 43.5681 18.7247 43.558C18.7561 43.5478 18.7852 43.5316 18.8103 43.5103C20.1663 42.3683 21.7473 41.3135 21.7473 41.3135C21.8024 41.2767 21.8407 41.2195 21.8537 41.1545C21.8667 41.0894 21.8533 41.0219 21.8165 40.9668C21.7983 40.9394 21.7749 40.916 21.7476 40.8977C21.7203 40.8795 21.6897 40.8667 21.6575 40.8603C21.5924 40.8473 21.5249 40.8607 21.4698 40.8975Z"
        fill="white" />
    <path fillRule="evenodd" clipRule="evenodd"
        d="M10.8637 12.168C10.8637 12.168 10.2492 36.1825 10.821 58.7678C10.824 58.8669 10.8661 58.9607 10.9381 59.0289C11.0102 59.097 11.1062 59.1338 11.2053 59.1313C11.3044 59.1288 11.3985 59.0871 11.467 59.0155C11.5355 58.9438 11.5728 58.8479 11.5707 58.7488C10.9995 36.182 11.6135 12.1873 11.6135 12.1873C11.6158 12.088 11.5786 11.9919 11.5101 11.9201C11.4416 11.8482 11.3475 11.8064 11.2482 11.8038C11.149 11.8013 11.0528 11.8382 10.9807 11.9065C10.9086 11.9747 10.8666 12.0688 10.8637 12.168Z"
        fill="#3C69C6" />
    <path fillRule="evenodd" clipRule="evenodd"
        d="M5.94776 54.5665C5.94776 54.5665 32.7975 53.8353 58.0528 54.475C58.1519 54.477 58.2477 54.4397 58.3194 54.3713C58.3911 54.3028 58.4328 54.2087 58.4353 54.1096C58.4378 54.0105 58.401 53.9144 58.3328 53.8424C58.2647 53.7704 58.1708 53.7283 58.0718 53.7253C32.7973 53.085 5.92751 53.8168 5.92751 53.8168C5.82809 53.8195 5.7338 53.8615 5.6654 53.9337C5.59699 54.0059 5.56007 54.1024 5.56276 54.2018C5.56544 54.3012 5.60752 54.3955 5.67972 54.4639C5.75192 54.5323 5.84834 54.5692 5.94776 54.5665Z"
        fill="#3C69C6" />
    <path fillRule="evenodd" clipRule="evenodd"
        d="M16.4517 26.6012C16.082 26.9949 19.2985 30.7964 19.778 30.6764C20.2575 30.5567 22.6547 27.1407 25.9207 23.5147C25.9207 23.5147 31.4345 24.5934 36.259 25.0729C36.259 25.0729 39.9127 19.4909 44.2427 13.4539C44.2427 13.4539 45.083 14.8664 46.2815 16.0652C46.2815 16.0652 47.164 9.8057 47.164 5.2417C47.164 5.2417 41.4333 8.54345 37.8375 11.7272C37.8375 11.7272 39.1045 11.9237 41.292 12.0434C41.292 12.0434 38.3265 15.6737 33.2322 20.0937C33.2322 20.0937 29.4492 19.5317 24.8045 18.2957C24.8045 18.2957 20.0852 22.7332 16.4517 26.6012Z"
        fill="#394CFF" />
</svg>