<?xml version="1.0" standalone="no"?>
<!DOCTYPE svg PUBLIC "-//W3C//DTD SVG 20010904//EN"
 "http://www.w3.org/TR/2001/REC-SVG-20010904/DTD/svg10.dtd">
<svg version="1.0" xmlns="http://www.w3.org/2000/svg"
 width="512.000000pt" height="512.000000pt" viewBox="0 0 512.000000 512.000000"
 preserveAspectRatio="xMidYMid meet">

<g transform="translate(0.000000,512.000000) scale(0.100000,-0.100000)"
fill="#000000" stroke="none">
<path d="M1197 4613 c-4 -3 -7 -111 -7 -240 0 -251 5 -285 51 -317 38 -26 93
-21 131 13 l33 29 3 171 c3 150 1 171 -12 171 -14 0 -16 -22 -16 -162 -1 -170
-4 -183 -47 -206 -34 -18 -52 -14 -84 17 l-29 29 0 251 c0 229 -3 264 -23 244z"/>
<path d="M1787 4173 c-49 -8 -56 -33 -43 -160 7 -62 9 -113 6 -113 -3 -1 -59
-7 -124 -14 -144 -16 -150 -21 -141 -111 13 -123 8 -121 256 -91 l37 4 12
-117 c16 -149 21 -155 115 -146 110 11 109 10 101 125 -3 53 -9 111 -12 127
l-6 30 56 7 c31 3 81 9 112 12 78 9 88 22 79 108 -10 107 -17 111 -151 97 -59
-6 -109 -9 -111 -7 -2 2 -9 50 -15 107 -13 135 -22 149 -91 148 -28 -1 -64 -4
-80 -6z"/>
<path d="M2940 3254 c-8 -2 -217 -24 -465 -50 -247 -25 -452 -48 -454 -50 -15
-15 58 -9 491 36 266 27 491 50 501 50 9 0 17 5 17 10 0 9 -57 12 -90 4z"/>
<path d="M1785 3135 c-5 -2 -217 -25 -470 -51 -253 -25 -462 -48 -464 -50 -17
-15 64 -10 496 35 269 28 494 51 501 51 7 0 12 5 12 10 0 9 -53 13 -75 5z"/>
<path d="M2543 2936 c-265 -28 -485 -54 -489 -59 -13 -12 37 -8 486 38 513 53
520 53 520 66 0 11 54 16 -517 -45z"/>
<path d="M4465 2941 c-57 -35 -75 -68 -154 -280 -43 -117 -88 -221 -99 -232
-27 -24 -35 -54 -23 -77 10 -20 357 -153 397 -152 11 0 30 -10 42 -23 45 -48
42 -66 -67 -360 -55 -151 -101 -283 -101 -294 0 -28 25 -46 54 -39 19 5 30 22
54 88 17 46 65 176 106 290 81 221 87 257 57 323 -17 39 -72 95 -92 95 -19 0
-7 45 67 242 86 231 91 272 41 346 -53 81 -206 121 -282 73z"/>
<path d="M1378 2816 c-435 -47 -572 -66 -467 -66 36 0 892 86 947 95 30 5 48
27 20 24 -7 -1 -232 -25 -500 -53z"/>
<path d="M2546 2659 c-253 -27 -462 -51 -464 -54 -3 -3 -3 -7 -1 -9 8 -8 993
96 1004 105 15 15 -57 9 -539 -42z"/>
<path d="M1380 2539 c-255 -28 -466 -52 -469 -54 -2 -3 -2 -7 1 -10 2 -3 221
18 486 45 265 28 491 50 502 50 11 0 20 5 20 10 0 15 -32 12 -540 -41z"/>
<path d="M2593 2386 c-265 -28 -485 -54 -489 -58 -12 -13 23 -10 524 42 265
28 484 50 487 50 3 0 5 5 5 10 0 13 27 15 -527 -44z"/>
<path d="M1428 2266 c-267 -28 -490 -54 -494 -59 -13 -12 41 -8 492 38 507 52
524 54 524 66 0 11 50 15 -522 -45z"/>
<path d="M2600 2109 c-245 -26 -452 -48 -460 -48 -8 -1 -10 -4 -5 -10 11 -10
999 89 1011 102 14 13 -101 4 -546 -44z"/>
<path d="M1440 1989 c-245 -26 -454 -48 -465 -48 -12 -1 -15 -4 -10 -10 12
-11 995 87 1010 100 16 15 -74 8 -535 -42z"/>
<path d="M2640 1837 c-261 -27 -477 -51 -479 -53 -18 -16 64 -10 461 30 549
57 548 56 548 67 0 12 3 13 -530 -44z"/>
<path d="M1895 1760 c-33 -4 -247 -26 -475 -50 -228 -23 -419 -47 -425 -51
-14 -14 3 -12 517 41 265 28 483 50 485 50 2 0 3 5 3 10 0 11 -14 11 -105 0z"/>
<path d="M2692 1565 c-446 -47 -515 -57 -501 -69 3 -2 994 99 1007 103 6 2 1
21 -5 20 -5 -1 -230 -25 -501 -54z"/>
<path d="M1482 1440 c-250 -27 -456 -51 -460 -54 -3 -3 -3 -8 -1 -10 7 -7 997
98 1005 107 13 13 -86 5 -544 -43z"/>
<path d="M3652 405 c-29 -76 -28 -103 3 -115 38 -15 52 -3 77 63 l24 62 -35
12 c-18 6 -37 17 -41 23 -4 6 -16 -14 -28 -45z"/>
</g>
</svg>
