<svg width="24" height="24" viewBox="0 0 24 24" fill="none" xmlns="http://www.w3.org/2000/svg">
<path d="M7.54264 11.1393C7.10864 10.7293 7.3986 9.99933 7.99593 10H9.61068V6.66667C9.61068 6.29867 9.90934 6 10.2773 6H14.2773C14.6453 6 14.944 6.29867 14.944 6.66667V10H16.6733C17.2707 10 17.5606 10.7293 17.1266 11.1393L12.9434 15.0913C12.602 15.414 12.0679 15.414 11.7259 15.0913L7.54264 11.1393ZM17.0013 17.5H7.66797C7.39197 17.5 7.16797 17.724 7.16797 18C7.16797 18.276 7.39197 18.5 7.66797 18.5H17.0013C17.2773 18.5 17.5013 18.276 17.5013 18C17.5013 17.724 17.2773 17.5 17.0013 17.5Z" fill="#0F1B31"/>
</svg>
