<svg width="24" height="24" viewBox="0 0 24 24" fill="none" xmlns="http://www.w3.org/2000/svg">
    <g clipPath="url(#clip0_19937_3377)">
        <path
            d="M5.66797 18.3329L9.36748 16.91C9.60411 16.819 9.72242 16.7735 9.83311 16.7141C9.93144 16.6613 10.0252 16.6004 10.1133 16.532C10.2126 16.4549 10.3022 16.3653 10.4815 16.186L18.0013 8.66622C18.7377 7.92984 18.7377 6.73593 18.0013 5.99955C17.2649 5.26317 16.071 5.26317 15.3347 5.99955L7.81482 13.5194C7.63555 13.6986 7.54592 13.7883 7.4689 13.8875C7.40048 13.9757 7.33957 14.0694 7.28679 14.1677C7.22737 14.2784 7.18187 14.3967 7.09086 14.6334L5.66797 18.3329ZM5.66797 18.3329L7.04005 14.7655C7.13823 14.5102 7.18733 14.3826 7.27153 14.3241C7.34512 14.273 7.43617 14.2537 7.52417 14.2705C7.62486 14.2898 7.72156 14.3865 7.91496 14.5799L9.42102 16.0859C9.61442 16.2793 9.71112 16.376 9.73035 16.4767C9.74715 16.5647 9.72783 16.6558 9.67673 16.7293C9.61827 16.8135 9.49063 16.8626 9.23535 16.9608L5.66797 18.3329Z"
            stroke="#0F1B31" strokeWidth="1.4" strokeLinecap="round" strokeLinejoin="round" />
    </g>
    <defs>
        <clipPath id="clip0_19937_3377">
            <rect width="16" height="16" fill="white" transform="translate(4 4)" />
        </clipPath>
    </defs>
</svg>