<svg width="24" height="24" viewBox="0 0 24 24" fill="none" xmlns="http://www.w3.org/2000/svg">
<path d="M11.9491 17.7957C11.818 17.9796 11.6719 18.1525 11.5123 18.3124C10.7341 19.0909 9.69931 19.5197 8.59868 19.5197C7.49806 19.5197 6.46333 19.0909 5.68509 18.3124C4.07869 16.7055 4.07869 14.0908 5.68509 12.4839C5.84487 12.324 6.01735 12.1773 6.20083 12.0453C5.79017 11.396 5.44333 10.7468 5.17767 10.1218C5.1681 10.0993 5.15919 10.077 5.14982 10.0545C4.69033 10.3264 4.26502 10.6564 3.87818 11.0433C1.37654 13.5458 1.37654 17.6176 3.87818 20.12C5.09009 21.3323 6.70142 22 8.41536 22C10.1293 22 11.7406 21.3323 12.9525 20.12C13.334 19.7384 13.6652 19.3093 13.9388 18.8471C13.9168 18.8379 13.895 18.8292 13.8729 18.8198C13.2478 18.5539 12.5984 18.2067 11.9491 17.7957ZM17.5623 12.2485C16.6097 12.3602 15.7364 12.7731 15.0826 13.4271L15.0568 13.4531C14.7364 13.7735 14.3118 13.9496 13.86 13.9497H13.8597C13.4078 13.9497 12.9831 13.7737 12.6637 13.4541L10.4883 11.278C9.82934 10.6187 9.82938 9.54616 10.4884 8.88698L10.61 8.76534C11.2248 8.15034 11.6206 7.32886 11.7426 6.42905C10.9095 5.92761 10.0906 5.54913 9.35114 5.32948C7.62935 4.81804 6.72661 5.2521 6.27251 5.70632C5.48482 6.49425 5.46626 7.90499 6.22021 9.6787C6.8824 11.2365 8.10114 12.9692 9.56399 14.4325C11.0268 15.8958 12.759 17.1149 14.3163 17.7774C15.1827 18.1458 15.9623 18.3299 16.6251 18.3299C17.3191 18.3299 17.885 18.1281 18.2879 17.725C18.7428 17.2699 19.1771 16.3649 18.6621 14.6378C18.4418 13.8986 18.0632 13.0805 17.5623 12.2485Z" fill="#FEA433"/>
<path d="M20.6179 3.28306C19.7451 2.43392 18.5892 1.97833 17.3624 2.00079C16.1345 2.0231 14.9941 2.52095 14.1513 3.40263C13.4199 4.16778 12.976 5.17079 12.9015 6.22688C12.8111 7.50856 12.2814 8.69453 11.41 9.56629L11.2885 9.68785C11.0705 9.90582 11.0705 10.2591 11.2884 10.4771L13.4639 12.6533C13.5158 12.7051 13.5773 12.7463 13.6451 12.7743C13.7128 12.8024 13.7854 12.8168 13.8587 12.8168C13.9321 12.8168 14.0047 12.8023 14.0724 12.7742C14.1402 12.7462 14.2017 12.705 14.2535 12.6532L14.2804 12.6262C15.1842 11.7221 16.4097 11.1785 17.7312 11.0955C18.8376 11.0261 19.8806 10.5548 20.664 9.77047C21.5326 8.9016 22.0062 7.74641 21.9977 6.51762C21.9891 5.28903 21.4991 4.14032 20.6179 3.28306Z" fill="#FEA433"/>
</svg>
