<svg width="24" height="24" viewBox="0 0 24 24" fill="none" xmlns="http://www.w3.org/2000/svg">
<path d="M15.3424 5.94506C15.4391 3.84687 13.8165 2.06752 11.7181 1.97076C9.61976 1.87401 7.84028 3.49649 7.74353 5.59469C7.64679 7.69288 9.26941 9.47223 11.3678 9.56899C13.4661 9.66574 15.2456 8.04325 15.3424 5.94506Z" fill="#039855"/>
<path d="M9.70509 21.7898C10.399 21.8223 11.0873 21.6505 11.6845 21.2956C11.7535 21.2735 11.822 21.2484 11.8895 21.2167L13.5689 20.4227L15.0045 21.6192C15.2994 21.8655 15.6715 22.0003 16.0557 21.9999C16.3935 22.0001 16.7232 21.8961 16.9999 21.7022C17.2765 21.5084 17.4867 21.2339 17.6018 20.9163C17.7168 20.5987 17.7313 20.2533 17.6431 19.9272C17.5548 19.6011 17.3683 19.3101 17.1088 19.0938L14.8673 17.2262C14.68 17.0708 14.4606 16.959 14.2248 16.8988C13.9891 16.8386 13.7429 16.8315 13.5041 16.878L13.5572 15.7219L14.1522 15.9708C14.3529 16.0552 14.5683 16.0987 14.786 16.0987C15.1103 16.0987 15.4273 16.0027 15.6971 15.823C15.967 15.6433 16.1778 15.3878 16.3029 15.0887C16.3862 14.8896 16.4295 14.6761 16.4302 14.4603C16.431 14.2445 16.3893 14.0307 16.3074 13.8311C16.2256 13.6314 16.1052 13.4498 15.9532 13.2967C15.8011 13.1436 15.6204 13.0219 15.4213 12.9386L13.1162 11.9737C12.8119 11.4755 12.39 11.0596 11.8875 10.7625C11.3849 10.4655 10.8172 10.2963 10.234 10.2698C8.26415 10.1793 6.59432 11.7027 6.50407 13.672L6.30266 18.0608C6.21212 20.0301 7.73553 21.6999 9.70509 21.7898Z" fill="#039855"/>
</svg>
