<svg width="20" height="20" viewBox="0 0 20 20" fill="none" xmlns="http://www.w3.org/2000/svg">
    <path
        d="M16.4215 8.92262C16.259 9.08512 16.0456 9.16676 15.8323 9.16676C15.6189 9.16676 15.4056 9.08512 15.2431 8.92262L10.8323 4.51181V17.5001C10.8323 17.9601 10.4598 18.3334 9.99893 18.3334C9.5381 18.3334 9.1656 17.9601 9.1656 17.5001V4.51181L4.75479 8.92262C4.42896 9.24846 3.90224 9.24846 3.57641 8.92262C3.25057 8.59679 3.25057 8.07007 3.57641 7.74424L9.40893 1.91172C9.48643 1.83422 9.57803 1.77335 9.68053 1.73085C9.88386 1.64668 10.114 1.64668 10.3173 1.73085C10.4198 1.77335 10.5114 1.83422 10.5889 1.91172L16.4215 7.74424C16.7473 8.07007 16.7473 8.59679 16.4215 8.92262Z"
        fill="#585A5D" />
</svg>