<svg width="10" height="10" viewBox="0 0 10 10" fill="none" xmlns="http://www.w3.org/2000/svg">
<path d="M8.33301 1.66699H7.22192L6.85693 0.570068C6.74293 0.230068 6.42492 0 6.06592 0H3.93408C3.57508 0 3.25707 0.229068 3.14307 0.570068L2.77808 1.66699H1.66699C0.555992 1.66699 0 2.22298 0 3.33398V8.33398C0 9.44498 0.555992 10.001 1.66699 10.001H8.33398C9.44498 10.001 10.001 9.44498 10.001 8.33398V3.33398C9.99998 2.22198 9.44401 1.66699 8.33301 1.66699ZM5 7.5C4.08 7.5 3.33301 6.75401 3.33301 5.83301C3.33301 4.91301 4.079 4.16602 5 4.16602C5.921 4.16602 6.66699 4.91201 6.66699 5.83301C6.66699 6.75401 5.92 7.5 5 7.5Z" fill="white"/>
</svg>
