<svg width="16" height="16" viewBox="0 0 16 16" fill="none" xmlns="http://www.w3.org/2000/svg">
<path d="M8.94349 8L12.4722 4.47132C12.7328 4.21132 12.7328 3.78869 12.4722 3.52869C12.2115 3.26802 11.7902 3.26802 11.5295 3.52869L8.00082 7.05734L4.47215 3.52869C4.21149 3.26802 3.79015 3.26802 3.52948 3.52869C3.26882 3.78869 3.26882 4.21132 3.52948 4.47132L7.05815 8L3.52948 11.5287C3.26882 11.7887 3.26882 12.2113 3.52948 12.4713C3.65948 12.6013 3.83015 12.6667 4.00082 12.6667C4.17148 12.6667 4.34215 12.6013 4.47215 12.4713L8.00082 8.94267L11.5295 12.4713C11.6595 12.6013 11.8302 12.6667 12.0008 12.6667C12.1715 12.6667 12.3422 12.6013 12.4722 12.4713C12.7328 12.2113 12.7328 11.7887 12.4722 11.5287L8.94349 8Z" fill="#25314C"/>
</svg>
