<svg width="24" height="24" viewBox="0 0 24 24" fill="none" xmlns="http://www.w3.org/2000/svg">
<path d="M2.96399 4.28938C2.96399 3.57768 3.5622 3 4.29963 3H19.7004C20.4382 3 21.0361 3.57768 21.0361 4.28938V19.7106C21.0361 20.4226 20.4382 20.9998 19.7004 20.9998H4.29963C3.56227 20.9998 2.96399 20.4226 2.96399 19.7109V4.28917V4.28938Z" fill="#006699"/>
<path d="M8.45588 18.0637V9.96009H5.75156V18.0637H8.45617H8.45588ZM7.10429 8.85388C8.04714 8.85388 8.63413 8.23162 8.63413 7.45397C8.61649 6.6586 8.04714 6.05371 7.12222 6.05371C6.19666 6.05371 5.59216 6.6586 5.59216 7.4539C5.59216 8.23155 6.17894 8.85381 7.08657 8.85381H7.10408L7.10429 8.85388ZM9.95276 18.0637H12.6569V13.5387C12.6569 13.2969 12.6745 13.0544 12.746 12.8816C12.9414 12.3975 13.3863 11.8964 14.1336 11.8964C15.1119 11.8964 15.5034 12.6395 15.5034 13.7289V18.0637H18.2075V13.4173C18.2075 10.9284 16.8735 9.77011 15.0943 9.77011C13.6357 9.77011 12.995 10.5821 12.6391 11.1352H12.6571V9.96037H9.9529C9.9882 10.7206 9.95269 18.0639 9.95269 18.0639L9.95276 18.0637Z" fill="white"/>
</svg>
