<svg width="41" height="40" viewBox="0 0 41 40" fill="none" xmlns="http://www.w3.org/2000/svg">
<path d="M22.3307 38.3333C31.5355 38.3333 38.9974 30.8714 38.9974 21.6667C38.9974 12.4619 31.5355 5 22.3307 5C13.126 5 5.66406 12.4619 5.66406 21.6667C5.66406 30.8714 13.126 38.3333 22.3307 38.3333Z" fill="#FFBF0B"/>
<path d="M17.8516 23.9063C18.5807 23.3333 19.362 23.0729 20.1953 22.9167C21.0286 22.7604 21.862 22.7604 22.6953 22.9688C23.5286 23.125 24.3099 23.4375 25.0391 23.9583C25.7161 24.4271 26.3411 25.0521 26.7578 25.7292C26.9141 25.9375 26.8099 26.25 26.6016 26.3542C26.4974 26.4063 26.3411 26.4583 26.237 26.4063H26.1849C25.4036 26.1979 24.7786 25.9375 24.1536 25.7813C23.5286 25.5729 22.9036 25.4688 22.2786 25.3125C21.6536 25.2083 21.0286 25.1042 20.3516 25.0521C19.7266 25 18.9974 24.9479 18.3203 24.8958H18.2161C17.9036 24.8438 17.6953 24.5833 17.6953 24.2708C17.6432 24.1667 17.6953 24.0104 17.8516 23.9063Z" fill="#0F1B31"/>
<path d="M29.7773 21.0416C31.9347 21.0416 33.6836 19.2927 33.6836 17.1354C33.6836 14.978 31.9347 13.2291 29.7773 13.2291C27.62 13.2291 25.8711 14.978 25.8711 17.1354C25.8711 19.2927 27.62 21.0416 29.7773 21.0416Z" fill="white"/>
<path d="M29.7773 21.0416C31.9347 21.0416 33.6836 19.2927 33.6836 17.1354C33.6836 14.978 31.9347 13.2291 29.7773 13.2291C27.62 13.2291 25.8711 14.978 25.8711 17.1354C25.8711 19.2927 27.62 21.0416 29.7773 21.0416Z" fill="white"/>
<path d="M29.7773 21.0416C31.9347 21.0416 33.6836 19.2927 33.6836 17.1354C33.6836 14.978 31.9347 13.2291 29.7773 13.2291C27.62 13.2291 25.8711 14.978 25.8711 17.1354C25.8711 19.2927 27.62 21.0416 29.7773 21.0416Z" fill="white"/>
<path d="M29.3633 18.3854C30.6577 18.3854 31.707 17.336 31.707 16.0416C31.707 14.7472 30.6577 13.6979 29.3633 13.6979C28.0689 13.6979 27.0195 14.7472 27.0195 16.0416C27.0195 17.336 28.0689 18.3854 29.3633 18.3854Z" fill="#0F1B31"/>
<path d="M16.8633 19.2187C19.0206 19.2187 20.7695 17.4699 20.7695 15.3125C20.7695 13.1551 19.0206 11.4062 16.8633 11.4062C14.7059 11.4062 12.957 13.1551 12.957 15.3125C12.957 17.4699 14.7059 19.2187 16.8633 19.2187Z" fill="white"/>
<path d="M16.4961 16.5625C17.7905 16.5625 18.8398 15.5132 18.8398 14.2188C18.8398 12.9243 17.7905 11.875 16.4961 11.875C15.2017 11.875 14.1523 12.9243 14.1523 14.2188C14.1523 15.5132 15.2017 16.5625 16.4961 16.5625Z" fill="#0F1B31"/>
<path d="M8.83984 24.0625C9.10026 25.4167 9.30859 26.7709 9.51693 28.1771C9.62109 28.8542 9.72526 29.5834 9.77734 30.2605C9.82943 30.9896 9.93359 31.6667 9.93359 32.448V32.5C9.93359 33.6459 9.04818 34.6355 7.85026 34.6355C6.70443 34.6355 5.71484 33.75 5.71484 32.5521C5.71484 32.3438 5.71484 32.1875 5.76693 31.9792C5.92318 31.4063 6.02734 30.7813 6.13151 30.1042C6.23568 29.4792 6.33984 28.8021 6.39193 28.125C6.54818 26.7709 6.70443 25.4167 6.80859 24.1146C6.86068 23.5417 7.38151 23.125 7.90234 23.1771C8.42318 23.2292 8.78776 23.5938 8.83984 24.0625ZM15.4544 38.3334H11.4961C10.8711 38.3334 10.4023 37.8646 10.4023 37.2396C10.4023 36.6146 10.8711 36.1459 11.4961 36.1459H15.4544C16.0794 36.1459 16.5482 36.6146 16.5482 37.2396C16.5482 37.8646 16.0794 38.3334 15.4544 38.3334Z" fill="#394CFF"/>
<path d="M16.237 33.0208C16.237 30.1041 13.8411 29.2708 10.9245 29.2708C8.00781 29.2708 5.66406 30.1041 5.66406 33.0208C5.66406 35.9374 8.0599 38.3333 10.9766 38.3333C13.8932 38.3333 16.237 35.9374 16.237 33.0208Z" fill="#394CFF"/>
<path d="M12.1733 36.302C11.6004 36.302 12.1733 35.9374 11.965 35.3645C11.7567 34.6874 12.1733 33.9062 12.8504 33.7499C14.3608 33.3333 16.3921 33.4895 16.6525 33.4895C17.3817 33.5416 17.9025 34.2187 17.8504 34.9478C17.7983 35.677 17.1212 36.1978 16.3921 36.1458C15.9233 36.0937 13.4233 36.0937 12.5379 36.3541C12.4337 36.3541 12.2775 36.302 12.1733 36.302Z" fill="#394CFF"/>
<path d="M16.3407 33.8022C15.8719 33.8542 15.3511 33.9063 14.8824 34.0105C14.4136 34.1147 13.9449 34.2188 13.5282 34.3751C13.2678 34.4792 13.0074 34.3751 12.9032 34.1147C12.799 33.8542 12.9032 33.5938 13.1636 33.4897H13.2157C13.7365 33.3334 14.2574 33.2292 14.7782 33.1772C15.299 33.1251 15.8199 33.073 16.3407 33.073C16.549 33.073 16.7053 33.2292 16.7053 33.4376C16.7053 33.5938 16.549 33.8022 16.3407 33.8022Z" fill="#B0B7FF"/>
<path d="M12.7499 34.0625C12.229 34.0625 12.4894 33.6458 12.2811 33.125C11.9686 32.3958 12.3332 31.6146 13.0103 31.3021C14.4686 30.6771 16.5519 30.625 16.7603 30.625H16.8124C17.5415 30.625 18.1665 31.25 18.2186 31.9792C18.2186 32.7604 17.6457 33.3854 16.8644 33.4375C16.3957 33.4375 13.8957 33.75 13.0624 34.1146C12.9061 34.1146 12.9582 34.0625 12.7499 34.0625Z" fill="#394CFF"/>
<path d="M9.5177 29.1666C10.351 28.8541 11.2364 28.5937 12.0698 28.3853C12.4864 28.2812 12.9031 28.1249 13.3719 28.0208C13.8927 27.8645 14.4135 27.8124 14.9344 27.7603C15.4552 27.7083 15.976 27.7083 16.4969 27.7083C16.7573 27.7083 17.0177 27.7603 17.2781 27.7603L17.9552 27.8645C18.8406 27.9687 19.726 28.1249 20.6114 28.2812C21.1844 28.3853 21.5489 28.9062 21.4448 29.427C21.3927 29.8958 20.976 30.2603 20.5073 30.3124C19.6219 30.3645 18.6844 30.4166 17.7989 30.4166H17.1219C16.9135 30.4166 16.7573 30.4166 16.5489 30.4687C16.1844 30.5208 15.8198 30.5728 15.4552 30.677C15.0906 30.7812 14.726 30.8853 14.4135 31.0416C14.0489 31.1978 13.5802 31.3541 13.1635 31.5103C12.3302 31.8228 11.4969 32.1353 10.6114 32.4478C9.67395 32.7603 8.68436 32.2395 8.37186 31.3541C8.11145 30.4687 8.63228 29.4791 9.5177 29.1666Z" fill="#394CFF"/>
</svg>
