<svg width="24" height="24" viewBox="0 0 24 24" fill="none" xmlns="http://www.w3.org/2000/svg">
<path d="M15.0468 3.87602L15.4118 6.06632C15.9366 6.36285 16.4187 6.72916 16.845 7.15522C17.2709 7.58169 17.637 8.06393 17.9332 8.58876L20.1243 8.95339C20.9243 9.08553 21.9393 8.60162 22 7.45557C22.0004 6.48417 21.1243 5.73919 20.1679 5.87847L20.9739 5.29884C21.7329 4.7085 21.8018 3.56925 21.1161 2.88391C20.4296 2.19749 19.2632 2.24285 18.6929 3.03676L18.1214 3.8321C18.2607 2.87569 17.5157 2 16.5443 2C15.3836 2.07071 14.8943 3.12569 15.0468 3.87602ZM9.90039 7.0288C9.5054 7.42379 8.66968 8.46733 7.71219 9.80587C7.27011 10.4264 6.83873 11.0544 6.41826 11.6898C6.98397 12.8886 7.7754 13.6993 7.7754 13.6993C7.8389 13.767 7.8736 13.8566 7.87216 13.9494C7.87072 14.0421 7.83325 14.1307 7.76768 14.1963C7.70212 14.2619 7.6136 14.2994 7.52085 14.3009C7.42811 14.3024 7.33842 14.2678 7.27076 14.2043C7.27076 14.2043 6.55898 13.5061 5.95934 12.3922C5.52143 13.0674 5.09753 13.7516 4.68791 14.4443C3.71506 16.0975 2.8647 17.7607 2.39506 19.111C2.1597 19.786 2.02256 20.3835 2.00256 20.8431C1.98292 21.3024 2.07756 21.5949 2.24113 21.7588C2.40542 21.9231 2.69756 22.0173 3.1572 21.9973C3.61684 21.9773 4.21434 21.8402 4.88934 21.6056C5.33727 21.4461 5.77815 21.2675 6.21076 21.0702C5.63005 20.6631 5.25005 20.2656 5.25005 20.2656C5.18495 20.1983 5.14888 20.1081 5.14963 20.0145C5.15038 19.9208 5.18787 19.8312 5.25404 19.765C5.32022 19.6987 5.40977 19.6611 5.50341 19.6602C5.59705 19.6593 5.68729 19.6953 5.75469 19.7603C5.75469 19.7603 6.30612 20.2852 6.99219 20.7034C7.86365 20.2718 8.71876 19.8079 9.55575 19.3128C11.209 18.3403 12.8557 17.2457 14.1943 16.2878C14.7717 15.8763 15.3395 15.4514 15.8972 15.0136C14.0097 14.169 12.8022 12.6629 12.8022 12.6629C12.7725 12.6266 12.7502 12.5848 12.7366 12.5399C12.7231 12.4949 12.7185 12.4478 12.7232 12.4011C12.7279 12.3544 12.7417 12.3091 12.7639 12.2677C12.7861 12.2264 12.8162 12.1898 12.8525 12.1601C12.8889 12.1304 12.9307 12.1081 12.9756 12.0946C13.0205 12.081 13.0677 12.0765 13.1144 12.0811C13.1611 12.0858 13.2064 12.0996 13.2477 12.1218C13.2891 12.144 13.3257 12.1741 13.3554 12.2105C13.3554 12.2105 14.6593 13.7672 16.5361 14.4925C16.7193 14.3365 16.8689 14.2022 16.9714 14.0997C18.5511 12.5204 18.3186 9.63873 16.34 7.66057C15.3507 6.67131 14.1361 6.11882 12.9707 6.01061C11.8129 5.90311 10.6629 6.27096 9.90039 7.0288ZM9.03825 15.1097C9.13297 15.1097 9.22379 15.1473 9.29075 15.2143L9.79575 15.7193C9.86081 15.7866 9.89681 15.8769 9.89599 15.9705C9.89518 16.0641 9.85762 16.1537 9.7914 16.2199C9.72518 16.2861 9.63561 16.3237 9.54197 16.3245C9.44833 16.3253 9.35811 16.2893 9.29075 16.2243L8.78575 15.7193C8.73582 15.6693 8.70182 15.6057 8.68805 15.5365C8.67427 15.4672 8.68134 15.3954 8.70837 15.3301C8.73539 15.2649 8.78116 15.2091 8.83988 15.1699C8.89859 15.1306 8.96763 15.1097 9.03825 15.1097Z" fill="#FE8D00"/>
</svg>
