<svg width="16" height="16" viewBox="0 0 16 16" fill="none" xmlns="http://www.w3.org/2000/svg">
<path d="M14.0007 14H3.00065C1.97265 14 1.33398 13.3613 1.33398 12.3333V2.66667C1.33398 2.29867 1.63265 2 2.00065 2C2.36865 2 2.66732 2.29867 2.66732 2.66667V12.3333C2.66732 12.6327 2.70132 12.6667 3.00065 12.6667H14.0007C14.3687 12.6667 14.6673 12.9653 14.6673 13.3333C14.6673 13.7013 14.3687 14 14.0007 14ZM9.33398 10.6667V8C9.33398 7.632 9.03532 7.33333 8.66732 7.33333C8.29932 7.33333 8.00065 7.632 8.00065 8V10.6667C8.00065 11.0347 8.29932 11.3333 8.66732 11.3333C9.03532 11.3333 9.33398 11.0347 9.33398 10.6667ZM12.0007 11.3333C11.6327 11.3333 11.334 11.0347 11.334 10.6667V6.66667C11.334 6.29867 11.6327 6 12.0007 6C12.3687 6 12.6673 6.29867 12.6673 6.66667V10.6667C12.6673 11.0347 12.3687 11.3333 12.0007 11.3333ZM5.33398 11.3333C4.96598 11.3333 4.66732 11.0347 4.66732 10.6667V9.33333C4.66732 8.96533 4.96598 8.66667 5.33398 8.66667C5.70198 8.66667 6.00065 8.96533 6.00065 9.33333V10.6667C6.00065 11.0347 5.70198 11.3333 5.33398 11.3333ZM12.616 2.41203C12.5487 2.24936 12.4186 2.11935 12.2553 2.05135C12.174 2.01735 12.0873 2 12.0007 2H10.0007C9.63265 2 9.33398 2.29867 9.33398 2.66667C9.33398 3.03467 9.63265 3.33333 10.0007 3.33333H10.3913L9.11265 4.61198C9.04865 4.67531 8.93732 4.67598 8.87199 4.61198L8.10533 3.8453C7.51933 3.25863 6.56464 3.25863 5.97931 3.8453L4.86265 4.962C4.60198 5.22266 4.60198 5.64404 4.86265 5.9047C4.99265 6.0347 5.16332 6.10002 5.33398 6.10002C5.50465 6.10002 5.67532 6.0347 5.80532 5.9047L6.92198 4.788C6.98731 4.72267 7.09799 4.72267 7.16266 4.788L7.92932 5.55469C8.51532 6.14069 9.46932 6.14069 10.0553 5.55469L11.334 4.27596V4.66667C11.334 5.03467 11.6327 5.33333 12.0007 5.33333C12.3687 5.33333 12.6673 5.03467 12.6673 4.66667V2.66667C12.6673 2.58 12.6493 2.49336 12.616 2.41203Z" fill="#83868B"/>
</svg>
