<svg width="16" height="16" viewBox="0 0 16 16" fill="none" xmlns="http://www.w3.org/2000/svg">
    <path
        d="M11.3327 2.73333H11.2432C11.1951 2.33684 11.0388 2.01047 10.7823 1.77894C10.5065 1.52993 10.1252 1.4 9.66602 1.4H6.33268C5.87352 1.4 5.49219 1.52993 5.21635 1.77894C4.95987 2.01047 4.80357 2.33684 4.75547 2.73333H4.66602C3.84214 2.73333 3.1884 2.96053 2.7408 3.40812C2.29321 3.85571 2.06602 4.50946 2.06602 5.33333V12C2.06602 12.8239 2.29321 13.4776 2.7408 13.9252C3.1884 14.3728 3.84214 14.6 4.66602 14.6H11.3327C12.1566 14.6 12.8103 14.3728 13.2579 13.9252C13.7055 13.4776 13.9327 12.8239 13.9327 12V5.33333C13.9327 4.50946 13.7055 3.85571 13.2579 3.40812C12.8103 2.96053 12.1566 2.73333 11.3327 2.73333ZM5.93268 3C5.93268 2.80481 5.96143 2.71817 6.00614 2.67346C6.05086 2.62875 6.13749 2.6 6.33268 2.6H9.66602C9.86121 2.6 9.94784 2.62875 9.99255 2.67346C10.0373 2.71817 10.066 2.80481 10.066 3V3.66667C10.066 3.86186 10.0373 3.94849 9.99255 3.99321C9.94784 4.03792 9.86121 4.06667 9.66602 4.06667H6.33268C6.13749 4.06667 6.05086 4.03792 6.00614 3.99321C5.96143 3.94849 5.93268 3.86186 5.93268 3.66667V3ZM12.7327 12C12.7327 12.5142 12.6226 12.8572 12.4062 13.0735C12.1899 13.2899 11.8469 13.4 11.3327 13.4H4.66602C4.1518 13.4 3.80882 13.2899 3.59248 13.0735C3.37613 12.8572 3.26602 12.5142 3.26602 12V5.33333C3.26602 4.81912 3.37613 4.47614 3.59248 4.25979C3.80882 4.04345 4.1518 3.93333 4.66602 3.93333H4.75547C4.80357 4.32983 4.95987 4.6562 5.21635 4.88773C5.49219 5.13674 5.87352 5.26667 6.33268 5.26667H9.66602C10.1252 5.26667 10.5065 5.13674 10.7823 4.88773C11.0388 4.6562 11.1951 4.32983 11.2432 3.93333H11.3327C11.8469 3.93333 12.1899 4.04345 12.4062 4.25979C12.6226 4.47614 12.7327 4.81912 12.7327 5.33333V12ZM9.99935 8.6C10.3306 8.6 10.5993 8.33123 10.5993 8C10.5993 7.66877 10.3306 7.4 9.99935 7.4H5.99935C5.66812 7.4 5.39935 7.66877 5.39935 8C5.39935 8.33123 5.66812 8.6 5.99935 8.6H9.99935ZM8.66602 11.2667C8.99724 11.2667 9.26602 10.9979 9.26602 10.6667C9.26602 10.3354 8.99724 10.0667 8.66602 10.0667H5.99935C5.66812 10.0667 5.39935 10.3354 5.39935 10.6667C5.39935 10.9979 5.66812 11.2667 5.99935 11.2667H8.66602Z"
        fill="#83868B" stroke="#83868B" strokeWidth="0.2" />
</svg>