<svg width="32" height="32" viewBox="0 0 32 32" fill="none" xmlns="http://www.w3.org/2000/svg">
    <path
        d="M10.5039 21.4845H19.9225V29.3333H10.5039V21.4845ZM19.2418 17.9166L18.4041 14.2255L16.595 13.6637V16.7752C16.595 17.6422 17.2977 18.3449 18.1647 18.3449C18.5819 18.3449 18.9607 18.1819 19.2418 17.9166Z"
        fill="#394CFF" />
    <path
        d="M28.0978 12.0852L23.1028 6.74205L15.0078 4.52203C15.0078 4.52203 13.6872 4.23006 11.4669 2.66663H3.44141V5.41544C4.6834 7.70316 4.77372 9.65108 4.84682 9.98424C4.95788 10.7617 5.31811 11.4821 5.87344 12.0374C6.40029 12.5643 6.75223 13.2406 6.88149 13.9744L7.49469 17.1257C7.68641 17.9694 8.51551 18.5066 9.36391 18.3369C10.1017 18.1894 10.6366 17.5468 10.6467 16.7944C10.6622 15.6392 10.5679 13.4019 10.5679 13.4019C10.5076 12.2547 11.5299 10.738 13.8979 11.1819L19.736 12.9949L20.8705 17.9936C21.2258 18.8818 22.2117 19.3391 23.1192 19.0366C24.0658 18.7211 24.5774 17.741 24.2619 16.7944L23.5839 12.6897C23.4437 11.9261 23.091 11.2175 22.5663 10.6452L25.878 14.3051C26.491 14.9182 27.4849 14.9182 28.0979 14.3051V14.3051C28.7108 13.6922 28.7108 12.6983 28.0978 12.0852Z"
        fill="#394CFF" />
</svg>