<svg width="32" height="32" viewBox="0 0 32 32" fill="none" xmlns="http://www.w3.org/2000/svg">
<path d="M7.69985 21.0822H4.67608C4.67608 21.0822 3.13672 21.0799 3.13672 23.4255C3.20995 24.9404 4.39181 25.1825 4.60261 25.1825H10.7596C10.7596 25.1825 12.3018 25.1844 12.3699 23.3338C12.3724 23.2631 12.3781 23.3318 12.3789 23.2608C12.382 22.9876 12.3789 21.5754 12.3789 21.5754C12.3826 21.3744 12.5361 21.1463 12.743 21.1463H17.564C17.6349 21.1463 17.6963 21.2037 17.7027 21.274L18.8415 23.8496C19.2663 24.9029 20.0923 25.6759 21.4723 25.1793C22.7786 24.7091 22.8462 23.674 22.6155 22.947L19.7839 14.3633C19.3582 13.3467 18.2848 12.7536 16.9412 12.7536H10.3016C6.70756 12.7536 3.69263 16.9407 7.77475 20.9658C7.80365 21.0303 7.77047 21.0822 7.69985 21.0822Z" fill="#394CFF"/>
<path d="M24.402 15.588C26.8656 15.588 28.8627 13.5909 28.8627 11.1274C28.8627 8.66384 26.8656 6.66675 24.402 6.66675C21.9385 6.66675 19.9414 8.66384 19.9414 11.1274C19.9414 13.5909 21.9385 15.588 24.402 15.588Z" fill="#394CFF"/>
</svg>
