<?xml version="1.0" encoding="UTF-8"?><svg id="Layer_1" xmlns="http://www.w3.org/2000/svg" viewBox="0 0 220.3 52.68"><defs><style>.cls-1{fill:#fff;}.cls-2{fill:#319c88;}</style></defs><g><path class="cls-2" d="m18.7,13.89c-.4,0-.8-.06-1.18-.19-1.26-.42-2.22-1.52-2.66-3.02-.4-1.37-.34-2.98.18-4.53.52-1.54,1.44-2.86,2.59-3.71,1.25-.93,2.69-1.21,3.94-.79,1.26.42,2.23,1.52,2.66,3.01.4,1.38.34,2.98-.18,4.53-.52,1.54-1.44,2.86-2.59,3.72-.87.65-1.84.98-2.77.98"/><path class="cls-2" d="m47.11,22.04c-1.99,0-3.81-1.9-4.29-4.59-.52-2.93.79-5.53,2.99-5.92,1.09-.19,2.24.22,3.16,1.14.85.85,1.44,2.05,1.68,3.39.24,1.34.09,2.68-.41,3.76-.55,1.18-1.48,1.97-2.57,2.16-.18.03-.37.05-.55.05"/><path class="cls-2" d="m20.01,27.67c-1.92,2.72-3.12,5.44-4.18,8.23-1.55,4.1-2.64,8.38-4.92,12.18-1.1,1.84-2.46,3.45-4.67,4.03-3.16.83-5.36-.62-5.97-3.81-.66-3.42-.08-6.76.68-10.06,1.66-7.26,4.13-14.19,8.84-20.1,3.41-4.29,8.08-3.93,10.7.88.67,1.23,1.27,1.74,2.77,1.58,2.89-.3,4.96,1.31,6.55,3.56,2.01,2.84,3.01,6.18,4.5,9.27,1.33,2.75,2.45,5.6,3.98,8.25.18.32.3.83.76.79.47-.04.48-.55.58-.91.66-2.47,1.34-4.93,1.93-7.41.66-2.78,1.55-5.45,3.11-7.85,1.05-1.62,2.43-2.76,4.5-2.65,2.33.13,3.54,1.64,4.28,3.64,1.71,4.6,1.38,9.27.36,13.95-.7,3.2-2.05,6.09-4.12,8.64-2.56,3.15-5.58,3.66-8.93,1.38-.93-.63-1.48-.69-2.43.04-2.94,2.26-6.27,1.69-8.77-1.42-3.5-4.36-5.44-9.52-7.26-14.72-.82-2.35-1.48-4.76-2.32-7.5M3.67,43.03c-.03.49-.03.98-.02,1.48.01.4.03.81.21,1.16.25.52.83.85,1.41.86,1.22.04,1.93-1.01,2.54-1.9.89-1.29,1.48-2.72,2.04-4.18,2.19-5.69,4.09-11.51,7.57-16.62.32-.47.29-.91.11-1.41-.89-2.51-2.95-3.05-4.92-1.22-1.6,1.5-2.65,3.42-3.67,5.32-1.51,2.82-2.73,5.79-3.66,8.84-.75,2.47-1.48,5.06-1.62,7.65m47.26-7.79c.06-1.85-.22-3.66-.7-5.43-.15-.53-.35-1.13-.96-1.26-.65-.15-.98.41-1.32.85-.85,1.11-1.42,2.39-1.83,3.71-1.27,4.08-2.49,8.18-3.77,12.25-.57,1.82-.05,2.67,1.87,2.84,2.12.19,3.62-.78,4.67-3.26,1.31-3.09,2.02-6.33,2.04-9.71m-15.96,12.55c.64.01,1.18-.23,1.58-.74.47-.6-.03-1.05-.33-1.48-2.22-3.15-3.82-6.62-5.37-10.13-1.19-2.69-2.42-5.36-3.67-8.02-.47-1-1.07-1.96-2.06-2.56-.52-.31-1.08-.67-1.69-.2-.59.46-.23,1.02-.07,1.53,1.26,4.08,2.72,8.1,4.35,12.05.97,2.35,1.93,4.73,3.41,6.84.95,1.35,2.12,2.42,3.85,2.72"/><path class="cls-2" d="m72.1,47.83c-.29,1.87-.94,2.85-2.03,2.85-1.47,0-2.1-1.28-2.1-5.09,0-3.48.73-4.95,2.12-4.95,1.01,0,1.6.86,1.89,2.6l2.1-.19c-.34-2.79-1.39-4.43-4.03-4.43-3.25,0-4.39,3.02-4.39,6.98,0,4.42,1.07,7.09,4.36,7.09,2.5,0,3.78-1.58,4.2-4.64l-2.12-.21Zm12.27,4.68v-13.72h-2.23v5.6h-3.9v-5.6h-2.27v13.72h2.27v-6.08h3.9v6.08h2.23Zm4.7-13.72h-2.27v13.72h2.27v-13.72Zm9.27,13.72v-2.06h-4.59v-11.66h-2.27v13.72h6.86Zm4.47,0c4.03,0,5.56-2.5,5.56-7.01,0-4.8-1.74-6.71-5.52-6.71h-3.15v13.72h3.11Zm-.8-2.1v-9.52h1.03c2.01,0,3.02,1.15,3.02,4.63s-.92,4.89-3.08,4.89h-.98Zm16.67,2.1l-2.39-6.57c1.18-.53,1.93-1.6,1.93-3.34,0-2.68-1.41-3.8-4.36-3.8h-3.63v13.72h2.27v-5.66h1.74l1.97,5.66h2.46Zm-6.17-7.59v-4.17h1.28c1.03,0,2.12.12,2.12,2.05,0,1.76-1.07,2.12-2.1,2.12h-1.3Zm15.04,7.59v-2.06h-4.99v-4.03h3.54v-1.99h-3.54v-3.58h4.74v-2.06h-7.01v13.72h7.26Zm10.13,0v-13.72h-2.06v8.33h-.04l-3.77-8.33h-2.61v13.72h2.02v-9.48h.04l4.38,9.48h2.04Zm3.34-8.39l1.26-2.87v-2.46h-2.33v2.58h.84l-1.07,2.75h1.3Zm10.49-2.08c-.38-2.08-1.45-3.42-3.84-3.42s-3.67,1.34-3.67,3.46c0,4.4,5.56,4.03,5.56,7.05,0,1.07-.71,1.64-1.74,1.64-1.22,0-1.74-.71-2.01-2.1l-2.1.36c.44,2.46,1.58,3.65,4.03,3.65s4.01-1.34,4.01-3.73c0-4.49-5.62-4.15-5.62-7.02,0-.88.59-1.41,1.55-1.41,1.07,0,1.57.73,1.86,1.89l1.97-.38Zm14.01,10.47v-13.72h-2.23v5.6h-3.9v-5.6h-2.27v13.72h2.27v-6.08h3.9v6.08h2.23Zm9.69,0v-2.06h-4.99v-4.03h3.54v-1.99h-3.54v-3.58h4.74v-2.06h-7.01v13.72h7.26Zm10.04,0l-3.19-13.72h-3.04l-3.12,13.72h2.29l.71-3.52h3.29l.72,3.52h2.33Zm-4.74-11.5h.06l1.22,5.98h-2.48l1.2-5.98Zm13.05,11.5v-2.06h-4.59v-11.66h-2.27v13.72h6.86Zm4.57,0v-11.66h2.83v-2.06h-7.91v2.06h2.83v11.66h2.25Zm12.73,0v-13.72h-2.24v5.6h-3.9v-5.6h-2.27v13.72h2.27v-6.08h3.9v6.08h2.24Z"/><path class="cls-2" d="m66.35,13.87c0-1.2.95-2.16,2.16-2.16h.45c1.03,0,1.65.5,2.24,1.26l8.31,10.92v-10.11c0-1.18.95-2.13,2.13-2.13s2.13.95,2.13,2.13v15.59c0,1.2-.95,2.16-2.16,2.16h-.14c-1.04,0-1.65-.51-2.24-1.26l-8.62-11.31v10.5c0,1.18-.95,2.12-2.13,2.12s-2.13-.95-2.13-2.12v-15.59Z"/><path class="cls-2" d="m88.46,29.27v-15.28c0-1.2.95-2.16,2.16-2.16h10.86c1.06,0,1.93.87,1.93,1.93s-.87,1.9-1.93,1.9h-8.73v3.98h7.47c1.06,0,1.93.87,1.93,1.93s-.87,1.9-1.93,1.9h-7.47v4.11h8.87c1.06,0,1.93.87,1.93,1.93s-.87,1.9-1.93,1.9h-11c-1.2,0-2.16-.95-2.16-2.15"/><path class="cls-2" d="m107.21,13.87c0-1.2.95-2.16,2.15-2.16h.48c.93,0,1.57.48,1.96,1.12l5.21,8.48,5.24-8.51c.45-.73,1.06-1.09,1.93-1.09h.48c1.2,0,2.16.95,2.16,2.16v15.56c0,1.2-.95,2.15-2.16,2.15s-2.13-.98-2.13-2.15v-9.77l-3.78,5.82c-.45.67-1.01,1.09-1.79,1.09s-1.35-.42-1.79-1.09l-3.73-5.74v9.74c0,1.18-.95,2.1-2.13,2.1s-2.1-.92-2.1-2.1v-15.62Z"/><path class="cls-2" d="m130.64,21.68v-.05c0-5.57,4.39-10.14,10.44-10.14s10.38,4.51,10.38,10.08v.06c0,5.57-4.39,10.13-10.44,10.13s-10.38-4.5-10.38-10.08m16.32,0v-.05c0-3.36-2.46-6.16-5.94-6.16s-5.88,2.74-5.88,6.1v.06c0,3.36,2.46,6.16,5.93,6.16s5.88-2.74,5.88-6.1"/><path class="cls-2" d="m154.99,23.03v-9.21c0-1.2.95-2.16,2.15-2.16s2.15.95,2.15,2.16v9.1c0,3.19,1.6,4.84,4.23,4.84s4.23-1.6,4.23-4.7v-9.24c0-1.2.95-2.16,2.16-2.16s2.16.95,2.16,2.16v9.07c0,5.94-3.33,8.85-8.59,8.85s-8.48-2.94-8.48-8.71"/><path class="cls-2" d="m176.46,13.98c0-1.2.95-2.16,2.15-2.16h6.8c2.49,0,4.42.7,5.71,1.99,1.09,1.09,1.68,2.63,1.68,4.48v.06c0,3.08-1.54,4.98-3.92,5.96l3,3.64c.42.53.7.98.7,1.65,0,1.2-1.01,1.98-2.04,1.98-.98,0-1.62-.47-2.13-1.12l-4.2-5.32h-3.44v4.28c0,1.2-.95,2.15-2.15,2.15s-2.15-.95-2.15-2.15v-15.45Zm8.68,7.36c2.1,0,3.3-1.12,3.3-2.77v-.06c0-1.85-1.29-2.8-3.39-2.8h-4.29v5.63h4.37Z"/><path class="cls-2" d="m196.3,29.35c-.48-.34-.81-.95-.81-1.62,0-1.12.89-1.99,2.01-1.99.56,0,.95.2,1.23.39,1.48,1.09,3.11,1.76,5.01,1.76,1.76,0,2.83-.7,2.83-1.85v-.06c0-1.09-.67-1.65-3.95-2.49-3.95-1.01-6.49-2.1-6.49-5.99v-.06c0-3.55,2.86-5.91,6.86-5.91,2.38,0,4.45.62,6.21,1.74.48.28.95.87.95,1.71,0,1.12-.9,1.99-2.02,1.99-.42,0-.76-.11-1.09-.31-1.43-.84-2.77-1.32-4.11-1.32-1.65,0-2.52.76-2.52,1.71v.06c0,1.29.84,1.71,4.23,2.57,3.97,1.04,6.21,2.46,6.21,5.88v.05c0,3.89-2.97,6.08-7.19,6.08-2.57,0-5.18-.78-7.36-2.35"/><path class="cls-2" d="m211.76,50.69h0c0-1.02.83-1.86,1.88-1.86s1.88.84,1.88,1.84h0c0,1.02-.83,1.86-1.88,1.86s-1.88-.84-1.88-1.84Zm3.54-.01h0c0-.91-.71-1.65-1.66-1.65s-1.66.75-1.66,1.65h0c0,.91.71,1.65,1.66,1.65s1.66-.75,1.66-1.65Zm-2.44-1h.92c.45,0,.79.2.79.64,0,.31-.17.51-.43.59l.5.69h-.57l-.42-.6h-.3v.6h-.47v-1.92Zm.88.93c.22,0,.33-.11.33-.27,0-.17-.13-.26-.33-.26h-.41v.53h.41Z"/></g><rect class="cls-1" x="219.4" width=".9" height="52.53"/></svg>