<svg width="16" height="16" viewBox="0 0 16 16" fill="none" xmlns="http://www.w3.org/2000/svg">
    <path fillRule="evenodd" clipRule="evenodd"
        d="M12 14H9.8667C9.75603 14 9.66667 13.9106 9.66667 13.8V11C9.66667 10.0793 8.92067 9.33335 8 9.33335C7.07933 9.33335 6.33333 10.0793 6.33333 11V13.8C6.33333 13.9106 6.24397 14 6.1333 14H4C2.66667 14 2 13.3333 2 12V7.76735C2 6.43535 2.3487 6.23072 2.95337 5.72405L6.92936 2.38999C7.5487 1.87065 8.45204 1.87065 9.07137 2.38999L13.0474 5.72405C13.6514 6.23072 14.0007 6.43535 14.0007 7.76735V12C14 13.3333 13.3333 14 12 14Z"
        fill="#394CFF" />
</svg>