<svg width="16" height="16" viewBox="0 0 16 16" fill="none" xmlns="http://www.w3.org/2000/svg">
<path d="M14.0239 2.78793C14.0233 2.78793 14.0233 2.78795 14.0226 2.78728C12.888 2.24928 11.63 2.0606 10.2834 2.22527C9.31403 2.3446 8.494 2.89857 8 3.67457C7.50533 2.89924 6.68597 2.3446 5.71663 2.22527C4.36797 2.0606 3.11138 2.24928 1.97738 2.78728C1.97738 2.78728 1.97739 2.78728 1.97673 2.78728C1.68739 2.92461 1.5 3.22256 1.5 3.54656V12.2166C1.5 12.4792 1.61995 12.7199 1.82861 12.8779C2.03661 13.0359 2.31407 13.0859 2.56673 13.0152C4.5054 12.4646 6.14467 12.6979 7.722 13.7493C7.72867 13.7539 7.73666 13.7553 7.74333 13.7593C7.75066 13.7633 7.756 13.7699 7.764 13.7739C7.77133 13.7779 7.77994 13.776 7.78727 13.78C7.85461 13.812 7.92602 13.8333 7.99935 13.8333C8.07268 13.8333 8.14393 13.812 8.21126 13.78C8.2186 13.7766 8.22737 13.7779 8.2347 13.7739C8.24203 13.7699 8.24805 13.764 8.25472 13.7593C8.26139 13.7553 8.26937 13.7539 8.27604 13.7493C9.85337 12.6973 11.492 12.4639 13.4313 13.0146C13.6846 13.0866 13.9606 13.0359 14.1693 12.8779C14.3779 12.7206 14.498 12.4792 14.498 12.2166V3.54656C14.5 3.22389 14.3133 2.92593 14.0239 2.78793ZM4.48861 11.7286C3.84794 11.7286 3.186 11.8186 2.5 11.9966V3.64657C3.44667 3.21791 4.46206 3.07729 5.59473 3.21729C6.68139 3.35063 7.5 4.27725 7.5 5.37192V12.4592C6.54333 11.9719 5.54461 11.7286 4.48861 11.7286ZM13.5 11.9972C11.6813 11.5246 10.0373 11.676 8.5 12.4606V5.3733C8.5 4.27797 9.31927 3.35193 10.4053 3.2186C10.6866 3.18393 10.9607 3.16659 11.228 3.16659C12.038 3.16659 12.788 3.32596 13.4993 3.64796V11.9972H13.5ZM10 5.49993H12C12.276 5.49993 12.5 5.72393 12.5 5.99993C12.5 6.27593 12.276 6.49993 12 6.49993H10C9.724 6.49993 9.5 6.27593 9.5 5.99993C9.5 5.72393 9.724 5.49993 10 5.49993ZM11.8333 7.99993C11.8333 8.27593 11.6093 8.49993 11.3333 8.49993H10C9.724 8.49993 9.5 8.27593 9.5 7.99993C9.5 7.72393 9.724 7.49993 10 7.49993H11.3333C11.6093 7.49993 11.8333 7.72393 11.8333 7.99993Z" fill="#83868B"/>
</svg>
