<svg width="16" height="16" viewBox="0 0 16 16" fill="none" xmlns="http://www.w3.org/2000/svg">
    <path
        d="M10.16 1.67833L10.16 1.67835L8.21167 4.74324C8.20527 4.74281 8.19882 4.74238 8.19232 4.74194C8.13051 4.73778 8.06443 4.73333 7.99977 4.73333C7.93511 4.73333 7.86903 4.73778 7.80722 4.74194C7.80072 4.74238 7.79427 4.74281 7.78787 4.74324L5.83953 1.67835L5.83952 1.67833C5.72922 1.50488 5.53872 1.4 5.3331 1.4H1.99977C1.78123 1.4 1.5797 1.51925 1.47416 1.71115C1.36849 1.90328 1.37655 2.13687 1.4932 2.32143L1.4932 2.32143L1.49333 2.32163L4.18036 6.55085C3.48526 7.40113 3.06644 8.48507 3.06644 9.66667C3.06644 12.3872 5.27921 14.6 7.99977 14.6C10.7203 14.6 12.9331 12.3872 12.9331 9.66667C12.9331 8.48507 12.5143 7.40113 11.8192 6.55085L14.5062 2.32163L14.5063 2.32143C14.623 2.13687 14.6311 1.90328 14.5254 1.71115C14.4198 1.51925 14.2183 1.4 13.9998 1.4H10.6664C10.4608 1.4 10.2703 1.50488 10.16 1.67833ZM3.09238 2.6H5.00352L6.50871 4.96784C5.98442 5.13458 5.49861 5.38672 5.06649 5.70846L3.09238 2.6ZM7.99977 13.4C5.941 13.4 4.26644 11.7254 4.26644 9.66667C4.26644 7.6079 5.941 5.93333 7.99977 5.93333C10.0585 5.93333 11.7331 7.6079 11.7331 9.66667C11.7331 11.7254 10.0585 13.4 7.99977 13.4ZM12.9078 2.6L10.933 5.70854C10.501 5.3873 10.0152 5.13468 9.49083 4.96785L10.996 2.6H12.9078ZM10.0905 8.98005C10.3249 8.74567 10.3249 8.36568 10.0905 8.1313C9.8562 7.897 9.47683 7.89682 9.24302 8.13062L7.44505 9.92862L6.75782 9.24195C6.75781 9.24194 6.7578 9.24193 6.75779 9.24192C6.5234 9.00757 6.14342 9.00758 5.90904 9.24195C5.67465 9.47634 5.67465 9.85632 5.90904 10.0907L7.02012 11.2018C7.02019 11.2019 7.02026 11.2019 7.02033 11.202C7.13256 11.3149 7.28542 11.378 7.44443 11.378C7.60375 11.378 7.75583 11.3147 7.86849 11.202L10.0905 8.98005Z"
        fill="#83868B" stroke="#83868B" strokeWidth="0.2" />
</svg>