<svg width="16" height="16" viewBox="0 0 16 16" fill="none" xmlns="http://www.w3.org/2000/svg">
    <path
        d="M4.66602 14.6H11.3327C12.1566 14.6 12.8103 14.3728 13.2579 13.9252C13.7055 13.4776 13.9327 12.8239 13.9327 12V4C13.9327 3.17613 13.7055 2.52238 13.2579 2.07479C12.8103 1.6272 12.1566 1.4 11.3327 1.4H4.66602C3.84214 1.4 3.1884 1.6272 2.7408 2.07479C2.29321 2.52238 2.06602 3.17613 2.06602 4V12C2.06602 12.8239 2.29321 13.4776 2.7408 13.9252C3.1884 14.3728 3.84214 14.6 4.66602 14.6ZM3.26602 4C3.26602 3.48578 3.37613 3.14281 3.59248 2.92646C3.80882 2.71012 4.1518 2.6 4.66602 2.6H11.3327C11.8469 2.6 12.1899 2.71012 12.4062 2.92646C12.6226 3.14281 12.7327 3.48578 12.7327 4V12C12.7327 12.5142 12.6226 12.8572 12.4062 13.0735C12.1899 13.2899 11.8469 13.4 11.3327 13.4H4.66602C4.1518 13.4 3.80882 13.2899 3.59248 13.0735C3.37613 12.8572 3.26602 12.5142 3.26602 12V4ZM11.266 8C11.266 7.66877 10.9972 7.4 10.666 7.4H5.33268C5.00145 7.4 4.73268 7.66877 4.73268 8C4.73268 8.33123 5.00145 8.6 5.33268 8.6H10.666C10.9972 8.6 11.266 8.33123 11.266 8ZM9.26602 10.6667C9.26602 10.3354 8.99724 10.0667 8.66602 10.0667H5.33268C5.00145 10.0667 4.73268 10.3354 4.73268 10.6667C4.73268 10.9979 5.00145 11.2667 5.33268 11.2667H8.66602C8.99724 11.2667 9.26602 10.9979 9.26602 10.6667ZM11.266 5.33333C11.266 5.0021 10.9972 4.73333 10.666 4.73333H5.33268C5.00145 4.73333 4.73268 5.0021 4.73268 5.33333C4.73268 5.66456 5.00145 5.93333 5.33268 5.93333H10.666C10.9972 5.93333 11.266 5.66456 11.266 5.33333Z"
        fill="#83868B" stroke="#83868B" strokeWidth="0.2" />
</svg>