<svg width="21" height="21" viewBox="0 0 21 21" fill="none" xmlns="http://www.w3.org/2000/svg">
<path d="M5.86019 12.2386L5.28005 14.4043L3.15964 14.4492C2.52594 13.2738 2.1665 11.9291 2.1665 10.5C2.1665 9.11816 2.50257 7.81503 3.09827 6.6676H3.09873L4.98649 7.0137L5.81344 8.89013C5.64036 9.39472 5.54603 9.93638 5.54603 10.5C5.54609 11.1117 5.6569 11.6978 5.86019 12.2386Z" fill="#FBBB00"/>
<path d="M18.6876 8.94324C18.7833 9.44734 18.8332 9.96794 18.8332 10.5C18.8332 11.0966 18.7705 11.6786 18.651 12.2399C18.2453 14.1502 17.1854 15.8182 15.717 16.9986L15.7165 16.9982L13.3388 16.8769L13.0022 14.7761C13.9766 14.2047 14.7381 13.3105 15.1392 12.2399H10.6831V8.94324H18.6876Z" fill="#518EF8"/>
<path d="M15.7164 16.9981L15.7169 16.9986C14.2888 18.1465 12.4747 18.8333 10.4999 18.8333C7.32633 18.8333 4.56719 17.0595 3.15967 14.4491L5.86022 12.2385C6.56396 14.1167 8.37578 15.4537 10.4999 15.4537C11.4129 15.4537 12.2682 15.2069 13.0021 14.7761L15.7164 16.9981Z" fill="#28B446"/>
<path d="M15.8188 4.08512L13.1192 6.29527C12.3596 5.82047 11.4617 5.54618 10.4997 5.54618C8.32754 5.54618 6.48184 6.94452 5.81335 8.89006L3.0986 6.66754H3.09814C4.48506 3.99355 7.279 2.16663 10.4997 2.16663C12.5217 2.16663 14.3756 2.88687 15.8188 4.08512Z" fill="#F14336"/>
</svg>
