<svg width="91" height="29" viewBox="0 0 91 29" fill="none" xmlns="http://www.w3.org/2000/svg">
    <g clipPath="url(#clip0_19031_6645)">
        <path
            d="M30.3329 9.73483C29.6035 8.73968 28.4462 8.22732 27.2694 8.22732C24.5365 8.22732 22.5914 10.6709 22.5914 13.3903C22.5914 16.2674 24.517 18.5533 27.2694 18.5533C28.7574 18.5533 29.9536 17.9424 30.8192 16.8192L31.9085 17.7355C30.8192 19.2233 29.2242 19.913 27.2694 19.913C23.7487 19.913 21.0353 17.1542 21.0353 13.3903C21.0353 9.74468 23.632 6.8676 27.2694 6.8676C28.9325 6.8676 30.5566 7.44893 31.5973 8.8185L30.3329 9.73483ZM33.1728 6.32568H34.5247V12.5232H34.5636C34.9234 11.8729 35.896 11.1734 37.1603 11.1734C39.2902 11.1734 40.2433 12.5429 40.2433 14.5234V19.5977H38.8915V14.6712C38.8915 13.3016 38.2982 12.4444 37.0339 12.4444C35.2833 12.4444 34.5247 13.7253 34.5247 15.6072V19.6076H33.1728V6.32568ZM43.0832 8.05982C43.5792 8.05982 43.9682 8.47364 43.9682 8.95644C43.9682 9.47865 43.5986 9.85307 43.0832 9.85307C42.5677 9.85307 42.1982 9.47865 42.1982 8.95644C42.1884 8.46379 42.5774 8.05982 43.0832 8.05982ZM42.4024 11.3803H43.7542V19.5879H42.4024V11.3803ZM46.0398 6.32568H47.3916V19.5879H46.0398V6.32568ZM56.2905 18.1395H56.2516C55.7459 19.0656 54.5885 19.8046 53.1297 19.8046C50.8636 19.8046 49.0741 17.9424 49.0741 15.489C49.0741 12.9962 50.7858 11.1734 53.3339 11.1734C54.5107 11.1734 55.5028 11.6956 56.2419 12.5725H56.2808V6.32568H57.6327V19.5879H56.2808V18.1395H56.2905ZM53.4215 12.4346C51.6709 12.4346 50.5427 13.7647 50.5427 15.489C50.5427 17.2034 51.6709 18.5434 53.4215 18.5434C55.1721 18.5434 56.3003 17.2133 56.3003 15.489C56.2905 13.7647 55.1721 12.4346 53.4215 12.4346ZM59.6167 13.3312C59.6167 12.5725 59.5486 11.9321 59.5486 11.3803H60.8324C60.8324 11.8237 60.8615 12.2769 60.8615 12.7302H60.9005C61.2603 11.9222 62.2718 11.1635 63.6042 11.1635C63.7792 11.1635 63.964 11.1832 64.1585 11.2522L64.071 12.6415C63.8473 12.5725 63.5847 12.5331 63.3416 12.5331C61.698 12.5331 60.9685 13.7056 60.9685 15.5875V19.5879H59.6167V13.3312ZM72.1238 18.1001C71.1707 19.3415 70.0328 19.8046 68.5253 19.8046C65.9772 19.8046 64.4211 17.8734 64.4211 15.489C64.4211 12.9469 66.1912 11.1734 68.5739 11.1734C70.8595 11.1734 72.4155 12.7499 72.4155 15.4693V15.9028H65.8702C65.9772 17.3217 67.047 18.5336 68.5156 18.5336C69.6729 18.5336 70.451 18.1099 71.0929 17.2921L72.1238 18.1001ZM70.9664 14.75C70.9178 13.3607 70.0133 12.4346 68.5253 12.4346C67.0373 12.4346 66.0453 13.3607 65.88 14.75H70.9664ZM73.9911 13.3312C73.9911 12.5725 73.923 11.9321 73.923 11.3803H75.2068C75.2068 11.8237 75.2457 12.2769 75.2457 12.7302H75.2846C75.6444 11.9222 76.6559 11.1635 77.9883 11.1635C80.1182 11.1635 81.0713 12.5331 81.0713 14.5136V19.5879H79.7195V14.6613C79.7195 13.2918 79.1262 12.4346 77.8619 12.4346C76.1113 12.4346 75.3527 13.7155 75.3527 15.5974V19.5977H74.0008V13.3312H73.9911ZM85.6715 17.4399C86.2064 18.1099 86.7997 18.5434 87.7528 18.5434C88.5989 18.5434 89.5326 18.1789 89.5326 17.2823C89.5326 16.4053 88.667 16.1787 87.8014 15.9817C86.2648 15.6269 84.9421 15.3018 84.9421 13.5972C84.9421 12.001 86.469 11.1734 87.9765 11.1734C89.1241 11.1734 90.1745 11.6069 90.7288 12.6612L89.6007 13.41C89.2505 12.8287 88.6864 12.4247 87.8889 12.4247C87.1401 12.4247 86.294 12.7893 86.294 13.5677C86.294 14.2475 87.2665 14.553 88.3363 14.7599C89.7757 15.0358 90.9817 15.5678 90.9817 17.2133C90.9817 19.0755 89.3575 19.7948 87.7431 19.7948C86.3718 19.7948 85.3895 19.4302 84.592 18.2676L85.6715 17.4399ZM22.0273 21.8639H22.7178V24.002H25.3437V21.8639H26.0342V27.0072H25.3437V24.6523H22.7178V27.0072H22.0273V21.8639ZM28.8157 23.4798C29.8272 23.4798 30.6247 24.2878 30.6247 25.2829C30.6247 26.2879 29.8272 27.086 28.8157 27.086C27.8043 27.086 27.0165 26.2781 27.0165 25.2829C27.0068 24.2779 27.8043 23.4798 28.8157 23.4798ZM28.8157 26.485C29.5063 26.485 29.9342 25.9825 29.9342 25.2829C29.9342 24.5833 29.5063 24.0907 28.8157 24.0907C28.1252 24.0907 27.6973 24.5932 27.6973 25.2829C27.6973 25.9825 28.1252 26.485 28.8157 26.485ZM33.2312 24.4257C33.0853 24.2385 32.8616 24.0808 32.5406 24.0808C32.2392 24.0808 31.9766 24.2188 31.9766 24.4651C31.9766 24.8789 32.5601 24.9381 32.8421 24.9972C33.3965 25.1351 33.8341 25.3519 33.8341 26.0022C33.8341 26.7806 33.1339 27.086 32.4628 27.086C31.9085 27.086 31.4903 26.9382 31.1499 26.4751L31.6362 26.0712C31.8404 26.2781 32.0835 26.4751 32.4628 26.4751C32.7935 26.4751 33.1534 26.3372 33.1534 26.0416C33.1534 25.6475 32.6185 25.5785 32.3364 25.5095C31.7821 25.3716 31.2958 25.1942 31.2958 24.5341C31.2958 23.8148 31.9474 23.47 32.5795 23.47C33.0269 23.47 33.4938 23.6276 33.7369 24.0316L33.2312 24.4257ZM34.6025 23.5685H35.2444V24.0611H35.2541C35.5069 23.6867 35.9738 23.4798 36.4406 23.4798C37.491 23.4798 38.162 24.268 38.162 25.2829C38.162 26.3175 37.4812 27.086 36.4406 27.086C35.9543 27.086 35.4875 26.8594 35.2541 26.5047H35.2444V29.0468H34.6025V23.5685ZM35.2444 25.2829C35.2444 25.9825 35.6723 26.485 36.3628 26.485C37.0533 26.485 37.4812 25.9825 37.4812 25.2829C37.4812 24.5833 37.0533 24.0907 36.3628 24.0907C35.682 24.0907 35.2444 24.5833 35.2444 25.2829ZM39.3486 22.1989C39.582 22.1989 39.7765 22.396 39.7765 22.6324C39.7765 22.8689 39.582 23.066 39.3486 23.066C39.1151 23.066 38.9206 22.8689 38.9206 22.6324C38.9304 22.3861 39.1151 22.1989 39.3486 22.1989ZM39.0276 23.5685H39.6695V27.0072H39.0276V23.5685ZM42.5191 24.1301H41.5952V25.6869C41.5952 26.0712 41.5952 26.4751 42.0814 26.4751C42.2273 26.4751 42.4121 26.4554 42.5385 26.3766V26.9678C42.3829 27.0565 42.0912 27.086 41.955 27.086C40.963 27.086 40.9436 26.4653 40.9436 25.9135V24.1203H40.1947V23.5586H40.9436V22.593H41.5854V23.5586H42.5094V24.1301H42.5191ZM43.3652 23.9823C43.7251 23.6375 44.2405 23.47 44.7074 23.47C45.7091 23.47 46.1273 24.0217 46.1273 24.6129V26.3667C46.1273 26.6032 46.137 26.8101 46.1565 26.9875H45.5827C45.5729 26.8101 45.5632 26.6426 45.5632 26.4653H45.5535C45.2714 26.9087 44.8824 27.0762 44.367 27.0762C43.7348 27.0762 43.1902 26.7116 43.1902 26.0416C43.1902 25.1548 44.0266 24.8494 45.0575 24.8494H45.534V24.7016C45.534 24.3469 45.2714 23.9725 44.7268 23.9725C44.2308 23.9725 43.9974 24.1794 43.764 24.3666L43.3652 23.9823ZM45.1839 25.3519C44.5712 25.3519 43.8321 25.4603 43.8321 26.012C43.8321 26.4062 44.1141 26.5737 44.5615 26.5737C45.2812 26.5737 45.5243 26.0416 45.5243 25.5686V25.3519H45.1839ZM47.1096 21.5191H47.7515V27.0072H47.1096V21.5191ZM52.41 23.4798C53.4215 23.4798 54.2092 24.2878 54.2092 25.2829C54.2092 26.2879 53.4118 27.086 52.41 27.086C51.3986 27.086 50.6108 26.2781 50.6108 25.2829C50.6108 24.2779 51.3986 23.4798 52.41 23.4798ZM52.41 26.485C53.1005 26.485 53.5285 25.9825 53.5285 25.2829C53.5285 24.5833 53.1005 24.0907 52.41 24.0907C51.7195 24.0907 51.2916 24.5932 51.2916 25.2829C51.2916 25.9825 51.7195 26.485 52.41 26.485ZM55.2791 24.1301H54.5496V23.5685H55.2791V22.7999C55.2791 21.8836 55.5903 21.4402 56.4364 21.4402C56.5823 21.4402 56.7379 21.4501 56.913 21.4895L56.8449 22.0708C56.7185 22.0216 56.6115 22.0019 56.4753 22.0019C55.9988 22.0019 55.921 22.2974 55.921 22.7802V23.5685H56.6893V24.1301H55.9112V27.0072H55.2693L55.2791 24.1301ZM58.9164 21.8639H59.6361L60.7546 25.9726H60.7643L61.9605 21.8639H62.7483L63.9446 25.9726H63.964L65.0727 21.8639H65.7924L64.3141 27.0072H63.5944L62.3593 22.8098H62.3496L61.1241 27.0072H60.4044L58.9164 21.8639ZM66.658 22.1989C66.8914 22.1989 67.0859 22.396 67.0859 22.6324C67.0859 22.8689 66.8914 23.066 66.658 23.066C66.4246 23.066 66.2301 22.8689 66.2301 22.6324C66.2301 22.3861 66.4246 22.1989 66.658 22.1989ZM66.3371 23.5685H66.9789V27.0072H66.3371V23.5685ZM69.8091 24.4257C69.6632 24.2385 69.4395 24.0808 69.1186 24.0808C68.8171 24.0808 68.5545 24.2188 68.5545 24.4651C68.5545 24.8789 69.138 24.9381 69.4201 24.9972C69.9744 25.1351 70.4121 25.3519 70.4121 26.0022C70.4121 26.7806 69.7118 27.086 69.0408 27.086C68.4864 27.086 68.0682 26.9382 67.7278 26.4751L68.2141 26.0712C68.4183 26.2781 68.6615 26.4751 69.0408 26.4751C69.3714 26.4751 69.7313 26.3372 69.7313 26.0416C69.7313 25.6475 69.1964 25.5785 68.9143 25.5095C68.36 25.3716 67.8737 25.1942 67.8737 24.5341C67.8737 23.8148 68.5253 23.47 69.1575 23.47C69.6049 23.47 70.0717 23.6276 70.3148 24.0316L69.8091 24.4257ZM73.6118 24.475C73.3784 24.2188 73.1255 24.0907 72.7657 24.0907C72.0654 24.0907 71.7056 24.6622 71.7056 25.3125C71.7056 25.9628 72.1335 26.485 72.8046 26.485C73.1644 26.485 73.4173 26.3569 73.6312 26.1007L74.0883 26.5638C73.748 26.9382 73.2908 27.0959 72.8046 27.0959C71.7542 27.0959 71.0248 26.3667 71.0248 25.3026C71.0248 24.2483 71.7445 23.4897 72.8046 23.4897C73.3006 23.4897 73.7674 23.667 74.1078 24.0316L73.6118 24.475ZM76.2766 23.4798C77.2881 23.4798 78.0856 24.2878 78.0856 25.2829C78.0856 26.2879 77.2881 27.086 76.2766 27.086C75.2651 27.086 74.4676 26.2781 74.4676 25.2829C74.4676 24.2779 75.2651 23.4798 76.2766 23.4798ZM76.2766 26.485C76.9671 26.485 77.395 25.9825 77.395 25.2829C77.395 24.5833 76.9671 24.0907 76.2766 24.0907C75.5861 24.0907 75.1582 24.5932 75.1582 25.2829C75.1582 25.9825 75.5861 26.485 76.2766 26.485ZM78.8831 23.5685H79.5249V24.1005H79.5347C79.7 23.736 80.1279 23.4897 80.6531 23.4897C81.3145 23.4897 81.8883 23.8838 81.8883 24.8001V27.017H81.2464V24.9873C81.2464 24.337 80.8768 24.1005 80.4683 24.1005C79.9334 24.1005 79.5249 24.4454 79.5249 25.2435V27.017H78.8831V23.5685ZM84.6698 24.4257C84.5239 24.2385 84.3002 24.0808 83.9793 24.0808C83.6778 24.0808 83.4152 24.2188 83.4152 24.4651C83.4152 24.8789 83.9987 24.9381 84.2808 24.9972C84.8351 25.1351 85.2728 25.3519 85.2728 26.0022C85.2728 26.7806 84.5725 27.086 83.9015 27.086C83.3471 27.086 82.9289 26.9382 82.5885 26.4751L83.0748 26.0712C83.279 26.2781 83.5222 26.4751 83.9015 26.4751C84.2321 26.4751 84.592 26.3372 84.592 26.0416C84.592 25.6475 84.0571 25.5785 83.775 25.5095C83.2207 25.3716 82.7344 25.1942 82.7344 24.5341C82.7344 23.8148 83.386 23.47 84.0279 23.47C84.4753 23.47 84.9421 23.6276 85.1852 24.0316L84.6698 24.4257ZM86.4204 22.1989C86.6538 22.1989 86.8483 22.396 86.8483 22.6324C86.8483 22.8689 86.6538 23.066 86.4204 23.066C86.187 23.066 85.9925 22.8689 85.9925 22.6324C85.9925 22.3861 86.187 22.1989 86.4204 22.1989ZM86.0994 23.5685H86.7413V27.0072H86.0994V23.5685ZM87.7625 23.5685H88.4044V24.1005H88.4141C88.5795 23.736 89.0074 23.4897 89.5326 23.4897C90.1939 23.4897 90.7677 23.8838 90.7677 24.8001V27.017H90.1258V24.9873C90.1258 24.337 89.7563 24.1005 89.3478 24.1005C88.8129 24.1005 88.4044 24.4454 88.4044 25.2435V27.017H87.7625V23.5685ZM83.5513 11.065C83.386 11.1832 83.2207 11.2522 83.0164 11.2522C82.5982 11.2522 82.3356 10.9369 82.3356 10.4837C82.3356 10.0206 82.6858 9.69542 83.1818 9.69542C83.7556 9.69542 84.1349 10.129 84.1349 10.8679C84.1349 11.8335 83.5902 12.5134 82.501 12.9469L82.3454 12.6316C83.1429 12.2868 83.5319 11.7744 83.5513 11.065Z"
            fill="black" />
        <path
            d="M19.5959 16.1491C19.5959 15.8239 19.45 15.6663 19.3625 15.3806C19.343 15.3017 19.2458 15.1342 19.2166 15.0357C19.1777 14.9175 19.1874 14.7992 19.168 14.6514C19.1291 14.4938 19.1096 14.3361 19.0707 14.1686C18.954 13.7647 18.7692 13.3607 18.5747 12.9961C18.4775 12.7202 18.4386 12.4739 18.3413 12.1586C18.2246 11.7941 18.1273 11.5871 18.069 11.4591C18.0593 11.4394 18.0593 11.4295 18.0495 11.4098C18.0009 11.3113 18.5164 10.9171 18.351 10.7299C18.244 10.5329 18.1273 10.4245 17.962 10.2077C17.6994 9.85301 17.5924 9.66581 17.4271 9.45889C17.359 9.03521 17.1937 8.80859 17.0381 8.69036C17.0964 8.62139 17.1256 8.55242 17.1256 8.4933C17.1256 8.35536 16.9797 8.31594 16.9797 8.31594C16.1725 7.98094 15.5987 7.85285 15.0735 7.97109C14.9179 7.89226 14.7526 7.74447 14.7234 7.51785C14.7039 7.41932 14.7137 7.44888 14.7137 7.40946C14.7137 7.37991 14.7234 7.3602 14.7234 7.33064C15.0443 7.23211 15.2875 7.08431 15.3069 6.84784C15.3069 6.84784 15.5987 6.78872 15.5403 6.34534C15.5403 6.34534 16.5518 5.64577 16.0655 4.82797C16.0655 4.82797 16.4254 4.41414 16.1141 4.17767C16.1141 4.17767 16.1336 3.64561 15.7446 3.57664C15.7446 3.57664 15.7154 3.02487 15.3653 2.9559C15.3653 2.9559 15.2194 2.45339 14.6845 2.4731C14.6845 2.4731 14.4413 2.28589 14.2079 2.31545C14.2079 2.31545 13.5271 1.96074 13.0506 2.3253C13.0506 2.3253 12.2239 2.19721 11.796 2.89678C11.796 2.89678 11.193 3.2909 11.2708 3.63576C11.2708 3.63576 10.8915 4.07914 11.1346 4.51267C11.1346 4.51267 10.6289 5.2418 11.1249 5.70489C11.1249 5.70489 10.979 6.33548 11.4945 6.7099C11.4945 6.7099 11.7084 7.12373 12.2239 7.17299C12.2239 7.17299 12.292 7.28138 12.5059 7.37005C12.5157 7.38976 12.5157 7.39961 12.5157 7.41932C12.5351 8.00065 12.2336 7.92182 12.0586 7.94153C11.6306 7.94153 11.1541 7.96123 10.6775 7.70506C10.3274 7.55726 9.89949 7.26167 9.51046 6.98578C9.16034 6.73946 9.09226 6.71975 8.72269 6.53255C8.33367 6.35519 7.53617 6.34534 7.03044 6.12857C6.99154 5.99063 6.95264 5.84283 6.97209 5.73445C8.11971 5.22209 8.01272 4.31561 8.01272 4.31561C7.97382 4.08899 7.99327 3.87223 8.05163 3.64561C8.07108 3.55693 8.0808 3.44855 8.14888 3.37958C8.19751 3.33031 8.25586 3.31061 8.31422 3.28105C8.33367 3.27119 8.36285 3.25149 8.37257 3.23178C8.56708 3.03472 8.55736 2.68001 8.50873 2.42383C8.47955 2.27604 8.43092 2.1381 8.37257 2.00015C8.35312 1.95089 8.22669 1.77353 8.23641 1.72427C8.26559 1.56662 8.24614 1.30059 7.91547 1.06412C7.91547 1.06412 7.86684 0.532052 7.2055 0.522199C7.11797 0.39411 6.85538 0.128078 6.24267 0.128078C6.24267 0.128078 5.61051 -0.167513 5.14368 0.128078L4.96862 0.216755C4.6185 0.295579 3.98633 0.581317 3.57786 1.55677C3.57786 1.55677 2.6831 2.27604 3.20829 3.2909C3.20829 3.2909 3.04295 4.2565 3.50978 4.56194C3.50978 4.56194 3.50005 5.12356 4.09331 5.12356C4.09331 5.12356 4.05441 5.62607 4.54069 5.73445C4.56014 6.01033 4.29755 6.23695 4.29755 6.23695H4.317C4.28783 6.25666 4.24892 6.27637 4.21975 6.28622C3.95716 6.41431 3.54868 6.47343 3.38335 6.51284C3.05268 6.59166 2.44969 6.76902 2.21628 6.91681C2.04122 7.0252 1.92451 7.13358 1.83698 7.24196C1.64247 7.43902 1.65219 7.51785 1.46741 7.87256C1.30207 8.178 1.26317 8.28638 1.12701 8.54256C0.990853 8.83815 0.913048 9.00565 0.796341 9.28154C0.650457 9.66581 0.436494 10.6018 0.348964 10.9467C0.154452 11.7842 0.251708 12.3951 0.222531 13.1144C0.222531 13.3903 0.144727 14.2081 0.11555 14.4839C0.0863732 14.75 -0.0108826 15.4003 0.0377453 15.5185C0.0669221 15.6269 0.144727 15.6762 0.261434 15.686C0.29061 15.686 0.310062 15.6959 0.339238 15.6959C0.387866 15.8042 0.387866 15.9619 0.407318 16.021C0.524025 16.4743 0.708811 16.8881 1.02003 17.2428C1.10756 17.3118 1.23399 17.3709 1.34097 17.3118C1.45768 17.3709 1.54521 17.4596 1.69109 17.4793C1.7689 17.4694 1.83698 17.4398 1.88561 17.361C1.99259 17.1935 2.1482 17.4596 2.25518 17.2723C2.32326 17.1738 2.24545 17.0556 2.24545 16.9669C2.31353 16.9866 2.43996 17.026 2.49832 16.9275C2.59557 16.622 2.17737 16.4348 2.13847 16.1885C2.11902 16.09 2.08984 16.0013 2.12875 15.9225C2.24545 15.9422 2.31353 16.0703 2.43996 16.0604C2.47887 16.0604 2.52749 16.0506 2.5664 16.0112C2.62475 15.9619 2.69283 15.9126 2.43024 15.6072C2.27463 15.4397 2.11902 15.1638 1.89533 15.0554C1.91478 15.0357 1.93423 15.0061 1.94396 14.9766C1.98286 14.7697 1.99259 13.8238 2.00231 13.6957C2.02176 13.3607 2.10929 12.74 2.15792 12.4247C2.19683 12.1094 2.54695 10.2471 2.79009 9.87272C2.87762 10.0501 2.80954 12.602 2.76091 12.8483C2.72201 13.2425 2.66365 13.8435 2.65393 14.2081C2.6442 14.4544 2.66365 15.2032 2.66365 15.5087C2.66365 15.8239 2.80954 15.7747 2.86789 15.952C2.81926 16.6812 2.93597 17.9522 2.93597 18.7109C2.93597 19.174 3.0235 22.3762 3.05268 22.997C3.0624 23.194 3.1013 24.1399 3.09158 24.5537C3.03323 24.9873 2.95542 25.4109 2.86789 25.8248C2.88734 26.0612 3.19856 26.0218 3.23746 26.2287C3.21801 26.4258 3.22774 26.544 3.23746 26.8101C3.23746 26.8101 3.25691 26.9283 3.37362 26.9677H6.45663C6.60252 26.9579 6.62197 26.9283 6.69004 26.9086C6.60251 26.682 6.64142 26.1795 6.7095 25.7361C6.59279 25.6179 6.46636 25.4898 6.3302 25.3617C6.04816 25.1942 6.04816 24.7409 5.912 24.3074C5.65913 23.6965 5.94118 21.0264 5.93145 20.8194C5.912 20.5041 6.08706 17.7157 6.08706 17.7157C6.18431 17.834 6.49553 18.9572 6.56361 19.3119C6.66087 19.7356 6.69977 19.913 6.80675 20.3662L6.89428 20.7603L6.93318 21.1347C6.67059 22.8097 6.75812 25.4405 6.7095 25.7361C6.64142 26.1795 6.60251 26.6721 6.69004 26.8988C6.69977 26.9185 6.7095 26.948 6.72895 26.9579L10.5219 26.9677C10.5608 26.9382 10.5608 26.8889 10.5511 26.8396C10.4636 26.4849 10.1232 26.0021 9.78278 25.8051C9.57854 25.6179 9.87031 25.7952 9.60772 25.3715C9.36458 24.9676 9.36458 24.5931 9.2965 24.1005C9.26733 23.7064 9.32568 23.125 9.39376 22.662C9.51046 22.0708 9.6758 21.2333 9.66607 20.7308C9.65635 20.5633 9.6758 20.5238 9.6369 20.2085C9.59799 19.8243 9.57854 19.6272 9.52992 19.2134C9.50074 19.0656 9.31595 18.1296 9.12144 17.1837C9.17979 17.2231 9.24787 17.2428 9.32568 17.2428C9.41321 17.3019 9.52019 17.3807 9.6369 17.3413C9.7536 17.2822 9.62717 16.9866 9.85086 17.1245C9.88976 17.1048 9.94812 17.0654 9.94812 17.0063C9.87031 16.8191 9.72443 16.6418 9.7536 16.425C9.87031 16.4151 9.96757 16.5334 10.094 16.5334C10.1426 16.5531 10.201 16.5334 10.2399 16.494C10.3274 16.3462 10.1426 16.2476 10.1135 16.1195C9.99674 15.7944 9.82168 15.4101 9.98702 15.085C10.1037 14.8584 10.4344 14.3361 10.4247 14.277C10.5317 14.08 10.5608 13.8238 10.6581 13.538C10.7262 13.41 11.0179 12.9764 11.1346 12.7498V12.8286C11.1249 12.868 11.0568 13.1735 11.0471 13.2228C10.9693 13.607 10.8818 13.8928 10.8234 14.4642C10.7359 15.8535 9.76333 19.2922 9.85086 19.6765C10.308 20.0213 10.9109 20.0608 11.475 20.1002H11.5042C11.5334 20.376 11.5626 20.6618 11.5334 20.9377C11.475 21.4008 11.2708 22.3269 11.3194 22.8689C11.3778 23.4995 11.4556 23.8739 11.5723 24.6129C11.5723 24.6818 11.7279 25.3321 11.6695 25.4996C11.3194 26.4061 11.5723 26.9185 11.5723 26.9185L13.9064 26.948C14.0231 26.7017 13.9162 26.3962 13.8286 26.2879C13.6536 26.0809 13.4396 25.8445 13.2548 25.4799C13.0992 25.1449 13.1089 24.6326 13.1089 24.5931C13.1965 23.8542 13.2451 23.7162 13.3132 23.3714C13.4493 22.7014 13.5563 21.7653 13.5758 21.519C13.5952 21.2333 13.8286 20.6716 13.9551 20.2381H14.2955C14.3538 20.583 14.3927 20.9869 14.3538 21.2825C14.2955 21.7456 14.1398 22.3762 14.1301 22.928C14.1204 23.46 14.2663 24.3074 14.3927 25.3026C14.383 25.3617 14.383 25.4208 14.3538 25.5095C14.0037 26.416 14.2274 26.9677 14.2274 26.9677L17.0575 26.9579C17.2131 26.6327 16.9214 26.3864 16.9214 26.3864C16.4934 26.0908 15.9683 25.8839 15.7251 25.4996C15.7251 25.4799 15.7251 25.4011 15.7348 25.273C15.7932 24.7409 16.0169 24.1596 16.153 23.6768C16.2892 23.1842 16.3086 22.2383 16.3281 21.923C16.3476 21.6175 16.5518 21.1544 16.5907 20.7997C16.6296 20.4647 16.6296 20.2184 16.6101 19.9721C16.7755 19.9425 16.9311 19.913 17.0478 19.8932C17.4563 19.8046 18.3802 19.8341 18.4094 19.4893C18.4386 19.0656 18.1079 18.1887 17.9523 17.7059C17.7967 17.1935 17.7383 16.5925 17.6605 16.2673C17.5049 15.5678 17.3201 14.8485 17.2618 14.6022C17.2229 14.4051 17.1256 13.9125 17.077 13.6957C17.0381 13.607 16.9603 12.868 16.9603 12.868C16.9603 12.8779 17.0964 13.1538 17.1645 13.2819C17.2423 13.4395 17.3201 13.5972 17.3687 13.6858C17.4854 13.9716 17.5438 14.1292 17.6605 14.3164C17.6994 14.3953 18.0398 14.9273 18.176 15.1441C18.351 15.4594 18.1954 15.8535 18.0982 16.1787C18.0787 16.3166 17.8939 16.4151 17.9912 16.5629C18.0301 16.5925 18.0884 16.6122 18.1371 16.5925C18.2829 16.5432 18.351 16.4644 18.4677 16.4743C18.5066 16.691 18.3705 16.8684 18.3024 17.0654C18.2927 17.1245 18.3413 17.1738 18.4094 17.164C18.6233 17.0162 18.5164 17.3216 18.6331 17.3807C18.7498 17.4103 18.847 17.3315 18.9346 17.2625C19.168 17.2625 19.2944 17.026 19.3625 16.8388C19.4403 16.7797 19.45 16.9275 19.5473 16.8782C19.5862 16.8684 19.6251 16.829 19.6348 16.7895C19.6348 16.5925 19.6153 16.3757 19.5959 16.1491ZM9.64662 12.0995C9.56882 12.4247 9.46184 12.7695 9.38403 13.0553C9.20897 13.4297 9.02419 13.7844 8.92693 14.1982C8.89775 14.3657 8.88803 14.5332 8.84912 14.6909C8.82967 14.8189 8.81995 14.947 8.78105 15.0554C8.76159 15.1441 8.73242 15.2426 8.70324 15.3214C8.70324 15.3313 8.69352 15.3412 8.69352 15.351C8.66434 15.2032 8.64489 15.1047 8.63516 15.1047C8.60598 15.0259 8.64489 13.341 8.63516 13.1538C8.61571 12.671 8.62544 12.4641 8.60599 12.2079C8.61571 12.1192 8.61571 11.5871 8.61571 11.5871C8.60599 11.262 8.63516 11.0354 8.64489 10.6413C8.66434 10.4146 8.66434 9.48845 8.76159 9.3111C8.79077 9.26183 9.3354 9.51801 9.56882 9.59684C9.78278 9.67566 10.1815 9.74463 10.4733 9.88258C10.4636 10.0501 9.48129 10.8285 9.47156 10.9763C9.57854 11.1832 9.69525 11.3605 9.80223 11.5182C9.76333 11.7054 9.70498 11.8729 9.64662 12.0995Z"
            fill="#0081C6" />
    </g>
    <defs>
        <clipPath id="clip0_19031_6645">
            <rect width="91" height="29" fill="white" />
        </clipPath>
    </defs>
</svg>