<svg width="103" height="33" viewBox="0 0 103 33" fill="none" xmlns="http://www.w3.org/2000/svg">
    <g clipPath="url(#clip0_19031_6649)">
        <path
            d="M16.2255 3.21814C15.962 2.91585 15.6984 2.61356 15.3596 2.34906C14.7949 1.85783 14.7196 1.02653 15.209 0.459739C15.2467 0.384166 15.322 0.34638 15.3973 0.308594H15.3596C13.6655 1.78226 12.4609 3.67158 11.8585 5.78762C12.6867 6.24105 13.4773 6.80785 14.1549 7.488C14.4561 5.90097 15.1714 4.42731 16.2255 3.21814Z"
            fill="#FFC700" />
        <path
            d="M17.0913 2.34899C16.7902 2.61349 16.5266 2.91579 16.2255 3.21808C17.2796 4.42724 17.9948 5.90091 18.2584 7.52572C18.9736 6.84557 19.7266 6.27877 20.5548 5.82534C19.9524 3.7093 18.7478 1.81998 17.0537 0.346313C17.129 0.3841 17.1666 0.459673 17.2419 0.497459C17.6937 1.02647 17.6184 1.85777 17.0913 2.34899Z"
            fill="#F16E69" />
        <path
            d="M15.3596 2.34898C15.6608 2.61348 15.962 2.91577 16.2255 3.21807C16.489 2.91577 16.7525 2.61348 17.0913 2.34898C17.656 1.85776 17.7313 1.02646 17.2419 0.459662C17.2043 0.384089 17.129 0.346303 17.0537 0.308516C17.0161 0.27073 16.9784 0.232944 16.9408 0.232944C16.9031 0.195157 16.8655 0.195157 16.8278 0.157371C16.7902 0.119585 16.7525 0.119585 16.7149 0.119585C16.6772 0.119585 16.6396 0.0817983 16.6019 0.0817983C16.5643 0.0817983 16.5267 0.0440119 16.489 0.0440119C16.4514 0.00622559 16.4137 0.00622559 16.3384 0.00622559H16.1125C16.0749 0.00622559 16.0373 0.00622559 15.9996 0.0440119C15.962 0.0440119 15.9243 0.0440119 15.8867 0.0817983C15.849 0.0817983 15.8114 0.119585 15.7737 0.119585C15.7361 0.119585 15.6984 0.157371 15.6608 0.157371C15.6231 0.195157 15.5855 0.195157 15.5855 0.232944C15.5479 0.27073 15.5102 0.27073 15.4726 0.308516C15.3973 0.346303 15.3596 0.421875 15.2843 0.459662C14.7573 1.02646 14.8326 1.85776 15.3596 2.34898Z"
            fill="#EE374C" />
        <path
            d="M26.6534 7.11014C26.2393 7.07236 25.8629 7.07236 25.4488 7.11014C25.3735 8.73496 24.8088 10.2842 23.9053 11.6067C24.8841 11.6445 25.8252 11.7957 26.7287 12.0602C27.7828 10.1331 28.2346 7.90366 28.0464 5.67426V5.63647V5.86319C28.0087 6.61892 27.3687 7.14793 26.6534 7.11014Z"
            fill="#CBDB42" />
        <path
            d="M25.4865 7.11013C25.5242 6.69448 25.5242 6.31662 25.4865 5.90097C25.4112 5.18303 25.9759 4.54066 26.6912 4.46508H26.8794C24.6583 4.27615 22.4748 4.76738 20.5925 5.82539C20.8561 6.73227 21.0066 7.71471 21.0443 8.69716C22.3243 7.7525 23.8677 7.1857 25.4865 7.11013Z"
            fill="#00BFD6" />
        <path
            d="M25.4488 5.90091C25.4864 6.31656 25.4864 6.69443 25.4488 7.11008C25.8629 7.07229 26.2394 7.07229 26.6535 7.11008C27.3687 7.18565 28.0087 6.61885 28.084 5.90091V5.6742C28.084 5.63641 28.084 5.56084 28.0464 5.52305C28.0464 5.48526 28.0464 5.44748 28.0087 5.40969C28.0087 5.37191 27.9711 5.33412 27.9711 5.25855C27.9711 5.22076 27.9334 5.18297 27.9334 5.14519C27.8958 5.1074 27.8581 5.06961 27.8581 4.99404C27.8581 4.95626 27.8205 4.95626 27.8205 4.91847L27.7076 4.80511L27.6699 4.76732C27.6323 4.72954 27.557 4.69175 27.5193 4.65396C27.4817 4.65396 27.4817 4.61618 27.4817 4.61618C27.444 4.57839 27.3687 4.57839 27.3311 4.54061C27.2935 4.54061 27.2935 4.50282 27.2558 4.50282C27.2182 4.50282 27.1805 4.46503 27.1052 4.46503C27.0676 4.46503 27.0299 4.42725 26.9923 4.42725H26.7664C25.9382 4.50282 25.4111 5.14519 25.4488 5.90091Z"
            fill="#5B9541" />
        <path
            d="M19.8772 9.64174C20.216 9.26388 20.6301 8.96159 21.0066 8.69708C20.9689 7.71464 20.8183 6.76998 20.5548 5.82532C19.7266 6.27875 18.936 6.84555 18.2584 7.5257C18.3337 8.01693 18.409 8.50815 18.409 9.03716C18.409 10.0574 18.2207 11.0398 17.8819 11.9467C17.8443 12.0601 18.0325 12.249 18.2207 12.0979C18.6348 11.1532 19.1995 10.3219 19.8772 9.64174Z"
            fill="#576272" />
        <path
            d="M25.4488 5.90091C25.4864 6.31656 25.4864 6.69443 25.4488 7.11008C25.8629 7.07229 26.2394 7.07229 26.6535 7.11008C27.3687 7.18565 28.0087 6.61885 28.084 5.90091V5.6742C28.084 5.63641 28.084 5.56084 28.0464 5.52305C28.0464 5.48526 28.0464 5.44748 28.0087 5.40969C28.0087 5.37191 27.9711 5.33412 27.9711 5.25855C27.9711 5.22076 27.9334 5.18297 27.9334 5.14519C27.8958 5.1074 27.8581 5.06961 27.8581 4.99404C27.8581 4.95626 27.8205 4.95626 27.8205 4.91847L27.7076 4.80511L27.6699 4.76732C27.6323 4.72954 27.557 4.69175 27.5193 4.65396C27.4817 4.65396 27.4817 4.61618 27.4817 4.61618C27.444 4.57839 27.3687 4.57839 27.3311 4.54061C27.2935 4.54061 27.2935 4.50282 27.2558 4.50282C27.2182 4.50282 27.1805 4.46503 27.1052 4.46503C27.0676 4.46503 27.0299 4.42725 26.9923 4.42725H26.7664C25.9382 4.50282 25.4111 5.14519 25.4488 5.90091Z"
            fill="#5B9541" />
        <path
            d="M19.8772 9.64174C20.216 9.26388 20.6301 8.96158 21.0066 8.69708C20.9689 7.71464 20.8183 6.76998 20.5548 5.82532C19.7266 6.27875 18.936 6.84555 18.2584 7.5257C18.3337 8.01693 18.409 8.50815 18.409 9.03716C18.409 10.0574 18.2207 11.0398 17.8819 11.9467C17.8066 12.1356 18.1078 12.3246 18.2207 12.0979C18.6349 11.1532 19.1995 10.3219 19.8772 9.64174Z"
            fill="#576272" />
        <path
            d="M29.2887 16.4811C29.5899 16.2166 29.8534 15.9143 30.1169 15.612C30.5687 15.0452 31.3969 14.9697 31.9616 15.4609C32.0369 15.4987 32.0745 15.5742 32.1122 15.6498C30.6816 13.9116 28.7993 12.7025 26.7287 12.0979C26.277 12.9292 25.7123 13.7227 25.0347 14.4407C26.6535 14.7052 28.1217 15.4231 29.2887 16.4811Z"
            fill="#FFC700" />
        <path
            d="M30.1546 17.3502C29.8911 17.0479 29.5899 16.7456 29.3264 16.4811C28.1217 17.5769 26.6535 18.2948 25.11 18.5593C25.7876 19.2773 26.3147 20.0708 26.8041 20.9021C28.8746 20.2975 30.7569 19.0506 32.1875 17.3502V17.3124C32.1498 17.388 32.0745 17.4257 32.0369 17.5013C31.4345 17.9925 30.6063 17.917 30.1546 17.3502Z"
            fill="#F16E69" />
        <path
            d="M30.1546 15.6498C29.8911 15.9521 29.5899 16.2544 29.3264 16.5189C29.6276 16.7834 29.8911 17.0857 30.1546 17.388C30.6064 17.9548 31.4346 18.0304 31.9993 17.5391C32.0746 17.5014 32.1122 17.4258 32.1499 17.3502C32.1875 17.3124 32.2252 17.2746 32.2252 17.2369C32.2628 17.1991 32.2628 17.1613 32.3005 17.1235C32.3381 17.0857 32.3381 17.0479 32.3381 17.0101C32.3381 16.9723 32.3758 16.9346 32.3758 16.8968C32.3758 16.859 32.3758 16.8212 32.4134 16.7834C32.4134 16.7456 32.451 16.7078 32.451 16.6701V16.5567V16.4433C32.451 16.4056 32.451 16.3678 32.4134 16.33C32.4134 16.2922 32.4134 16.2544 32.3758 16.2166C32.3758 16.1788 32.3381 16.141 32.3381 16.1033C32.3381 16.0655 32.3005 16.0277 32.3005 15.9899C32.3005 15.9521 32.2628 15.9143 32.2252 15.8765C32.1875 15.8388 32.1875 15.801 32.1499 15.7632C32.1122 15.6876 32.0369 15.6498 31.9993 15.5743C31.4346 15.0075 30.6064 15.083 30.1546 15.6498Z"
            fill="#EE374C" />
        <path
            d="M25.4488 27.0991C25.4865 26.6835 25.4865 26.2678 25.4488 25.8899C23.83 25.8144 22.3242 25.2476 21.0066 24.3407C20.9689 25.3231 20.8183 26.2678 20.5548 27.2125C22.4371 28.2705 24.6206 28.7617 26.8417 28.5728H26.8794H26.6535C25.9382 28.4972 25.4112 27.8548 25.4488 27.0991Z"
            fill="#CBDB42" />
        <path
            d="M25.4864 25.89C25.9005 25.9277 26.277 25.9277 26.6911 25.89C27.4064 25.8144 28.0464 26.3812 28.1217 27.0991V27.3258C28.3099 25.0964 27.8205 22.867 26.8041 20.9399C25.9005 21.2044 24.9594 21.3556 23.9806 21.3934C24.8465 22.7159 25.3735 24.2651 25.4864 25.89Z"
            fill="#00BFD6" />
        <path
            d="M26.6536 25.8899C26.2395 25.9277 25.863 25.9277 25.4489 25.8899C25.4865 26.3056 25.4865 26.6834 25.4489 27.0991C25.3736 27.817 25.9383 28.4594 26.6536 28.535H26.8794C26.9171 28.535 26.9924 28.535 27.03 28.4972C27.0677 28.4972 27.1053 28.4972 27.143 28.4594C27.1806 28.4594 27.2183 28.4216 27.2935 28.4216C27.3312 28.4216 27.3688 28.3838 27.4065 28.3838C27.4441 28.346 27.4818 28.3083 27.5571 28.3083C27.5947 28.3083 27.5947 28.2705 27.6324 28.2705L27.7453 28.1571L27.783 28.1193C27.8206 28.0815 27.8582 28.006 27.8959 27.9682C27.8959 27.9304 27.9335 27.9304 27.9335 27.9304C27.9712 27.8926 27.9712 27.817 28.0088 27.7793C28.0088 27.7415 28.0465 27.7415 28.0465 27.7037C28.0465 27.6659 28.0841 27.6281 28.0841 27.5525C28.0841 27.5147 28.1218 27.477 28.1218 27.4392V27.1747C28.0088 26.3812 27.4065 25.8144 26.6536 25.8899Z"
            fill="#5B9541" />
        <path
            d="M16.2255 29.7819C16.489 30.0842 16.7525 30.3865 17.0913 30.651C17.656 31.1423 17.7313 31.9736 17.2419 32.5403C17.2043 32.6159 17.129 32.6537 17.0537 32.6915H17.0913C18.7854 31.2178 19.9901 29.3285 20.5924 27.2125C19.7642 26.759 18.9736 26.1922 18.296 25.5121C17.9948 27.0991 17.2796 28.5728 16.2255 29.7819Z"
            fill="#FFC700" />
        <path
            d="M15.3597 30.651C15.6609 30.3865 15.962 30.0842 16.2256 29.7819C15.1715 28.5727 14.4562 27.0991 14.1927 25.4742C13.4774 26.1544 12.7245 26.7212 11.8962 27.1746C12.4986 29.2907 13.7033 31.18 15.3973 32.6537C15.322 32.6159 15.2844 32.5403 15.2091 32.5025C14.7574 31.9735 14.8326 31.1044 15.3597 30.651Z"
            fill="#F16E69" />
        <path
            d="M17.0914 30.6509C16.7902 30.3864 16.489 30.0842 16.2255 29.7819C15.962 30.0842 15.6984 30.3864 15.3596 30.6509C14.7949 31.1422 14.7573 31.9735 15.209 32.5403C15.2467 32.6158 15.322 32.6536 15.3973 32.6914C15.4349 32.7292 15.4726 32.767 15.5102 32.767C15.5479 32.8048 15.5855 32.8048 15.6232 32.8426C15.6608 32.8803 15.6984 32.8803 15.7361 32.8803C15.7737 32.8803 15.8114 32.9181 15.849 32.9181C15.8867 32.9181 15.9243 32.9181 15.962 32.9559C15.9996 32.9559 16.0373 32.9937 16.0749 32.9937H16.3008C16.3384 32.9937 16.3761 32.9937 16.4137 32.9559C16.4514 32.9559 16.489 32.9559 16.5267 32.9181C16.5643 32.9181 16.602 32.8803 16.6396 32.8803C16.6773 32.8803 16.7149 32.8426 16.7525 32.8426C16.7902 32.8426 16.8278 32.8048 16.8655 32.767C16.9031 32.7292 16.9408 32.7292 16.9784 32.6914C17.0537 32.6536 17.0914 32.578 17.1667 32.5403C17.6937 31.9357 17.6184 31.1044 17.0914 30.6509Z"
            fill="#EE374C" />
        <path
            d="M5.79747 25.89C6.21157 25.9277 6.58804 25.9277 7.00215 25.89C7.07744 24.2651 7.64213 22.7159 8.54564 21.3934C7.56684 21.3556 6.62568 21.2044 5.72217 20.9399C4.66808 22.867 4.21633 25.0964 4.40456 27.3258V27.1369C4.4422 26.3812 5.08219 25.8144 5.79747 25.89Z"
            fill="#CBDB42" />
        <path
            d="M6.96449 25.8899C6.92684 26.3055 6.92684 26.6834 6.96449 27.099C7.03978 27.817 6.47509 28.4594 5.75981 28.5349H5.53394H5.57158C7.79271 28.7239 9.97619 28.2326 11.8585 27.1746C11.595 26.2677 11.4444 25.2853 11.4067 24.3029C10.1268 25.2475 8.58328 25.8143 6.96449 25.8899Z"
            fill="#00BFD6" />
        <path
            d="M7.00218 27.0991C6.96453 26.6835 6.96453 26.2678 7.00218 25.89C6.58807 25.9277 6.21161 25.9277 5.7975 25.89C5.08222 25.8144 4.44224 26.3812 4.36694 27.0991V27.3258C4.36694 27.3636 4.36694 27.4392 4.40459 27.477C4.40459 27.5148 4.40459 27.5526 4.44224 27.5903C4.44224 27.6281 4.47988 27.6659 4.47988 27.7415C4.47988 27.7793 4.51753 27.8171 4.51753 27.8548C4.55517 27.8926 4.55517 27.9304 4.59282 28.006C4.63047 28.0438 4.63047 28.0438 4.63047 28.0816L4.74341 28.1949L4.78105 28.2327C4.8187 28.2705 4.89399 28.3083 4.93164 28.3461L4.96928 28.3838C5.00693 28.4216 5.08222 28.4216 5.11987 28.4594C5.15751 28.4594 5.15751 28.4972 5.19516 28.4972C5.23281 28.4972 5.27045 28.535 5.34574 28.535C5.38339 28.535 5.42104 28.5728 5.45868 28.5728H5.68456C6.51278 28.4972 7.03982 27.8548 7.00218 27.0991Z"
            fill="#5B9541" />
        <path
            d="M12.5738 23.3582C12.235 23.7361 11.8209 24.0383 11.4445 24.3028C11.4821 25.2853 11.6327 26.23 11.8962 27.1746C12.7244 26.7212 13.515 26.1544 14.1926 25.4742C14.1173 24.983 14.042 24.4918 14.042 23.9628C14.042 22.9425 14.2303 21.9601 14.5691 21.0532C14.6067 20.9399 14.4185 20.7509 14.2303 20.9021C13.8162 21.8089 13.2515 22.6402 12.5738 23.3582Z"
            fill="#576272" />
        <path
            d="M3.16233 16.4811C2.86116 16.7456 2.59764 17.0479 2.33412 17.3502C1.88236 17.917 1.05414 17.9925 0.489452 17.5013C0.41416 17.4635 0.376513 17.388 0.338867 17.3124V17.3502C1.76942 19.0883 3.65173 20.2975 5.72227 20.9021C6.17403 20.0708 6.73872 19.2773 7.41635 18.5593C5.79757 18.2948 4.32936 17.5769 3.16233 16.4811Z"
            fill="#FFC700" />
        <path
            d="M2.29644 15.6498C2.55997 15.9521 2.82349 16.2544 3.12466 16.5189C4.32934 15.4231 5.79754 14.7052 7.34104 14.4407C6.6634 13.7227 6.13636 12.9292 5.64696 12.0979C3.57642 12.7025 1.69411 13.9494 0.26355 15.6498V15.6876C0.301196 15.612 0.376488 15.5742 0.414135 15.4987C1.01647 15.0074 1.84469 15.083 2.29644 15.6498Z"
            fill="#F16E69" />
        <path
            d="M2.29642 17.3502C2.55994 17.0479 2.82347 16.7456 3.12463 16.4811C2.82347 16.2166 2.55994 15.9143 2.29642 15.612C1.84466 15.0452 1.01645 14.9696 0.451754 15.4609C0.376462 15.4986 0.338816 15.5742 0.30117 15.6498C0.263523 15.6876 0.225877 15.7254 0.225877 15.7631C0.225877 15.8009 0.188231 15.8387 0.150585 15.8765C0.112939 15.9143 0.112939 15.9521 0.112939 15.9899C0.112939 16.0277 0.0752924 16.0654 0.0752924 16.1032C0.0752924 16.141 0.0752924 16.1788 0.0376462 16.2166C0.0376462 16.2544 0.0376462 16.2922 0 16.3299V16.5567C0 16.5944 0 16.6322 0.0376462 16.67C0.0376462 16.7078 0.0376462 16.7456 0.0752924 16.7834C0.0752924 16.8212 0.112939 16.859 0.112939 16.8967C0.112939 16.9345 0.150585 16.9723 0.150585 17.0101C0.150585 17.0479 0.188231 17.0857 0.225877 17.1235C0.263523 17.1612 0.263523 17.199 0.30117 17.2368C0.338816 17.3124 0.414108 17.3502 0.451754 17.4257C1.01645 17.9925 1.84466 17.917 2.29642 17.3502Z"
            fill="#EE374C" />
        <path
            d="M7.00221 5.90091C6.96456 6.31656 6.96456 6.73221 7.00221 7.11007C8.621 7.18565 10.1268 7.75244 11.4445 8.65931C11.4821 7.67687 11.6327 6.73221 11.8962 5.78755C9.97626 4.72953 7.83043 4.23831 5.6093 4.42724H5.57166H5.79753C6.51281 4.50282 7.03986 5.14518 7.00221 5.90091Z"
            fill="#CBDB42" />
        <path
            d="M6.96453 7.11008C6.55043 7.07229 6.17396 7.07229 5.75986 7.11008C5.04458 7.18565 4.40459 6.61885 4.3293 5.90091V5.67419V5.71198C4.14107 7.97916 4.63047 10.1708 5.64692 12.0979C6.55043 11.8334 7.49158 11.6822 8.47038 11.6444C7.60452 10.2841 7.07747 8.73489 6.96453 7.11008Z"
            fill="#00BFD6" />
        <path
            d="M5.79755 7.11013C6.21166 7.07235 6.58812 7.07235 7.00223 7.11013C6.96458 6.69448 6.96458 6.31662 7.00223 5.90097C7.07752 5.18303 6.51283 4.54066 5.79755 4.46509H5.57167C5.53402 4.46509 5.45873 4.46509 5.42109 4.50287C5.38344 4.50287 5.34579 4.50287 5.30815 4.54066C5.2705 4.54066 5.23285 4.57845 5.15756 4.61623C5.11992 4.61623 5.08227 4.65402 5.04462 4.65402C5.00698 4.69181 4.96933 4.69181 4.89404 4.72959C4.85639 4.72959 4.85639 4.76738 4.81875 4.76738L4.70581 4.88074L4.66816 4.91852C4.63052 4.95631 4.59287 5.03188 4.55522 5.06967L4.51758 5.10746C4.47993 5.14524 4.47993 5.22081 4.44228 5.2586C4.44228 5.29639 4.40464 5.29639 4.40464 5.33417C4.40464 5.37196 4.36699 5.40975 4.36699 5.48532C4.36699 5.52311 4.36699 5.56089 4.32935 5.59868V5.8254C4.44228 6.61891 5.04462 7.14792 5.79755 7.11013Z"
            fill="#5B9541" />
        <path
            d="M9.44919 12.7781C9.11037 12.4002 8.77156 12.0223 8.50804 11.6067C7.52923 11.6445 6.58808 11.7956 5.68457 12.0601C6.13632 12.8914 6.70102 13.6849 7.341 14.4029C7.8304 14.3273 8.3198 14.2517 8.8092 14.2517C9.78801 14.2517 10.7668 14.4407 11.6703 14.7807C11.7833 14.8185 11.9715 14.6296 11.8209 14.4407C10.9927 14.025 10.1645 13.496 9.44919 12.7781Z"
            fill="#576272" />
        <path
            d="M8.84685 18.7105C8.35745 18.7105 7.86805 18.6727 7.37865 18.5594C6.70102 19.2773 6.17397 20.0708 5.68457 20.9021C6.58808 21.1666 7.52923 21.3178 8.50804 21.3556C8.80921 20.9399 9.11037 20.5621 9.44919 20.1842C10.1645 19.4663 10.955 18.8995 11.8585 18.4838C12.0468 18.4082 11.9338 18.0682 11.708 18.1437C10.8045 18.5216 9.8633 18.7105 8.84685 18.7105ZM14.042 8.99944C14.042 8.50821 14.0797 7.97921 14.1926 7.48798C13.4773 6.80783 12.7244 6.24103 11.8962 5.7876C11.6327 6.69447 11.4821 7.67692 11.4444 8.65936C11.8585 8.96165 12.235 9.26394 12.5738 9.60402C13.2891 10.322 13.8161 11.1533 14.2303 12.0223C14.3055 12.2113 14.6444 12.0979 14.5691 11.8712C14.2303 11.0021 14.042 10.0197 14.042 8.99944ZM23.6042 14.2895C24.0936 14.2895 24.583 14.3273 25.0724 14.4407C25.75 13.7227 26.3147 12.9292 26.7664 12.0979C25.8629 11.8334 24.9218 11.6823 23.943 11.6445C23.6418 12.0601 23.3406 12.438 23.0018 12.8159C22.2865 13.5338 21.496 14.1006 20.5925 14.5162C20.4042 14.5918 20.5172 14.9319 20.7431 14.8563C21.6466 14.4407 22.5877 14.2895 23.6042 14.2895Z"
            fill="#95B43D" />
        <path
            d="M23.0018 20.2219C23.3407 20.5998 23.6795 20.9776 23.943 21.3933C24.9218 21.3555 25.863 21.2043 26.7665 20.9398C26.3147 20.1085 25.75 19.315 25.0724 18.5971C24.583 18.6727 24.0936 18.7482 23.6042 18.7482C22.6254 18.7482 21.6466 18.5593 20.7431 18.2192C20.5548 18.1059 20.4043 18.4459 20.5925 18.5593C21.4583 18.9372 22.2866 19.504 23.0018 20.2219Z"
            fill="#576272" />
        <path
            d="M18.409 24.0006C18.409 24.4918 18.3713 25.0209 18.2584 25.5121C18.9737 26.1922 19.7266 26.759 20.5548 27.2125C20.8183 26.3056 20.9689 25.3231 21.0066 24.3407C20.5925 24.0384 20.216 23.7361 19.8772 23.396C19.1619 22.6781 18.6349 21.8468 18.2208 20.9777C18.1455 20.7888 17.8066 20.9021 17.8819 21.1289C18.2208 21.9979 18.409 22.9804 18.409 24.0006Z"
            fill="#95B43D" />
        <path
            d="M38.1356 15.6647C38.1733 15.2868 38.1733 14.3043 38.1733 13.7753V12.075C38.1733 11.5837 38.1733 10.5635 38.1356 10.1856C38.3991 10.1856 39.3027 10.1478 40.0179 10.1478C41.4861 10.1478 42.0132 10.9036 42.0132 11.5459C42.0132 12.1505 41.6367 12.5662 41.1473 12.7551C41.9002 12.944 42.2767 13.4353 42.2767 14.0776C42.2767 14.9467 41.5991 15.6647 40.1685 15.6647H38.1356ZM39.8673 12.4528C40.4697 12.4528 40.8085 12.1883 40.8085 11.7727C40.8085 11.3192 40.4697 11.0925 39.8673 11.0925C39.6415 11.0925 39.4909 11.0925 39.3403 11.1303V12.4528C39.4909 12.415 39.7544 12.4528 39.8673 12.4528ZM40.0179 14.7578C40.6203 14.7578 41.0344 14.5311 41.0344 14.0021C41.0344 13.5486 40.6956 13.2463 39.905 13.2463C39.7168 13.2463 39.5285 13.2463 39.3779 13.2841V14.72C39.5662 14.72 39.8297 14.7578 40.0179 14.7578ZM45.7778 14.0021L43.5943 14.0776C43.632 14.6444 43.9708 14.9467 44.5731 14.9467C45.1755 14.9467 45.5896 14.7578 45.966 14.4933L45.9284 15.4002C45.4766 15.6647 44.9872 15.8536 44.4225 15.8536C43.0673 15.8536 42.4273 14.9845 42.4273 13.9265C42.4273 12.7173 43.2555 11.8482 44.4225 11.8482C45.5896 11.8482 46.079 12.6795 46.079 13.6998L45.7778 14.0021ZM45.1002 13.4353C45.0625 12.944 44.8743 12.6795 44.4225 12.6795C43.9708 12.6795 43.6696 13.0196 43.5943 13.473L45.1002 13.4353ZM46.4554 15.6647C46.4931 15.3246 46.4931 14.8334 46.4931 14.3799V11.3948C46.4931 10.9414 46.4931 10.4879 46.4554 10.1478C46.719 10.1478 47.4719 10.0723 47.6978 9.9967C47.6601 10.1856 47.6601 10.9036 47.6601 11.0169V14.8711C47.6601 15.1356 47.6601 15.4379 47.6978 15.6647H46.4554ZM48.2624 15.6647C48.3001 15.3246 48.3001 14.8334 48.3001 14.3799V11.3948C48.3001 10.9414 48.3001 10.4879 48.2624 10.1478C48.526 10.1478 49.2789 10.0723 49.5048 9.9967C49.4671 10.1856 49.4671 10.9036 49.4671 11.0169V14.8711C49.4671 15.1356 49.4671 15.4379 49.5048 15.6647H48.2624ZM53.2317 14.0021L51.0483 14.0776C51.0859 14.6444 51.4247 14.9467 52.0271 14.9467C52.6294 14.9467 53.0435 14.7578 53.42 14.4933L53.3823 15.4002C52.9306 15.6647 52.4412 15.8536 51.8765 15.8536C50.5212 15.8536 49.8812 14.9845 49.8812 13.9265C49.8812 12.7173 50.7095 11.8482 51.8765 11.8482C53.0435 11.8482 53.5329 12.6795 53.5329 13.6998L53.2317 14.0021ZM52.5165 13.4353C52.4788 12.944 52.2906 12.6795 51.8388 12.6795C51.3871 12.6795 51.0859 13.0196 51.0106 13.473L52.5165 13.4353ZM54.5494 14.4555L54.0976 13.4353C53.9094 12.9818 53.6459 12.3395 53.4576 11.9994C53.5706 11.9994 54.587 11.9238 54.6623 11.9238L55.5282 14.3043L55.867 13.2463C55.9799 12.9063 56.2058 12.3017 56.2811 11.9994C56.7328 11.9994 57.1093 11.9994 57.4481 11.9616L55.9046 15.7402L55.0011 15.778C54.9258 15.3624 54.7376 14.9089 54.5494 14.4555ZM58.314 11.2437C57.9375 11.2437 57.6364 10.9791 57.6364 10.6391C57.6364 10.2612 57.9375 9.9967 58.3516 9.9967C58.7281 9.9967 59.0293 10.2612 59.0293 10.6013C58.9916 10.9791 58.6904 11.2437 58.314 11.2437ZM57.6364 15.6647C57.674 15.3246 57.674 14.8334 57.674 14.3799V13.2463C57.674 12.7929 57.674 12.2639 57.6364 11.9238C57.8999 11.9238 58.6528 11.886 58.9163 11.8482C58.8787 12.0372 58.8787 12.415 58.8787 12.6795V14.8711C58.8787 15.1356 58.8787 15.4379 58.9163 15.6269L57.6364 15.6647ZM59.4434 15.6647C59.481 15.3246 59.481 14.8334 59.481 14.3799V11.3948C59.481 10.9414 59.481 10.4879 59.4434 10.1478C59.7069 10.1478 60.4598 10.0723 60.6857 9.9967C60.648 10.1856 60.648 10.9036 60.648 11.0169V14.8711C60.648 15.1356 60.648 15.4379 60.6857 15.6647H59.4434ZM61.2504 15.6647C61.288 15.3246 61.288 14.8334 61.288 14.3799V11.3948C61.288 10.9414 61.288 10.4879 61.2504 10.1478C61.5139 10.1478 62.2668 10.0723 62.4927 9.9967C62.4551 10.1856 62.4551 10.9036 62.4551 11.0169V14.8711C62.4551 15.1356 62.4551 15.4379 62.4927 15.6647H61.2504ZM66.182 14.0021L63.9986 14.0776C64.0362 14.6444 64.375 14.9467 64.9774 14.9467C65.5797 14.9467 65.9938 14.7578 66.3703 14.4933L66.3326 15.4002C65.8809 15.6647 65.3915 15.8536 64.8268 15.8536C63.4715 15.8536 62.8315 14.9845 62.8315 13.9265C62.8315 12.7173 63.6221 11.8482 64.8268 11.8482C65.9938 11.8482 66.4832 12.6795 66.4832 13.6998L66.182 14.0021ZM65.5044 13.4353C65.4668 12.944 65.2785 12.6795 64.8268 12.6795C64.375 12.6795 64.0739 13.0196 64.0362 13.473L65.5044 13.4353ZM70.9631 15.8158C69.2314 15.8158 68.0643 14.6066 68.0643 13.0196C68.0643 11.3192 69.3443 10.0345 71.076 10.0345C71.829 10.0345 72.5066 10.299 72.9207 10.5635L72.6195 11.5837C72.2807 11.3192 71.6784 11.0925 71.076 11.0925C69.9843 11.0925 69.269 11.8482 69.269 12.944C69.269 14.1532 70.0972 14.7956 71.0384 14.7956C71.3772 14.7956 71.6407 14.7578 71.9043 14.6444V13.9643V13.5108H71.4901C71.189 13.5108 71.0007 13.5108 70.6619 13.5486C70.6619 13.1708 70.6996 12.8685 70.6619 12.604C71.1513 12.604 71.3772 12.6417 71.716 12.6417C72.3184 12.6417 72.5819 12.6417 73.0713 12.604C73.0336 12.9063 73.0336 14.0021 73.0336 14.5311V15.2868C72.5819 15.5135 71.9795 15.8158 70.9631 15.8158ZM76.7606 14.0021L74.5771 14.0776C74.6148 14.6444 74.9536 14.9467 75.5559 14.9467C76.1583 14.9467 76.5724 14.7578 76.9488 14.4933L76.9112 15.4002C76.4594 15.6647 75.9701 15.8536 75.4054 15.8536C74.0501 15.8536 73.4101 14.9845 73.4101 13.9265C73.4101 12.7173 74.2383 11.8482 75.4054 11.8482C76.5724 11.8482 77.0618 12.6795 77.0618 13.6998L76.7606 14.0021ZM76.083 13.4353C76.0453 12.944 75.8571 12.6795 75.4054 12.6795C74.9536 12.6795 74.6524 13.0196 74.5771 13.473L76.083 13.4353ZM79.9229 15.6647C79.9605 15.3246 79.9605 14.7956 79.9605 14.3421V13.473C79.9605 13.0196 79.8476 12.7551 79.4711 12.7551C79.057 12.7551 78.6429 13.1708 78.6429 13.5486V14.8711C78.6429 15.1356 78.6429 15.4757 78.6806 15.6647H77.4382C77.4759 15.3246 77.4759 14.7956 77.4759 14.3421V13.2841C77.4759 12.8307 77.4759 12.3395 77.4382 11.9994C77.7018 11.9994 78.3794 11.9238 78.6053 11.886L78.6429 12.6795C78.9441 12.1505 79.5088 11.8482 79.9982 11.8482C80.7888 11.8482 81.1276 12.3395 81.1276 13.1708V14.8711C81.1276 15.1356 81.1276 15.4757 81.1652 15.6647H79.9229ZM84.8545 14.0021L82.6711 14.0776C82.7087 14.6444 83.0475 14.9467 83.6499 14.9467C84.2522 14.9467 84.6663 14.7578 85.0428 14.4933L85.0051 15.4002C84.5534 15.6647 84.064 15.8536 83.4993 15.8536C82.144 15.8536 81.504 14.9845 81.504 13.9265C81.504 12.7173 82.3323 11.8482 83.4993 11.8482C84.6663 11.8482 85.1557 12.6795 85.1557 13.6998L84.8545 14.0021ZM84.1769 13.4353C84.1393 12.944 83.951 12.6795 83.4993 12.6795C83.0475 12.6795 82.7464 13.0196 82.6711 13.473L84.1769 13.4353ZM87.9792 12.9818C87.3768 12.9063 86.7369 13.0952 86.7369 13.7753V14.8711C86.7369 15.1356 86.7369 15.4757 86.7745 15.6647H85.5322C85.5698 15.3246 85.5698 14.7956 85.5698 14.3421V13.1708C85.5698 12.7173 85.5698 12.3395 85.4945 11.9994C85.7581 11.9994 86.4357 11.9238 86.6616 11.8482L86.7369 12.7173C87.0004 12.1883 87.4145 11.886 88.0545 11.8104L87.9792 12.9818ZM87.9792 14.72C87.9792 13.9643 88.6192 13.473 89.8991 13.473H90.2003V13.3597C90.2003 12.944 90.0497 12.7551 89.5603 12.7551C89.1462 12.7551 88.6945 12.9063 88.4309 13.0952L88.2804 12.2261C88.6945 11.9994 89.2592 11.8104 89.8239 11.8104C90.9156 11.8104 91.3673 12.3395 91.3673 13.3219L91.3297 14.6822C91.3297 14.9089 91.405 14.9845 91.5556 14.9845C91.6309 14.9845 91.7062 14.9845 91.7815 14.9467L91.7438 15.6647C91.5556 15.7402 91.3673 15.778 91.1038 15.778C90.7274 15.778 90.3885 15.5891 90.3132 15.1734C90.0874 15.5513 89.6356 15.778 89.1839 15.778C88.3933 15.778 87.9792 15.3624 87.9792 14.72ZM90.1627 14.3799V14.0398H89.8991C89.2592 14.0398 89.0333 14.3043 89.0333 14.6066C89.0333 14.8711 89.1839 15.0601 89.5227 15.0601C89.8615 15.0601 90.125 14.7956 90.1627 14.3799ZM91.932 15.6647C91.9697 15.3246 91.9697 14.8334 91.9697 14.3799V11.3948C91.9697 10.9414 91.9697 10.4879 91.932 10.1478C92.1956 10.1478 92.9485 10.0723 93.1744 9.9967C93.1367 10.1856 93.1367 10.9036 93.1367 11.0169V14.8711C93.1367 15.1356 93.1367 15.4379 93.1744 15.6647H91.932ZM41.6744 22.4284C41.712 22.0506 41.712 21.1437 41.712 20.6147V20.0857H39.4156V21.2948C39.4156 21.5971 39.4156 22.2017 39.4532 22.4284H38.1356C38.1733 22.0506 38.1733 21.0681 38.1733 20.5391V18.8009C38.1733 18.3097 38.1733 17.2895 38.1356 16.9116C38.4368 16.9116 39.2274 16.9116 39.4532 16.8738C39.4532 17.1005 39.4156 17.7051 39.4156 18.0452V19.1032H41.712V18.8009C41.712 18.3097 41.712 17.2895 41.6744 16.9116C41.9755 16.9116 42.7661 16.9116 43.0296 16.8738C42.992 17.1005 42.992 17.7051 42.992 18.0452V21.2948C42.992 21.5971 42.992 22.2017 43.0296 22.4284H41.6744ZM45.3637 22.5796C44.2343 22.5796 43.4814 21.7483 43.4814 20.6902C43.4814 19.4811 44.272 18.612 45.4766 18.612C46.6437 18.612 47.3589 19.4433 47.3589 20.5013C47.3589 21.7105 46.5684 22.5796 45.3637 22.5796ZM45.439 19.4811C44.9496 19.4811 44.6108 19.8967 44.6108 20.5769C44.6108 21.3704 44.9119 21.7105 45.4013 21.7105C45.8907 21.7105 46.2296 21.2948 46.2296 20.6147C46.1919 19.8212 45.8531 19.4811 45.439 19.4811ZM50.4083 18.8765L50.1448 19.7078C49.8812 19.5567 49.5424 19.4433 49.2412 19.4433C48.9401 19.4433 48.7518 19.5567 48.7518 19.7834C48.7518 20.2746 50.5965 20.1612 50.5965 21.3326C50.5965 22.1261 49.9189 22.5796 48.9777 22.5796C48.5636 22.5796 47.9236 22.4662 47.5848 22.2773L47.6225 21.3326C47.9613 21.5593 48.4883 21.7483 48.9777 21.7483C49.3165 21.7483 49.5048 21.6349 49.5048 21.4082C49.5048 20.8792 47.6978 20.9925 47.6978 19.7834C47.6978 19.1032 48.2624 18.5742 49.2036 18.5742C49.6177 18.612 50.1071 18.7254 50.4083 18.8765ZM52.9682 22.5796C52.5918 22.5796 52.3282 22.504 52.1024 22.3528V23.3353C52.1024 23.5998 52.1024 23.8643 52.14 24.0532C51.9894 24.0532 50.973 24.1288 50.86 24.1666C50.8977 23.8265 50.8977 23.3353 50.8977 22.8819V20.0857C50.8977 19.6322 50.8977 19.1032 50.86 18.7631C51.1236 18.7631 51.7635 18.6876 51.9894 18.6876L52.0271 19.1788C52.2906 18.8765 52.6671 18.6498 53.1565 18.6498C54.1353 18.6498 54.7376 19.5189 54.7376 20.5013C54.7752 21.7105 53.9094 22.5796 52.9682 22.5796ZM52.78 19.4433C52.5165 19.4433 52.2529 19.5944 52.1024 19.8212V21.446C52.2529 21.5971 52.4412 21.7105 52.78 21.7105C53.307 21.7105 53.6082 21.1815 53.6082 20.5391C53.6082 19.7834 53.2317 19.4433 52.78 19.4433ZM55.754 18.0074C55.3776 18.0074 55.0764 17.7429 55.0764 17.4028C55.0764 17.025 55.3776 16.7605 55.7917 16.7605C56.1681 16.7605 56.4693 17.025 56.4693 17.365C56.4317 17.7429 56.1305 18.0074 55.754 18.0074ZM55.0764 22.4284C55.1141 22.0883 55.1141 21.5971 55.1141 21.1437V20.0101C55.1141 19.5567 55.1141 19.0276 55.0764 18.6876C55.3399 18.6876 56.0929 18.6498 56.3564 18.612C56.3187 18.8009 56.3187 19.1788 56.3187 19.4433V21.6349C56.3187 21.8994 56.3187 22.2017 56.3564 22.3906L55.0764 22.4284ZM59.2928 22.3528C59.0669 22.4662 58.7281 22.5796 58.4269 22.5796C57.6363 22.5796 57.1846 22.2395 57.1846 21.2948V19.5567H56.5446L56.7328 18.7254H57.1846L57.2599 17.9696L58.3516 17.5918V18.7254H59.2928C59.2928 18.9143 59.2551 19.2921 59.2551 19.5567H58.3516V21.1437C58.3516 21.5215 58.5022 21.6349 58.7657 21.6349C58.954 21.6349 59.1798 21.5593 59.3304 21.446L59.2928 22.3528ZM59.4057 21.4838C59.4057 20.728 60.0457 20.2368 61.3257 20.2368H61.6268V20.1234C61.6268 19.7078 61.4763 19.4811 60.9869 19.4811C60.5728 19.4811 60.121 19.6322 59.8575 19.8212L59.7069 18.9521C60.121 18.7254 60.6857 18.5364 61.2504 18.5364C62.3421 18.5364 62.7939 19.0654 62.7939 20.0479L62.7562 21.4082C62.7562 21.6349 62.8315 21.7105 62.9821 21.7105C63.0574 21.7105 63.1327 21.7105 63.208 21.6727L63.1703 22.3906C62.9821 22.4662 62.7939 22.504 62.5304 22.504C62.1539 22.504 61.8151 22.3151 61.7398 21.8994C61.5139 22.2773 61.0622 22.504 60.6104 22.504C59.8198 22.5418 59.4057 22.1261 59.4057 21.4838ZM61.5892 21.1437V20.8036H61.3257C60.6857 20.8036 60.4598 21.0681 60.4598 21.3704C60.4598 21.6349 60.6104 21.8238 60.9492 21.8238C61.288 21.8238 61.5516 21.5593 61.5892 21.1437ZM63.3586 22.4284C63.3962 22.0883 63.3962 21.5971 63.3962 21.1437V18.1586C63.3962 17.7051 63.3962 17.2517 63.3586 16.9116C63.6221 16.9116 64.375 16.836 64.6009 16.7605C64.5633 16.9494 64.5632 17.6673 64.5632 17.7807V21.6349C64.5632 21.8994 64.5633 22.2017 64.6009 22.4284H63.3586ZM70.0596 17.9318H67.9891V19.2166H69.6831C69.6831 19.4811 69.6455 19.8212 69.6455 20.1612H67.9514V21.3326C67.9514 21.6349 67.9514 22.2395 67.9891 22.4662H66.6714C66.7091 22.0883 66.7091 21.1059 66.7091 20.5769V18.8387C66.7091 18.3475 66.7091 17.2895 66.6714 16.9116C67.1985 16.9494 67.7632 16.9494 68.4408 16.9494C69.0431 16.9494 69.6078 16.9494 70.0972 16.9116C70.0972 17.2517 70.0596 17.554 70.0596 17.9318ZM71.829 22.5796C70.6996 22.5796 69.9467 21.7483 69.9467 20.6902C69.9467 19.4811 70.7372 18.612 71.9419 18.612C73.1089 18.612 73.8242 19.4433 73.8242 20.5013C73.8242 21.7105 73.0336 22.5796 71.829 22.5796ZM71.9043 19.4811C71.4149 19.4811 71.1137 19.8967 71.1137 20.5769C71.1137 21.3704 71.4525 21.7105 71.9043 21.7105C72.3937 21.7105 72.6948 21.2948 72.6948 20.6147C72.6948 19.8212 72.356 19.4811 71.9043 19.4811ZM76.8359 22.4284L76.723 21.786C76.4594 22.2773 75.9324 22.5796 75.443 22.5796C74.6148 22.5796 74.2007 22.0883 74.2007 21.1437V20.0101C74.2007 19.5567 74.2007 19.0654 74.163 18.7254C74.6148 18.7254 75.0665 18.6876 75.4054 18.6876C75.3677 18.8765 75.3677 19.2921 75.3677 19.5567V20.8792C75.3677 21.4082 75.5183 21.6727 75.9324 21.6727C76.2712 21.6727 76.6477 21.3704 76.6477 20.9547V20.0101C76.6477 19.5567 76.6477 19.0654 76.61 18.7254C77.0618 18.7254 77.5135 18.6876 77.89 18.6876C77.8524 18.8765 77.8524 19.2921 77.8524 19.5567V21.1437C77.8524 21.5971 77.8524 22.0883 77.89 22.4284H76.8359ZM80.9017 22.4284C80.9393 22.0883 80.9393 21.5593 80.9393 21.1059V20.2368C80.9393 19.7834 80.8264 19.5189 80.4499 19.5189C80.0358 19.5189 79.6217 19.9345 79.6217 20.3124V21.6349C79.6217 21.8994 79.6217 22.2395 79.6594 22.4284H78.4171C78.4547 22.0883 78.4547 21.5593 78.4547 21.1059V20.0479C78.4547 19.5944 78.4547 19.1032 78.4171 18.7631C78.6806 18.7631 79.3582 18.6876 79.5841 18.6498L79.6217 19.4433C79.9229 18.9143 80.4876 18.612 80.977 18.612C81.7299 18.612 82.1064 19.1032 82.1064 19.9345V21.6349C82.1064 21.8994 82.1064 22.2395 82.144 22.4284H80.9017ZM85.1934 18.8387V18.1586C85.1934 17.7051 85.1934 17.2517 85.1557 16.9116C85.4192 16.8738 86.1722 16.836 86.398 16.7605C86.3604 16.9494 86.3604 17.3273 86.3604 17.5918V21.1437C86.3604 21.5971 86.3604 22.0883 86.398 22.4284H85.2687L85.231 22.0506C85.0051 22.3528 84.6287 22.5796 84.1393 22.5796C83.0852 22.5796 82.4828 21.7105 82.4828 20.728C82.4828 19.5189 83.2734 18.612 84.3275 18.612C84.704 18.612 85.0051 18.6876 85.1934 18.8387ZM83.6875 20.6147C83.6875 21.3704 84.064 21.7105 84.5157 21.7105C84.8169 21.7105 85.0428 21.5593 85.1557 21.3326V19.67C85.0051 19.5189 84.8169 19.4433 84.5157 19.4433C84.0263 19.4433 83.6875 19.9723 83.6875 20.6147ZM86.7369 21.4838C86.7369 20.728 87.3768 20.2368 88.6568 20.2368H88.958V20.1234C88.958 19.7078 88.8074 19.4811 88.318 19.4811C87.9039 19.4811 87.4521 19.6322 87.1886 19.8212L87.038 18.9521C87.4521 18.7254 88.0168 18.5364 88.5815 18.5364C89.6733 18.5364 90.125 19.0654 90.125 20.0479L90.0874 21.4082C90.0874 21.6349 90.1627 21.7105 90.3132 21.7105C90.3885 21.7105 90.4638 21.7105 90.5391 21.6727L90.5015 22.3906C90.3132 22.4662 90.125 22.504 89.8615 22.504C89.485 22.504 89.1462 22.3151 89.0709 21.8994C88.8451 22.2773 88.3933 22.504 87.9415 22.504C87.1886 22.5418 86.7369 22.1261 86.7369 21.4838ZM88.9203 21.1437V20.8036H88.6568C88.0168 20.8036 87.791 21.0681 87.791 21.3704C87.791 21.6349 87.9415 21.8238 88.2804 21.8238C88.6192 21.8238 88.8827 21.5593 88.9203 21.1437ZM93.0991 22.3528C92.8732 22.4662 92.5344 22.5796 92.2332 22.5796C91.4426 22.5796 90.9909 22.2395 90.9909 21.2948V19.5567H90.3509L90.5391 18.7254H90.9909L91.0662 17.9696L92.1579 17.5918V18.7254H93.0991C93.0991 18.9143 93.0614 19.2921 93.0614 19.5567H92.1203V21.1437C92.1203 21.5215 92.2709 21.6349 92.5344 21.6349C92.7226 21.6349 92.9485 21.5593 93.0991 21.446V22.3528ZM94.0779 18.0074C93.7014 18.0074 93.4002 17.7429 93.4002 17.4028C93.4002 17.025 93.7014 16.7605 94.1155 16.7605C94.492 16.7605 94.7931 17.025 94.7931 17.365C94.7555 17.7429 94.4543 18.0074 94.0779 18.0074ZM93.4002 22.4284C93.4379 22.0883 93.4379 21.5971 93.4379 21.1437V20.0101C93.4379 19.5567 93.4379 19.0276 93.4002 18.6876C93.6638 18.6876 94.4167 18.6498 94.6802 18.612C94.6426 18.8009 94.6426 19.1788 94.6426 19.4433V21.6349C94.6426 21.8994 94.6426 22.2017 94.6802 22.3906L93.4002 22.4284ZM96.939 22.5796C95.8096 22.5796 95.0567 21.7483 95.0567 20.6902C95.0567 19.4811 95.8472 18.612 97.0519 18.612C98.2189 18.612 98.9342 19.4433 98.9342 20.5013C98.9342 21.7105 98.1437 22.5796 96.939 22.5796ZM97.0143 19.4811C96.5249 19.4811 96.2237 19.8967 96.2237 20.5769C96.2237 21.3704 96.5249 21.7105 97.0143 21.7105C97.5037 21.7105 97.8425 21.2948 97.8425 20.6147C97.7672 19.8212 97.4284 19.4811 97.0143 19.4811ZM101.758 22.4284C101.795 22.0883 101.795 21.5593 101.795 21.1059V20.2368C101.795 19.7834 101.682 19.5189 101.306 19.5189C100.892 19.5189 100.478 19.9345 100.478 20.3124V21.6349C100.478 21.8994 100.478 22.2395 100.515 22.4284H99.273C99.3107 22.0883 99.3107 21.5593 99.3107 21.1059V20.0479C99.3107 19.5944 99.3107 19.1032 99.273 18.7631C99.5366 18.7631 100.214 18.6876 100.44 18.6498L100.478 19.4433C100.779 18.9143 101.344 18.612 101.833 18.612C102.586 18.612 102.962 19.1032 102.962 19.9345V21.6349C102.962 21.8994 102.962 22.2395 103 22.4284H101.758Z"
            fill="#576272" />
    </g>
    <defs>
        <clipPath id="clip0_19031_6649">
            <rect width="103" height="33" fill="white" />
        </clipPath>
    </defs>
</svg>