<svg width="101" height="20" viewBox="0 0 101 20" fill="none" xmlns="http://www.w3.org/2000/svg">
<path d="M12.9352 19.7243V12.1895H5.93159V19.7243H0V0H5.93159V6.98207H12.9495V0H18.8668V19.7243H12.9352Z" fill="#5DAB31"/>
<path d="M22.2971 14.5169H23.6311C26.5687 14.5169 28.3285 12.335 28.3285 9.84762C28.3285 7.18571 26.81 5.20746 23.6736 5.20746H22.3112V0H23.6453C29.7619 0 34.3032 3.54922 34.3032 9.84762C34.3032 16.146 29.7619 19.7243 23.6736 19.7243H22.3112L22.2971 14.5169Z" fill="#2EA4DD"/>
<path d="M45.8239 9.24846V6.09551H42.8235V9.24846H40.3063V0.984679H42.8235V3.90879H45.8239V0.984679H48.3411V9.24846H45.8239ZM49.2565 5.12928C49.2565 2.58658 51.2398 0.857544 53.8333 0.857544C56.4269 0.857544 58.4102 2.58658 58.4102 5.12928C58.4102 7.67199 56.4269 9.40102 53.8333 9.40102C51.2398 9.40102 49.2565 7.67199 49.2565 5.12928ZM55.8166 5.12928C55.8166 3.98507 55.0284 3.06969 53.8079 3.06969C52.5874 3.06969 51.7992 3.98507 51.7992 5.12928C51.7992 6.2735 52.5874 7.18887 53.8079 7.18887C55.0284 7.18887 55.8166 6.2735 55.8166 5.12928ZM58.639 8.10424L59.9612 6.24807C60.5969 6.83289 61.5122 7.31601 62.6564 7.31601C63.1395 7.31601 63.5718 7.18887 63.5718 6.85832C63.5718 6.07008 58.9187 6.85832 58.9187 3.60366C58.9187 2.20518 60.0883 0.857544 62.3767 0.857544C63.7498 0.857544 64.9703 1.23895 65.9111 2.00176L64.5634 3.78165C63.8515 3.24768 62.9107 2.96799 62.1225 2.96799C61.6139 2.96799 61.4868 3.12055 61.4868 3.34939C61.4868 4.13763 66.1145 3.4511 66.1145 6.52777C66.1145 8.35852 64.7414 9.40102 62.5039 9.40102C60.7494 9.40102 59.5289 8.89248 58.639 8.10424ZM66.9536 9.24846V0.984679H71.4032C73.3611 0.984679 74.4036 2.28146 74.4036 3.8325C74.4036 5.35813 73.3611 6.65491 71.4032 6.65491H69.4708V9.24846H66.9536ZM71.8355 3.8325C71.8355 3.37482 71.5049 3.1714 71.0727 3.1714H69.4708V4.46818H71.0727C71.5049 4.46818 71.8355 4.26476 71.8355 3.8325ZM75.2427 9.24846V0.984679H77.7599V9.24846H75.2427ZM80.8874 9.24846V3.1714H78.6499V0.984679H85.6422V3.1714H83.4047V9.24846H80.8874ZM91.3633 9.24846L91.0582 8.28223H88.0578L87.7527 9.24846H84.8794L87.9561 0.984679H91.1599L94.2365 9.24846H91.3633ZM89.558 3.4511L88.7443 6.12094H90.3971L89.558 3.4511ZM95.1773 9.24846V0.984679H97.6945V7.08716H100.847V9.27389H95.1773V9.24846Z" fill="#5DAB31"/>
<path d="M40.3063 19.038V10.5708H43.2304C45.9002 10.5708 47.6292 12.4015 47.6292 14.8171C47.6292 17.2327 45.9002 19.038 43.2304 19.038H40.3063ZM46.5104 14.7917C46.5104 12.9609 45.3408 11.4861 43.2304 11.4861H41.3742V18.0717H43.2304C45.3154 18.0972 46.5104 16.6224 46.5104 14.7917ZM50.5787 19.038V15.4528L47.1969 10.5708H48.4428L51.0872 14.512L53.7316 10.5708H54.9775L51.6212 15.4528V19.038H50.5787ZM62.2242 19.038L57.2405 12.2744V19.038H56.1726V10.5708H57.2659L62.1987 17.1818V10.5708H63.2667V19.038H62.2242ZM71.4032 19.038L70.6404 17.1564H66.3687L65.6059 19.038H64.3854L67.8435 10.5708H69.1657L72.5983 19.038H71.4032ZM68.53 11.6387L66.7247 16.2156H70.3607L68.53 11.6387ZM81.1163 19.038V11.9184L78.2176 19.038H77.7854L74.8613 11.9184V19.038H73.7934V10.5708H75.319L77.9888 17.1055L80.6332 10.5708H82.1588V19.038H81.1163ZM83.7098 19.038V10.5708H84.7777V19.038H83.7098ZM86.0745 14.7917C86.0745 12.1981 88.0069 10.4182 90.4733 10.4182C91.9989 10.4182 93.0414 11.1302 93.728 12.0964L92.838 12.6049C92.3549 11.893 91.4395 11.3844 90.4733 11.3844C88.5918 11.3844 87.1679 12.7829 87.1679 14.8171C87.1679 16.8258 88.5918 18.2497 90.4733 18.2497C91.4395 18.2497 92.3549 17.7412 92.838 17.0292L93.728 17.5123C93.016 18.4786 91.9735 19.1905 90.4733 19.1905C88.0069 19.1905 86.0745 17.4106 86.0745 14.7917ZM94.567 17.8429L95.2027 17.0292C95.7621 17.6649 96.6775 18.2497 97.8725 18.2497C99.3981 18.2497 99.8812 17.4361 99.8812 16.775C99.8812 14.5882 94.8213 15.8087 94.8213 12.7829C94.8213 11.3844 96.0672 10.4182 97.7708 10.4182C99.0676 10.4182 100.085 10.8505 100.797 11.6133L100.161 12.3761C99.5253 11.6641 98.6099 11.359 97.6945 11.359C96.6775 11.359 95.9401 11.893 95.9401 12.7066C95.9401 14.6137 101 13.5203 101 16.6733C101 17.8938 100.161 19.1651 97.8471 19.1651C96.3723 19.1905 95.279 18.6311 94.567 17.8429Z" fill="#2EA4DD"/>
</svg>
