<svg width="68" height="36" viewBox="0 0 68 36" fill="none" xmlns="http://www.w3.org/2000/svg">
    <g clipPath="url(#clip0_19031_6685)">
        <path
            d="M18.0417 2.71945V0.638674H21.8986V1.15837C21.8986 6.03798 21.9064 10.9156 21.8986 15.7952C21.8946 17.5943 21.8554 19.3954 21.4454 21.1608C20.694 24.3861 18.6263 26.4054 15.5894 27.3635C12.3269 28.3929 9.08994 28.1648 5.9746 26.6791C4.12265 25.7964 2.87102 24.3167 1.96271 22.5077C1.66647 21.9165 1.38986 21.3135 1.06616 20.6351C2.46689 20.6351 3.77149 20.6252 5.07413 20.651C5.20753 20.653 5.37821 20.8553 5.46257 21.0041C6.19432 22.2835 7.17719 23.2892 8.58576 23.7514C10.7202 24.4516 12.8664 24.4853 14.9656 23.5927C16.8214 22.8052 17.818 21.375 17.9514 19.3379C17.9691 19.0721 17.9965 18.8043 18.0181 18.5385C18.0201 18.5107 18.0063 18.481 17.9789 18.36C15.4403 20.3178 12.6173 21.1053 9.49212 20.4765C6.38265 19.8516 3.9716 18.1795 2.4355 15.341C0.277516 11.3639 1.10932 6.2284 4.40319 3.04872C5.6254 1.87048 7.06144 1.04531 8.68385 0.565282C10.2906 0.0892225 11.913 -3.86089e-05 13.5648 0.349072C15.2324 0.702149 16.6606 1.50947 18.0436 2.71945H18.0417ZM18.1751 10.4693C18.1653 10.3185 18.1456 10.0666 18.1299 9.81472C17.9181 6.56958 15.2402 3.99886 12.015 3.94729C8.34446 3.88778 5.51161 6.40891 5.17811 10.1123C5.0035 12.0542 5.53515 13.8017 6.98297 15.1704C8.39743 16.5093 10.1277 16.9477 12.0189 16.91C15.6581 16.8346 18.179 14.2441 18.1751 10.4693ZM45.0832 11.6039H28.5785C28.7453 14.2302 30.5972 16.8287 33.4418 17.3186C36.0608 17.7709 38.3326 17.031 40.0374 14.8649C40.2297 14.6189 40.4357 14.5178 40.7456 14.5218C41.8776 14.5376 43.0115 14.5277 44.1454 14.5277H44.6124C44.5692 14.6745 44.5594 14.7638 44.5201 14.8371C43.4137 17.025 41.9875 18.9134 39.749 20.0401C36.2237 21.8114 31.1799 21.5754 28.1077 18.7547C26.2283 17.029 25.1218 14.8887 24.7275 12.3616C24.292 9.56677 24.8197 6.97621 26.3852 4.62765C28.1901 1.92403 30.6914 0.400645 33.9421 0.180467C36.5121 0.00591211 38.8858 0.541479 40.9555 2.15016C43.2097 3.90365 44.53 6.21055 44.8693 9.07286C44.9655 9.88216 45.0086 10.6974 45.0832 11.6039ZM29.0749 7.99181H40.6162C40.0335 5.72259 37.7715 4.08812 35.1368 3.94729C32.1294 3.78662 29.8537 5.53613 29.0749 7.99181ZM63.9106 2.60044V0.664461H67.7048V20.6351H63.9263V18.6297C61.1347 20.9426 58.0899 21.6805 54.7137 20.8176C52.3222 20.2067 50.4507 18.8063 49.0166 16.793C46.1426 12.7544 46.529 7.04167 49.9563 3.37006C51.7984 1.39442 54.082 0.293531 56.7736 0.14873C59.4436 0.00591211 61.8193 0.79141 63.8106 2.66788C63.8439 2.64606 63.8773 2.62225 63.9106 2.60044ZM51.0098 10.6577C51.0098 11.6436 51.1824 12.4767 51.5826 13.4268C53.3365 17.5923 58.6569 18.7944 61.9626 15.7496C63.5614 14.2778 64.1225 12.3815 64.0479 10.2372C63.9322 6.85918 61.1857 4.05638 57.8526 3.94729C54.0447 3.82232 51.0078 6.79968 51.0098 10.6577ZM44.0336 36H42.6937V26.3518H43.9591C43.9944 26.5601 44.0297 26.7704 44.0787 27.054C44.9949 26.2288 46.0366 26.0206 47.1549 26.2209C47.9592 26.3657 48.6341 26.7842 49.1657 27.417C50.3173 28.7877 50.4252 30.7633 49.4168 32.1637C48.793 33.0325 47.9631 33.5681 46.8959 33.7149C45.8503 33.8597 44.936 33.5324 44.0336 32.8381V35.998V36ZM43.9728 29.954C43.9591 31.3445 44.9792 32.4196 46.327 32.4335C47.6119 32.4474 48.6968 31.3187 48.7125 29.954C48.7263 28.625 47.6649 27.5241 46.3564 27.5102C45.0145 27.4964 43.9865 28.5496 43.9708 29.954H43.9728ZM65.0622 33.5562H63.787C63.7517 33.3499 63.7184 33.1396 63.6732 32.8679C62.6865 33.6712 61.6075 33.9291 60.4186 33.6415C59.6202 33.4471 58.9669 33.0067 58.4745 32.3422C57.2993 30.7534 57.3876 28.6627 58.6942 27.2801C59.7712 26.1396 61.8174 25.5842 63.6634 26.9747C63.8675 26.2328 63.9832 26.1793 65.0622 26.3518V33.5582V33.5562ZM63.7831 29.952C63.789 28.5913 62.7669 27.5221 61.4505 27.5122C60.1067 27.5023 59.0355 28.5913 59.0297 29.9798C59.0238 31.3009 60.1381 32.4355 61.4388 32.4315C62.7708 32.4275 63.7753 31.3643 63.7831 29.954V29.952ZM28.3039 33.5582H26.8776V32.739C26.8737 31.5944 26.8678 30.4499 26.8639 29.3054C26.86 28.26 26.4774 27.657 25.7143 27.5003C24.8668 27.3258 23.8721 27.8296 23.5877 28.7004C23.3935 29.2935 23.3307 29.9441 23.2993 30.5749C23.2581 31.3901 23.3071 32.2093 23.317 33.0266V33.5423H21.9417V23.7236C22.3361 23.7236 22.7009 23.7018 23.06 23.7395C23.1482 23.7494 23.2816 23.9477 23.2856 24.0648C23.3091 24.882 23.3032 25.6992 23.3052 26.5165V27.0243C23.5151 26.8894 23.6603 26.8041 23.7996 26.7049C25.5828 25.4493 27.8723 26.332 28.1332 28.4901C28.3333 30.1464 28.2568 31.8364 28.3039 33.5602V33.5582ZM33.0652 26.1555C35.1486 26.2011 36.7455 27.903 36.7122 30.0433C36.6808 32.1478 34.9877 33.7863 32.8847 33.7506C30.7875 33.7149 29.2043 32.003 29.2495 29.8152C29.2926 27.7264 30.9798 26.1078 33.0652 26.1535V26.1555ZM30.6384 29.9461C30.6188 31.3346 31.633 32.3918 32.9945 32.4057C34.2599 32.4176 35.2938 31.3524 35.3291 29.9976C35.3624 28.7024 34.2658 27.534 33.0024 27.5162C31.7213 27.4983 30.658 28.5913 30.6404 29.9461H30.6384ZM37.0888 32.5009L37.9206 31.5369C38.1325 31.7333 38.3189 31.9237 38.5209 32.0883C38.9604 32.4454 39.5058 32.491 39.9138 32.2193C40.3945 31.8999 40.4514 31.3207 40.0119 30.9438C39.802 30.7633 39.5489 30.6304 39.3116 30.4856C39.0232 30.3091 38.7171 30.1583 38.4405 29.9639C37.4675 29.2816 37.1693 28.1728 37.6793 27.1988C38.1482 26.3022 39.2782 25.8897 40.3199 26.3201C40.832 26.5323 41.2773 26.9092 41.8442 27.2702L40.7927 28.2104C40.6927 28.1232 40.5769 27.9784 40.4298 27.901C40.1375 27.7483 39.8295 27.544 39.5215 27.5281C39.2841 27.5162 38.9525 27.7066 38.8113 27.9129C38.6151 28.2005 38.7819 28.5338 39.0604 28.7222C39.6078 29.0931 40.1924 29.4105 40.7339 29.7914C41.4185 30.2714 41.7148 30.9577 41.6167 31.7987C41.5186 32.6398 41.0615 33.2289 40.3023 33.5582C39.1899 34.0402 37.799 33.5859 37.0869 32.5009H37.0888ZM54.4645 27.5935H53.3012V26.3201H54.441V23.8704H55.8123V26.3042C56.1988 26.3042 56.546 26.3122 56.8932 26.3022C57.1169 26.2963 57.2169 26.3796 57.2091 26.6137C57.1993 26.9231 57.2071 27.2325 57.2071 27.5816H55.8398V33.5502H54.4665V27.5955L54.4645 27.5935ZM67.7224 33.5542H66.3864V33.0821C66.3805 30.1226 66.3825 27.1611 66.3609 24.2016C66.359 23.8089 66.4629 23.6601 66.8553 23.6998C67.128 23.7276 67.4066 23.7057 67.7224 23.7057V33.5542ZM51.0942 26.3677C52.4105 26.2229 52.4164 26.2229 52.4203 27.4825C52.4262 29.4879 52.4203 31.4933 52.4203 33.5383H51.0942V26.3677ZM51.7671 25.489C51.2334 25.4969 50.8097 25.0942 50.792 24.5626C50.7744 24.0072 51.1805 23.5689 51.7337 23.549C52.2614 23.5312 52.6911 23.9636 52.7107 24.5329C52.7283 25.0625 52.3183 25.4791 51.7671 25.487V25.489Z"
            fill="#8D9093" />
    </g>
    <defs>
        <clipPath id="clip0_19031_6685">
            <rect width="68" height="36" fill="white" />
        </clipPath>
    </defs>
</svg>