<svg width="32" height="32" viewBox="0 0 32 32" fill="none" xmlns="http://www.w3.org/2000/svg">
<path d="M30.0019 12.0002H27.3352V9.33345C27.3356 9.0707 27.2841 8.81046 27.1837 8.56765C27.0833 8.32483 26.936 8.10421 26.7502 7.91842C26.5644 7.73263 26.3438 7.58532 26.101 7.48493C25.8582 7.38455 25.5979 7.33305 25.3352 7.3334H15.1683C14.8706 7.33343 14.5767 7.267 14.308 7.13898C14.0392 7.01095 13.8025 6.82456 13.6149 6.59339L12.3082 4.98669C12.0591 4.6785 11.7443 4.42995 11.3867 4.25922C11.0291 4.08849 10.6378 3.99992 10.2415 4H2.66803C2.40529 3.99965 2.14505 4.05114 1.90224 4.15153C1.65942 4.25192 1.4388 4.39923 1.25301 4.58502C1.06722 4.77081 0.919909 4.99143 0.819522 5.23425C0.719135 5.47706 0.667642 5.7373 0.667993 6.00004V25.7138C0.666606 26.0141 0.725486 26.3116 0.841146 26.5887C0.956806 26.8658 1.12689 27.1169 1.34134 27.3272C1.55155 27.5416 1.80265 27.7117 2.07978 27.8274C2.3569 27.943 2.65442 28.0019 2.95471 28.0005H25.3952C25.8905 28.0003 26.3725 27.8398 26.7691 27.543C27.1656 27.2462 27.4554 26.829 27.5952 26.3538L31.282 13.7069C31.3395 13.5082 31.3501 13.2988 31.3129 13.0953C31.2757 12.8919 31.1917 12.6998 31.0676 12.5343C30.9434 12.3688 30.7826 12.2344 30.5977 12.1417C30.4127 12.049 30.2088 12.0006 30.0019 12.0002Z" fill="#1F6BFF"/>
<path d="M30.0004 12H11.0486C10.5539 12.0001 10.0726 12.1607 9.67685 12.4576C9.28114 12.7545 8.99238 13.1718 8.85391 13.6467L5.14717 26.3543C5.00871 26.8291 4.72003 27.2461 4.32444 27.5429C3.92884 27.8397 3.44767 28.0002 2.95312 28.0003H25.3956C25.8905 28.0005 26.3722 27.8401 26.7682 27.5431C27.1642 27.2462 27.4531 26.8288 27.5916 26.3536L31.2804 13.7067C31.3383 13.508 31.3492 13.2985 31.3122 13.0948C31.2752 12.8912 31.1912 12.6989 31.067 12.5333C30.9428 12.3677 30.7818 12.2333 30.5967 12.1408C30.4115 12.0482 30.2074 12 30.0004 12Z" fill="#B0B7FF"/>
</svg>
