<svg width="32" height="32" viewBox="0 0 32 32" fill="none" xmlns="http://www.w3.org/2000/svg">
<path d="M8 0C6.9 0 6 0.9 6 2V30C6 31.1 6.9 32 8 32H28C29.1 32 30 31.1 30 30V8L22 0H8Z" fill="#E2E5E7"/>
<path d="M24 8H30L22 0V6C22 7.1 22.9 8 24 8Z" fill="#B0B7BD"/>
<path d="M30 14L24 8H30V14Z" fill="#CAD1D8"/>
<path d="M26 26C26 26.55 25.55 27 25 27H3C2.45 27 2 26.55 2 26V16C2 15.45 2.45 15 3 15H25C25.55 15 26 15.45 26 16V26Z" fill="#50BEE8"/>
<path d="M8.87184 18.9472C8.87184 18.2752 9.92784 18.2752 9.92784 18.9472V22.1052C9.92784 23.3612 9.32784 24.1212 7.94484 24.1212C7.26484 24.1212 6.69784 23.9362 6.20184 23.2972C5.79384 22.8092 6.56184 22.1062 6.97784 22.6172C7.31384 23.0332 7.67384 23.1292 8.02484 23.1132C8.47184 23.0972 8.86484 22.8962 8.87284 22.1052V18.9472H8.87184ZM11.3328 18.9472C11.3328 18.6832 11.5408 18.3952 11.8768 18.3952H13.7238C14.7638 18.3952 15.6998 19.0912 15.6998 20.4252C15.6998 21.6892 14.7638 22.3932 13.7238 22.3932H12.3888V23.4492C12.3888 23.8012 12.1648 24.0002 11.8768 24.0002C11.6128 24.0002 11.3328 23.8012 11.3328 23.4492V18.9472ZM12.3888 19.4022V21.3942H13.7238C14.2598 21.3942 14.6838 20.9212 14.6838 20.4252C14.6838 19.8662 14.2598 19.4022 13.7238 19.4022H12.3888ZM21.4098 23.3852C20.8418 23.8572 20.1458 24.0572 19.4428 24.0572C17.7628 24.0572 16.5718 23.0982 16.5718 21.1942C16.5718 19.5802 17.8278 18.3252 19.5138 18.3252C20.1458 18.3252 20.8408 18.5402 21.3368 19.0282C21.8238 19.5072 21.1208 20.2192 20.6418 19.7962C20.3458 19.5082 19.9298 19.2922 19.5138 19.2922C18.5468 19.2922 17.6118 20.0672 17.6118 21.1942C17.6118 22.3782 18.3948 23.0982 19.4428 23.0982C19.9298 23.0982 20.3458 22.9532 20.6418 22.7382V21.7552H19.4428C18.7308 21.7552 18.8028 20.7792 19.4428 20.7792H21.0418C21.3378 20.7792 21.6088 21.0032 21.6088 21.2512V22.9542C21.6088 23.0982 21.5458 23.2322 21.4098 23.3852Z" fill="white"/>
<path d="M25 27H6V28H25C25.55 28 26 27.55 26 27V26C26 26.55 25.55 27 25 27Z" fill="#CAD1D8"/>
</svg>
