<svg width="32" height="32" viewBox="0 0 32 32" fill="none" xmlns="http://www.w3.org/2000/svg">
<path d="M8 0C6.9 0 6 0.9 6 2V30C6 31.1 6.9 32 8 32H28C29.1 32 30 31.1 30 30V8L22 0H8Z" fill="#E2E5E7"/>
<path d="M24 8H30L22 0V6C22 7.1 22.9 8 24 8Z" fill="#B0B7BD"/>
<path d="M30 14L24 8H30V14Z" fill="#CAD1D8"/>
<path d="M26 26C26 26.55 25.55 27 25 27H3C2.45 27 2 26.55 2 26V16C2 15.45 2.45 15 3 15H25C25.55 15 26 15.45 26 16V26Z" fill="#F15642"/>
<path d="M6.35938 18.9465C6.35938 18.6825 6.56737 18.3945 6.90237 18.3945H8.74937C9.78937 18.3945 10.7254 19.0905 10.7254 20.4245C10.7254 21.6885 9.78937 22.3925 8.74937 22.3925H7.41437V23.4485C7.41437 23.8005 7.19037 23.9995 6.90237 23.9995C6.63837 23.9995 6.35938 23.8005 6.35938 23.4485V18.9465ZM7.41437 19.4015V21.3935H8.74937C9.28537 21.3935 9.70937 20.9205 9.70937 20.4245C9.70937 19.8655 9.28537 19.4015 8.74937 19.4015H7.41437ZM12.2914 23.9995C12.0274 23.9995 11.7394 23.8555 11.7394 23.5045V18.9625C11.7394 18.6755 12.0274 18.4665 12.2914 18.4665H14.1224C17.7764 18.4665 17.6964 23.9995 14.1944 23.9995H12.2914ZM12.7954 19.4425V23.0245H14.1224C16.2814 23.0245 16.3774 19.4425 14.1224 19.4425H12.7954ZM18.9924 19.5065V20.7775H21.0314C21.3194 20.7775 21.6074 21.0655 21.6074 21.3445C21.6074 21.6085 21.3194 21.8245 21.0314 21.8245H18.9924V23.5035C18.9924 23.7835 18.7934 23.9985 18.5134 23.9985C18.1614 23.9985 17.9464 23.7835 17.9464 23.5035V18.9615C17.9464 18.6745 18.1624 18.4655 18.5134 18.4655H21.3204C21.6724 18.4655 21.8804 18.6745 21.8804 18.9615C21.8804 19.2175 21.6724 19.5055 21.3204 19.5055H18.9924V19.5065Z" fill="white"/>
<path d="M25 27H6V28H25C25.55 28 26 27.55 26 27V26C26 26.55 25.55 27 25 27Z" fill="#CAD1D8"/>
</svg>
