<svg width="24" height="24" viewBox="0 0 24 24" fill="none" xmlns="http://www.w3.org/2000/svg">
<path d="M17.4325 5.9508C17.6899 5.78784 17.9095 5.57186 18.0767 5.31727C18.2439 5.06269 18.3548 4.77535 18.4022 4.47446C18.4495 4.17357 18.432 3.86605 18.351 3.57243C18.27 3.27882 18.1273 3.00587 17.9324 2.77181C17.7374 2.53775 17.4948 2.34797 17.2207 2.21515C16.9466 2.08233 16.6474 2.00952 16.3429 2.00158C16.0384 1.99365 15.7357 2.05077 15.4551 2.16913C15.1744 2.28749 14.9222 2.46437 14.7154 2.68796C16.0048 3.38843 16.977 4.55595 17.4325 5.9508ZM6.56689 5.9508C7.02241 4.55595 7.99466 3.38843 9.28402 2.68796C9.07718 2.46437 8.82501 2.28749 8.54436 2.16913C8.26372 2.05077 7.96104 1.99365 7.65656 2.00158C7.35207 2.00952 7.05279 2.08233 6.77869 2.21515C6.50459 2.34797 6.26198 2.53775 6.06707 2.77181C5.87215 3.00587 5.72943 3.27882 5.64841 3.57243C5.5674 3.86605 5.54996 4.17357 5.59727 4.47446C5.64458 4.77535 5.75554 5.06269 5.92275 5.31727C6.08996 5.57186 6.30956 5.78784 6.56689 5.9508ZM18.519 11.809C18.0498 11.3288 17.4894 10.9473 16.8708 10.6868C16.7175 10.9392 16.5449 11.1793 16.3547 11.405C17.2264 12.6457 17.7897 14.0763 17.9979 15.5782C18.6265 15.7511 19.1854 15.6879 19.529 15.3443C20.2264 14.6468 19.7743 13.0643 18.519 11.809ZM6.00154 15.5782C6.20974 14.0763 6.77305 12.6457 7.64474 11.405C7.45451 11.1793 7.28197 10.9392 7.12867 10.6868C6.51002 10.9472 5.94965 11.3286 5.48047 11.8086C4.22512 13.064 3.77298 14.6468 4.47012 15.3443C4.81405 15.6879 5.37297 15.7514 6.00154 15.5782Z" fill="#FF5135"/>
<path d="M7 7.71445C7 8.70335 7.29324 9.67004 7.84265 10.4923C8.39205 11.3145 9.17294 11.9554 10.0866 12.3338C11.0002 12.7122 12.0055 12.8113 12.9754 12.6183C13.9453 12.4254 14.8362 11.9492 15.5355 11.25C16.2347 10.5507 16.7109 9.65979 16.9039 8.68989C17.0968 7.71999 16.9978 6.71466 16.6193 5.80104C16.2409 4.88742 15.6 4.10653 14.7778 3.55712C13.9556 3.00772 12.9889 2.71448 12 2.71448C10.6739 2.71448 9.40213 3.24126 8.46446 4.17893C7.52678 5.11661 7 6.38837 7 7.71445ZM14.5 6.64302C14.5706 6.64302 14.6396 6.66397 14.6984 6.70321C14.7571 6.74246 14.8029 6.79823 14.8299 6.86349C14.8569 6.92875 14.864 7.00056 14.8502 7.06984C14.8364 7.13912 14.8024 7.20275 14.7525 7.2527C14.7025 7.30265 14.6389 7.33666 14.5696 7.35044C14.5003 7.36422 14.4285 7.35715 14.3633 7.33012C14.298 7.30309 14.2422 7.25731 14.203 7.19858C14.1638 7.13985 14.1428 7.0708 14.1428 7.00016C14.1428 6.90544 14.1804 6.8146 14.2474 6.74763C14.3144 6.68065 14.4052 6.64302 14.5 6.64302ZM12 8.07159C12.4414 8.07159 13.7857 8.07159 13.7857 9.14301C13.7511 9.60512 13.5518 10.0395 13.2241 10.3672C12.8964 10.6948 12.4621 10.8941 12 10.9287C11.5379 10.8941 11.1035 10.6948 10.7758 10.3672C10.4481 10.0395 10.2489 9.60512 10.2143 9.14301C10.2143 8.07159 11.5585 8.07159 12 8.07159ZM9.49998 6.64302C9.57062 6.64302 9.63967 6.66397 9.6984 6.70321C9.75713 6.74246 9.80291 6.79823 9.82994 6.86349C9.85697 6.92875 9.86404 7.00056 9.85026 7.06984C9.83648 7.13912 9.80247 7.20275 9.75252 7.2527C9.70257 7.30265 9.63894 7.33666 9.56966 7.35044C9.50038 7.36422 9.42857 7.35715 9.36331 7.33012C9.29805 7.30309 9.24227 7.25731 9.20303 7.19858C9.16379 7.13985 9.14284 7.0708 9.14284 7.00016C9.14284 6.90544 9.18047 6.8146 9.24745 6.74763C9.31442 6.68065 9.40526 6.64302 9.49998 6.64302Z" fill="#FF5135"/>
<path d="M11.9992 10.2145C12.2725 10.1832 12.5273 10.0603 12.7219 9.86573C12.9164 9.67116 13.0393 9.41641 13.0706 9.14303C13.0706 9.03589 13.0706 8.78589 11.9992 8.78589C10.9277 8.78589 10.9277 9.03589 10.9277 9.14303C10.959 9.41641 11.0819 9.67116 11.2765 9.86573C11.471 10.0603 11.7258 10.1832 11.9992 10.2145Z" fill="#FF5135"/>
<path d="M16.6428 22C17.8263 22 18.7857 21.0407 18.7857 19.8572C18.7857 18.6737 17.8263 17.7144 16.6428 17.7144C15.4594 17.7144 14.5 18.6737 14.5 19.8572C14.5 21.0407 15.4594 22 16.6428 22Z" fill="#FF5135"/>
<path d="M16.6425 17.0001C16.8766 17.001 17.1097 17.0309 17.3364 17.089C17.3464 16.9426 17.3568 16.7965 17.3568 16.6429C17.33 14.955 16.8089 13.312 15.8579 11.9172C14.808 12.8889 13.4302 13.4287 11.9997 13.4287C10.5692 13.4287 9.19134 12.8889 8.1415 11.9172C7.19052 13.312 6.66938 14.955 6.64258 16.6429C6.64258 16.7965 6.65329 16.9426 6.66293 17.089C7.20822 16.9507 7.78225 16.9768 8.31271 17.1641C8.84318 17.3514 9.30637 17.6914 9.64393 18.1415C9.9815 18.5915 10.1783 19.1313 10.2097 19.693C10.241 20.2547 10.1055 20.8131 9.82006 21.2979C11.2368 21.7577 12.7626 21.7577 14.1793 21.2979C13.9241 20.8644 13.7882 20.371 13.7853 19.868C13.7824 19.3649 13.9126 18.8701 14.1627 18.4336C14.4129 17.9971 14.774 17.6346 15.2096 17.3829C15.6451 17.1311 16.1395 16.999 16.6425 17.0001Z" fill="#FF5135"/>
<path d="M7.35769 22C8.54115 22 9.50053 21.0407 9.50053 19.8572C9.50053 18.6737 8.54115 17.7144 7.35769 17.7144C6.17423 17.7144 5.21484 18.6737 5.21484 19.8572C5.21484 21.0407 6.17423 22 7.35769 22Z" fill="#FF5135"/>
</svg>
