<svg width="24" height="24" viewBox="0 0 24 24" fill="none" xmlns="http://www.w3.org/2000/svg">
<path d="M5.77391 15.8117H3.50608C3.50608 15.8117 2.35156 15.8099 2.35156 17.5691C2.40649 18.7053 3.29288 18.8868 3.45098 18.8868H8.06871C8.06871 18.8868 9.22537 18.8883 9.27642 17.5003C9.27834 17.4473 9.28261 17.4988 9.28323 17.4456C9.28555 17.2407 9.28323 16.1815 9.28323 16.1815C9.28599 16.0308 9.4011 15.8597 9.55626 15.8597H13.172C13.2252 15.8597 13.2712 15.9027 13.2761 15.9555L14.1302 17.8872C14.4488 18.6772 15.0683 19.2569 16.1032 18.8845C17.083 18.5318 17.1337 17.7555 16.9607 17.2102L14.8369 10.7725C14.5177 10.01 13.7126 9.56519 12.705 9.56519H7.72522C5.02969 9.56519 2.7685 12.7055 5.83008 15.7243C5.85176 15.7727 5.82688 15.8117 5.77391 15.8117Z" fill="#394CFF"/>
<path d="M18.3025 11.691C20.1502 11.691 21.648 10.1931 21.648 8.34548C21.648 6.49782 20.1502 5 18.3025 5C16.4549 5 14.957 6.49782 14.957 8.34548C14.957 10.1931 16.4549 11.691 18.3025 11.691Z" fill="#394CFF"/>
</svg>
