<svg width="24" height="24" viewBox="0 0 24 24" fill="none" xmlns="http://www.w3.org/2000/svg">
<path d="M7.88086 16.1134H14.9448V22H7.88086V16.1134ZM14.4343 13.4374L13.806 10.6692L12.4491 10.2478V12.5814C12.4491 13.2317 12.9762 13.7587 13.6265 13.7587C13.9393 13.7587 14.2235 13.6365 14.4343 13.4374Z" fill="#FE8D00"/>
<path d="M21.0743 9.06394L17.3281 5.05656L11.2568 3.39156C11.2568 3.39156 10.2664 3.17257 8.60113 2H2.58203V4.06161C3.51353 5.7774 3.58126 7.23834 3.63609 7.48821C3.71939 8.07129 3.98956 8.61163 4.40606 9.02811C4.80119 9.42327 5.06515 9.93045 5.16209 10.4808L5.622 12.8443C5.76579 13.477 6.38761 13.88 7.02391 13.7527C7.57725 13.6421 7.97845 13.1602 7.98602 12.5959C7.9976 11.7294 7.92692 10.0515 7.92692 10.0515C7.88167 9.19105 8.64842 8.05352 10.4244 8.38646L14.803 9.74619L15.6539 13.4953C15.9203 14.1614 16.6598 14.5043 17.3404 14.2775C18.0504 14.0408 18.434 13.3057 18.1974 12.5958L17.6889 9.51732C17.5837 8.9446 17.3192 8.41314 16.9257 7.98394L19.4095 10.7289C19.8692 11.1886 20.6146 11.1886 21.0744 10.7289V10.7288C21.5341 10.2692 21.5341 9.52372 21.0743 9.06394Z" fill="#FE8D00"/>
</svg>
