<svg width="24" height="24" viewBox="0 0 24 24" fill="none" xmlns="http://www.w3.org/2000/svg">
<path d="M11.9992 7.00012C8.79403 7.00012 5.88739 8.75371 3.74259 11.602C3.56757 11.8354 3.56757 12.1614 3.74259 12.3947C5.88739 15.2465 8.79403 17 11.9992 17C15.2044 17 18.111 15.2465 20.2558 12.3982C20.4309 12.1648 20.4309 11.8388 20.2558 11.6054C18.111 8.75371 15.2044 7.00012 11.9992 7.00012ZM12.2291 15.521C10.1015 15.6548 8.34448 13.9012 8.47831 11.7702C8.58813 10.0131 10.0123 8.58899 11.7693 8.47918C13.8969 8.34534 15.654 10.0989 15.5201 12.23C15.4069 13.9836 13.9827 15.4077 12.2291 15.521ZM12.1228 13.8944C10.9766 13.9664 10.0294 13.0227 10.1049 11.8765C10.1633 10.9294 10.932 10.1641 11.8791 10.1024C13.0253 10.0303 13.9724 10.974 13.8969 12.1202C13.8352 13.0708 13.0665 13.836 12.1228 13.8944Z" fill="#394CFF"/>
</svg>
