<svg width="28" height="28" viewBox="0 0 28 28" fill="currentColor" xmlns="http://www.w3.org/2000/svg">
    <path
        d="M8.56463 6.99926C10.0279 5.86378 11.8081 5.21268 13.6575 5.13554C13.7172 5.27328 13.7846 5.42164 13.8553 5.5774C14.1233 6.16756 14.4395 6.86386 14.5664 7.49029C14.649 7.89783 14.6464 8.2555 14.5127 8.52592C14.3833 8.78764 14.1201 8.98862 13.6301 9.06429C13.3774 9.06214 13.1355 8.96081 12.9567 8.78198C12.7761 8.60139 12.6745 8.35651 12.6743 8.10112L12.6752 8.10112L12.6734 8.08768C12.6584 7.97771 12.6855 7.87614 12.736 7.77296C12.7733 7.69669 12.8192 7.62679 12.8676 7.55301C12.8874 7.52282 12.9076 7.49199 12.9279 7.45981C12.9933 7.35581 13.0587 7.2373 13.0701 7.10707C13.0822 6.96874 13.0327 6.83376 12.9053 6.70005L12.8985 6.69293L12.8905 6.68727C12.6911 6.54672 12.4953 6.52611 12.3189 6.60146C12.1507 6.67324 12.0159 6.82554 11.9124 6.9973C11.7059 7.34015 11.5925 7.81428 11.5998 8.10226C11.5971 8.6428 11.8091 9.16232 12.1892 9.54673C12.5697 9.93151 13.0875 10.1494 13.6286 10.1525C14.1697 10.1555 14.6899 9.94347 15.0747 9.56299C15.4589 9.18303 15.6768 8.66617 15.6804 8.12584C15.7283 7.14694 15.2898 6.12978 14.8515 5.16516C16.589 5.33915 18.2387 6.01953 19.5948 7.12367C20.9952 8.26383 22.0165 9.80215 22.5238 11.5352C22.5562 11.647 22.6241 11.7453 22.7172 11.8152C22.8103 11.8852 22.9237 11.9231 23.0402 11.923V11.9231L23.0432 11.923C23.7607 11.9015 24.3011 12.1458 24.6675 12.5195C25.0354 12.8948 25.2334 13.4064 25.2527 13.9268C25.2721 14.4472 25.1128 14.9709 24.7733 15.3704C24.4376 15.7655 23.9204 16.0453 23.2082 16.0765C23.0696 16.0474 22.925 16.0687 22.8006 16.1369C22.6725 16.207 22.5748 16.3219 22.526 16.4595L22.5258 16.4594L22.5244 16.4642C19.9778 24.9612 8.0212 24.962 5.47544 16.4642L5.47556 16.4642L5.47387 16.4594C5.42494 16.3218 5.32706 16.207 5.19889 16.1369C5.07434 16.0689 4.92966 16.0477 4.79104 16.077C4.51586 16.0747 4.24384 16.0178 3.99074 15.9096C3.73427 15.8 3.50248 15.6399 3.30916 15.4389C3.11583 15.2378 2.96492 15 2.86541 14.7394C2.76589 14.4789 2.7198 14.201 2.72989 13.9222C2.73997 13.6435 2.80602 13.3696 2.9241 13.117C3.04218 12.8643 3.20988 12.6379 3.41723 12.4514C3.62457 12.2648 3.86732 12.1219 4.13104 12.0311C4.39475 11.9403 4.67404 11.9034 4.95228 11.9228L4.95226 11.923L4.95926 11.923C5.0757 11.9229 5.18897 11.8851 5.28202 11.8151C5.37499 11.7452 5.44277 11.647 5.47517 11.5353C6.00229 9.73595 7.08337 8.14869 8.56463 6.99926ZM23.4387 17.1411C27.2822 16.773 27.2914 11.2292 23.4387 10.8589C20.3692 1.83263 7.63081 1.83392 4.56116 10.8575C3.78248 10.9182 3.05307 11.2659 2.5154 11.8347C1.96216 12.4199 1.65391 13.1947 1.65391 14C1.65391 14.8053 1.96216 15.5801 2.5154 16.1654C3.05307 16.7341 3.78248 17.0819 4.56117 17.1425C7.63124 26.1665 20.3701 26.167 23.4387 17.1411Z"
        fill="currentColor" stroke="currentColor" strokeWidth="0.2" />
    <path
        d="M17.9462 13.7432L18.0402 13.7773C18.0889 13.6434 18.1776 13.5276 18.2943 13.4458C18.411 13.364 18.5501 13.3202 18.6926 13.3202C18.8351 13.3202 18.9742 13.364 19.0909 13.4458C19.2076 13.5276 19.2963 13.6434 19.345 13.7773L19.3451 13.7776C19.3935 13.9097 19.4917 14.0175 19.6188 14.078C19.7458 14.1385 19.8915 14.1467 20.0245 14.101C20.1575 14.0552 20.2674 13.9592 20.3304 13.8334C20.3934 13.7076 20.4045 13.5621 20.3615 13.4282L20.3615 13.4282L20.3609 13.4263C20.2413 13.0789 20.0163 12.7775 19.7172 12.5642C19.4182 12.3508 19.06 12.2362 18.6926 12.2362C18.3253 12.2362 17.9672 12.3508 17.6682 12.5641C17.3691 12.7773 17.1441 13.0785 17.0244 13.4258L17.0241 13.4267C16.9791 13.5611 16.9891 13.7078 17.0518 13.8349C17.1145 13.962 17.2249 14.0592 17.3589 14.1053C17.4929 14.1514 17.6397 14.1428 17.7673 14.0812C17.895 14.0197 17.9932 13.9102 18.0405 13.7766L17.9462 13.7432ZM17.9462 13.7432C17.9077 13.8519 17.8278 13.941 17.7239 13.9911C17.62 14.0413 17.5005 14.0483 17.3914 14.0108C17.2824 13.9732 17.1925 13.8941 17.1415 13.7906C17.0905 13.6872 17.0823 13.5678 17.1189 13.4584C17.2318 13.1308 17.4441 12.8467 17.7262 12.6455C18.0083 12.4443 18.3461 12.3362 18.6926 12.3362C19.0391 12.3362 19.377 12.4443 19.6592 12.6456C19.9413 12.8468 20.1535 13.1311 20.2663 13.4588C20.3013 13.5678 20.2922 13.6862 20.2409 13.7886C20.1897 13.891 20.1003 13.9692 19.992 14.0064C19.8837 14.0436 19.7651 14.0369 19.6617 13.9877C19.5584 13.9385 19.4784 13.8507 19.439 13.7432C19.3833 13.5899 19.2818 13.4575 19.1483 13.3639C19.0148 13.2704 18.8557 13.2202 18.6926 13.2202C18.5296 13.2202 18.3704 13.2704 18.2369 13.3639C18.1034 13.4575 18.0019 13.5899 17.9462 13.7432ZM16.0809 17.5526L16.006 17.4864C16.0528 17.4335 16.1095 17.3903 16.173 17.3593C16.2365 17.3283 16.3055 17.3101 16.3761 17.3058L16.0809 17.5526ZM16.0809 17.5526L16.006 17.4864C15.9593 17.5393 15.9235 17.6007 15.9006 17.6673C15.7607 18.0595 15.5029 18.3989 15.1626 18.6389C14.8222 18.8791 14.4157 19.008 13.9991 19.008C13.5825 19.008 13.1761 18.8791 12.8356 18.6389C12.4953 18.3989 12.2375 18.0595 12.0976 17.6673C12.0747 17.6008 12.0389 17.5394 11.9923 17.4866C11.9455 17.4337 11.8888 17.3905 11.8254 17.3595C11.7619 17.3285 11.693 17.3103 11.6226 17.306C11.5521 17.3016 11.4814 17.3112 11.4147 17.3341C11.3479 17.357 11.2863 17.3929 11.2334 17.4397C11.1805 17.4864 11.1373 17.5431 11.1063 17.6065C11.0753 17.67 11.0571 17.7389 11.0528 17.8094C11.0484 17.8798 11.058 17.9505 11.0809 18.0172L11.1755 17.9847M16.0809 17.5526L16.5841 17.3341C16.7189 17.3806 16.8295 17.4791 16.8919 17.6069C16.9543 17.7348 16.9635 17.8821 16.9175 18.0167C16.0071 20.7632 11.991 20.764 11.0806 18.0162L11.1755 17.9847M11.1755 17.9847C11.1568 17.9304 11.149 17.8729 11.1526 17.8155C11.1561 17.7582 11.1709 17.7021 11.1962 17.6504C11.2214 17.5988 11.2565 17.5526 11.2996 17.5146C11.3427 17.4765 11.3928 17.4474 11.4472 17.4287C11.5015 17.41 11.559 17.4022 11.6164 17.4058C11.6737 17.4093 11.7298 17.4241 11.7815 17.4494C11.8331 17.4746 11.8793 17.5097 11.9173 17.5528C11.9554 17.5959 11.9846 17.646 12.0032 17.7004L16.8021 17.6508C16.8529 17.755 16.8604 17.8751 16.8227 17.9847C15.9429 20.6404 12.0557 20.6412 11.1755 17.9847ZM9.30564 12.2362H9.30562C8.93832 12.2361 8.58016 12.3507 8.2811 12.564C7.98205 12.7772 7.75701 13.0785 7.63737 13.4258L7.63735 13.4258L7.63672 13.4278C7.59367 13.5617 7.60485 13.7072 7.66786 13.833C7.73087 13.9587 7.84067 14.0548 7.97371 14.1005C8.10676 14.1463 8.25242 14.138 8.37945 14.0776C8.50647 14.0171 8.60473 13.9092 8.65313 13.7771L8.65322 13.7769C8.7019 13.643 8.79065 13.5272 8.90739 13.4455C9.02413 13.3637 9.16321 13.3199 9.30573 13.3199C9.44825 13.32 9.58731 13.3639 9.704 13.4457C9.8207 13.5275 9.90937 13.6433 9.95798 13.7773L9.95797 13.7773L9.95853 13.7788C10.0082 13.9092 10.1066 14.0152 10.233 14.0744C10.3595 14.1335 10.5039 14.1412 10.6359 14.0957C10.7679 14.0503 10.877 13.9553 10.9402 13.8308C11.0033 13.7064 11.0156 13.5622 10.9744 13.4288L10.9745 13.4288L10.9734 13.4258C10.8537 13.0786 10.6288 12.7774 10.3298 12.5642C10.0309 12.351 9.67284 12.2363 9.30564 12.2362Z"
        fill="currentColor" stroke="currentColor" strokeWidth="0.2" />
</svg>