<svg width="17" height="16" viewBox="0 0 17 16" fill="none" xmlns="http://www.w3.org/2000/svg">
    <path
        d="M12.334 2.5H11.5007V2C11.5007 1.724 11.2767 1.5 11.0007 1.5C10.7247 1.5 10.5007 1.724 10.5007 2V2.5H6.16732V2C6.16732 1.724 5.94332 1.5 5.66732 1.5C5.39132 1.5 5.16732 1.724 5.16732 2V2.5H4.33398C2.72198 2.5 1.83398 3.388 1.83398 5V12C1.83398 13.612 2.72198 14.5 4.33398 14.5H12.334C13.946 14.5 14.834 13.612 14.834 12V5C14.834 3.388 13.946 2.5 12.334 2.5ZM4.33398 3.5H5.16732V4C5.16732 4.276 5.39132 4.5 5.66732 4.5C5.94332 4.5 6.16732 4.276 6.16732 4V3.5H10.5007V4C10.5007 4.276 10.7247 4.5 11.0007 4.5C11.2767 4.5 11.5007 4.276 11.5007 4V3.5H12.334C13.3853 3.5 13.834 3.94867 13.834 5V5.5H2.83398V5C2.83398 3.94867 3.28265 3.5 4.33398 3.5ZM12.334 13.5H4.33398C3.28265 13.5 2.83398 13.0513 2.83398 12V6.5H13.834V12C13.834 13.0513 13.3853 13.5 12.334 13.5ZM6.34733 8.66667C6.34733 9.03467 6.04933 9.33333 5.68066 9.33333C5.31266 9.33333 5.01058 9.03467 5.01058 8.66667C5.01058 8.29867 5.30599 8 5.67399 8H5.68066C6.04866 8 6.34733 8.29867 6.34733 8.66667ZM9.014 8.66667C9.014 9.03467 8.716 9.33333 8.34733 9.33333C7.97933 9.33333 7.67725 9.03467 7.67725 8.66667C7.67725 8.29867 7.97266 8 8.34066 8H8.34733C8.71533 8 9.014 8.29867 9.014 8.66667ZM11.6807 8.66667C11.6807 9.03467 11.3827 9.33333 11.014 9.33333C10.646 9.33333 10.3439 9.03467 10.3439 8.66667C10.3439 8.29867 10.6393 8 11.0073 8H11.014C11.382 8 11.6807 8.29867 11.6807 8.66667ZM6.34733 11.3333C6.34733 11.7013 6.04933 12 5.68066 12C5.31266 12 5.01058 11.7013 5.01058 11.3333C5.01058 10.9653 5.30599 10.6667 5.67399 10.6667H5.68066C6.04866 10.6667 6.34733 10.9653 6.34733 11.3333ZM9.014 11.3333C9.014 11.7013 8.716 12 8.34733 12C7.97933 12 7.67725 11.7013 7.67725 11.3333C7.67725 10.9653 7.97266 10.6667 8.34066 10.6667H8.34733C8.71533 10.6667 9.014 10.9653 9.014 11.3333ZM11.6807 11.3333C11.6807 11.7013 11.3827 12 11.014 12C10.646 12 10.3439 11.7013 10.3439 11.3333C10.3439 10.9653 10.6393 10.6667 11.0073 10.6667H11.014C11.382 10.6667 11.6807 10.9653 11.6807 11.3333Z"
        fill="#83868B" />
</svg>