<svg width="29" height="28" viewBox="0 0 29 28" fill="currentColor" xmlns="http://www.w3.org/2000/svg">
    <path
        d="M12.5968 17.6668L12.5968 17.6668C12.7365 18.0596 12.9943 18.3994 13.3349 18.6398C13.6755 18.8801 14.0821 19.0092 14.4989 19.0092C14.9157 19.0092 15.3224 18.8801 15.6629 18.6398C16.0033 18.3996 16.2611 18.0599 16.4008 17.6674C16.4236 17.6008 16.4593 17.5394 16.5059 17.4866C16.5526 17.4336 16.6093 17.3904 16.6727 17.3593C16.7361 17.3283 16.8051 17.3101 16.8756 17.3058L12.5968 17.6668ZM12.5968 17.6668L12.5965 17.6659M12.5968 17.6668L12.5965 17.6659M12.5965 17.6659C12.5481 17.5339 12.4498 17.426 12.3228 17.3655C12.1958 17.3051 12.0501 17.2968 11.9171 17.3426C11.784 17.3883 11.6742 17.4844 11.6112 17.6101C11.5482 17.7359 11.537 17.8814 11.5801 18.0153L11.5801 18.0153M12.5965 17.6659L11.5801 18.0153M11.5801 18.0153L11.5804 18.0162M11.5801 18.0153L11.5804 18.0162M11.5804 18.0162C12.4904 20.7634 16.5073 20.7637 17.4169 18.0167C17.4629 17.8821 17.4537 17.7347 17.3913 17.6069C17.3289 17.4791 17.2183 17.3806 17.0835 17.3341L11.5804 18.0162Z"
        fill="currentColor" stroke="currentColor" strokeWidth="0.2" />
    <path
        d="M19.2122 4.44221L19.2122 7.76847C19.2122 7.76857 19.2122 7.76866 19.2122 7.76875C19.2115 7.87404 19.1843 7.97747 19.1332 8.06953C19.082 8.16168 19.0086 8.2395 18.9195 8.29584C18.8304 8.35217 18.7286 8.38522 18.6234 8.39194C18.5184 8.39866 18.4133 8.37889 18.3179 8.33446C18.3178 8.33441 18.3177 8.33436 18.3176 8.33431L16.3834 7.41628V4.79479L18.3175 3.8768C18.3176 3.87675 18.3177 3.8767 18.3178 3.87665C18.4133 3.83232 18.5183 3.81263 18.6233 3.8194C18.7285 3.82617 18.8302 3.85923 18.9193 3.91555C19.0083 3.97187 19.0818 4.04965 19.133 4.14175C19.1841 4.23371 19.2113 4.33701 19.2122 4.44221ZM19.2122 4.44221V4.44194H19.3122L19.2122 4.44269C19.2122 4.44253 19.2122 4.44237 19.2122 4.44221ZM23.9366 12.1644C23.2543 10.1807 21.9807 8.45342 20.2872 7.21509L20.2872 4.44194L20.2872 4.44095C20.2843 4.15516 20.2099 3.87463 20.0708 3.62499C19.9317 3.37535 19.7322 3.16455 19.4906 3.01183L19.4372 3.09635L19.4906 3.01183C19.249 2.85911 18.973 2.76934 18.6878 2.75072C18.4026 2.73211 18.1173 2.78523 17.8579 2.90525L17.8579 2.90524L17.8571 2.90566L15.7249 3.91757H13.274L11.1423 2.90566L11.1423 2.90565C10.883 2.78274 10.5969 2.72738 10.3106 2.74473C10.0242 2.76207 9.74687 2.85156 9.50437 3.00486C9.26187 3.15816 9.06208 3.3703 8.92357 3.62155C8.78507 3.8728 8.71235 4.15499 8.71219 4.44188V4.44194V7.22583C7.0068 8.44721 5.72982 10.175 5.06259 12.1634C4.28283 12.2232 3.55213 12.5707 3.01339 13.1399C2.45897 13.7256 2.15 14.5014 2.15 15.3079C2.15 16.1144 2.45897 16.8902 3.01339 17.476C3.55208 18.045 4.28271 18.3926 5.06239 18.4524C5.71741 20.4229 6.97308 22.1396 8.65391 23.3608C10.353 24.5954 12.3994 25.2603 14.4997 25.2603C16.6 25.2603 18.6463 24.5954 20.3455 23.3608C22.0267 22.1393 23.2826 20.422 23.9375 18.4509C27.7841 18.0801 27.7911 12.5356 23.9366 12.1644ZM5.97695 12.8415C6.477 11.1235 7.48287 9.59722 8.86197 8.46058C8.94037 8.63441 9.04747 8.7942 9.17909 8.9331C9.34276 9.10583 9.54071 9.24245 9.76027 9.3342C9.97983 9.42595 10.2161 9.47081 10.454 9.46589C10.6919 9.46098 10.9262 9.4064 11.1418 9.30566L11.1423 9.30541L13.2745 8.2935H15.7249L17.8571 9.30541L17.8576 9.30566C18.0732 9.4064 18.3074 9.46098 18.5453 9.46589C18.7832 9.47081 19.0196 9.42595 19.2391 9.3342C19.4587 9.24245 19.6566 9.10583 19.8203 8.9331C19.9517 8.7944 20.0587 8.63488 20.1371 8.46134C21.5083 9.60495 22.5125 11.1284 23.0226 12.8416L23.0225 12.8416L23.0243 12.8467C23.0733 12.9841 23.1711 13.0987 23.2991 13.1687C23.423 13.2365 23.567 13.2579 23.7051 13.2293C26.4361 13.3255 26.4401 17.2871 23.7051 17.3861C23.5669 17.3574 23.4229 17.3788 23.2988 17.4468C23.1708 17.5169 23.073 17.6317 23.0242 17.7693L23.0241 17.7693L23.0226 17.7741C20.4778 26.2671 8.52162 26.268 5.97673 17.7741L5.97685 17.774L5.97518 17.7693C5.92636 17.6317 5.8286 17.5169 5.70055 17.4468C5.57603 17.3786 5.43134 17.3572 5.29267 17.3864C4.74524 17.3836 4.22084 17.1649 3.83354 16.7776C3.4437 16.3877 3.22469 15.859 3.22469 15.3077C3.22469 14.7564 3.4437 14.2276 3.83354 13.8378C4.22084 13.4505 4.74522 13.2318 5.29264 13.229C5.43117 13.2582 5.57574 13.237 5.70023 13.169C5.82826 13.0991 5.9261 12.9845 5.97512 12.8471L5.97529 12.8472L5.97695 12.8415ZM15.3084 7.2185H13.6906V4.99257H15.3084V7.2185ZM9.78719 7.76938V4.44232C9.78804 4.33709 9.81527 4.23375 9.86638 4.14175C9.91756 4.04965 9.99104 3.97187 10.0801 3.91555C10.1691 3.85923 10.2709 3.82617 10.376 3.8194C10.4811 3.81263 10.5861 3.83231 10.6815 3.87663C10.6816 3.87669 10.6818 3.87674 10.6819 3.8768L12.6156 4.79436V7.41628L10.6817 8.33414C10.6817 8.33415 10.6816 8.33416 10.6816 8.33416C10.5863 8.37935 10.481 8.39971 10.3757 8.39336C10.2704 8.387 10.1683 8.35412 10.0791 8.29778C9.98986 8.24143 9.91631 8.16345 9.86527 8.07108C9.81424 7.9787 9.78738 7.87492 9.78719 7.76938Z"
        fill="currentColor" stroke="currentColor" strokeWidth="0.2" />
    <path
        d="M9.80564 13.5439H9.80562C9.43832 13.5438 9.08016 13.6584 8.7811 13.8717C8.48205 14.0849 8.25701 14.3862 8.13737 14.7335L8.13735 14.7335L8.13672 14.7354C8.09367 14.8694 8.10485 15.0149 8.16786 15.1406C8.23087 15.2664 8.34067 15.3625 8.47371 15.4082C8.60676 15.454 8.75242 15.4457 8.87945 15.3852C9.00647 15.3248 9.10473 15.2169 9.15313 15.0848L9.15322 15.0846C9.2019 14.9506 9.29065 14.8349 9.40739 14.7532C9.52413 14.6714 9.66321 14.6276 9.80573 14.6276C9.94825 14.6277 10.0873 14.6716 10.204 14.7534C10.3207 14.8352 10.4094 14.951 10.458 15.085L10.458 15.085L10.4585 15.0864C10.5082 15.2169 10.6066 15.3229 10.733 15.382C10.8595 15.4412 11.0039 15.4489 11.1359 15.4034C11.2679 15.358 11.377 15.2629 11.4402 15.1385C11.5033 15.014 11.5156 14.8699 11.4744 14.7365L11.4745 14.7365L11.4734 14.7335C11.3537 14.3863 11.1288 14.0851 10.8298 13.8719C10.5309 13.6587 10.1728 13.544 9.80564 13.5439ZM19.8455 15.0851L19.8454 15.0851L19.846 15.0864C19.8956 15.2169 19.9941 15.3229 20.1205 15.382C20.2469 15.4412 20.3914 15.4489 20.5233 15.4034C20.6553 15.358 20.7644 15.2629 20.8276 15.1385C20.8908 15.014 20.903 14.8699 20.8618 14.7365L20.8619 14.7365L20.8608 14.7335C20.7412 14.3863 20.5162 14.0851 20.2172 13.8719C19.9183 13.6587 19.5603 13.544 19.1931 13.5439C18.8257 13.5437 18.4674 13.6583 18.1683 13.8717C17.8697 14.0847 17.6449 14.3856 17.5254 14.7323C17.4998 14.7992 17.4879 14.8705 17.4904 14.9421C17.4928 15.0143 17.5098 15.0853 17.5403 15.1508C17.5708 15.2163 17.6142 15.2749 17.6679 15.3233L17.7348 15.249L17.6679 15.3233C17.7216 15.3716 17.7844 15.4087 17.8528 15.4322C17.9211 15.4557 17.9934 15.4651 18.0655 15.46C18.1376 15.4549 18.2079 15.4354 18.2722 15.4025C18.3365 15.3696 18.3936 15.3241 18.4399 15.2686L18.3632 15.2045L18.4399 15.2686C18.4856 15.214 18.52 15.1508 18.5411 15.0827C18.59 14.9498 18.6784 14.835 18.7945 14.7537C18.9112 14.6719 19.0503 14.6281 19.1928 14.6281C19.3354 14.6281 19.4744 14.6719 19.5912 14.7537C19.7079 14.8354 19.7967 14.9511 19.8455 15.0851Z"
        fill="currentColor" stroke="currentColor" strokeWidth="0.2" />
</svg>