<svg width="16" height="16" viewBox="0 0 16 16" fill="none" xmlns="http://www.w3.org/2000/svg">
    <g clipPath="url(#clip0_19647_1067)">
        <mask id="path-1-outside-1_19647_1067" maskUnits="userSpaceOnUse" x="-0.505859" y="-0.51947" width="17"
            height="17" fill="black">
            <rect fill="white" x="-0.505859" y="-0.51947" width="17" height="17" />
            <path
                d="M15.42 3.43678L12.556 0.574381C12.5263 0.544629 12.491 0.521026 12.4521 0.504922C12.4133 0.488819 12.3716 0.48053 12.3296 0.48053C12.2875 0.48053 12.2459 0.488819 12.2071 0.504922C12.1682 0.521026 12.1329 0.544629 12.1032 0.574381L11.0408 1.63198L7.90639 4.77118L4.76879 7.90878L1.63439 11.04L0.587992 12.0896C0.55824 12.1193 0.534637 12.1546 0.518533 12.1934C0.502429 12.2323 0.494141 12.2739 0.494141 12.316C0.494141 12.358 0.502429 12.3997 0.518533 12.4385C0.534637 12.4774 0.55824 12.5127 0.587992 12.5424L3.45039 15.4048C3.48011 15.4345 3.5154 15.4581 3.55425 15.4742C3.5931 15.4903 3.63474 15.4986 3.67679 15.4986C3.71885 15.4986 3.76049 15.4903 3.79933 15.4742C3.83818 15.4581 3.87347 15.4345 3.90319 15.4048L15.4232 3.88478C15.4837 3.82635 15.5188 3.74646 15.5208 3.66238C15.5198 3.61997 15.5104 3.57819 15.493 3.53946C15.4757 3.50073 15.4509 3.46583 15.42 3.43678ZM3.68079 14.72L1.26639 12.32L1.85999 11.7248L2.80399 12.6704C2.83389 12.7 2.86935 12.7235 2.90834 12.7394C2.94733 12.7554 2.98908 12.7634 3.03119 12.7632C3.1157 12.7632 3.1968 12.7299 3.25679 12.6704C3.28655 12.6407 3.31015 12.6054 3.32625 12.5665C3.34236 12.5277 3.35064 12.486 3.35064 12.444C3.35064 12.4019 3.34236 12.3603 3.32625 12.3214C3.31015 12.2826 3.28655 12.2473 3.25679 12.2176L2.31279 11.2736L2.90799 10.6784L3.51119 11.2816C3.57119 11.3411 3.65229 11.3744 3.73679 11.3744C3.80002 11.3744 3.86185 11.3557 3.91447 11.3207C3.96709 11.2856 4.00815 11.2358 4.03246 11.1774C4.05676 11.119 4.06323 11.0548 4.05105 10.9927C4.03886 10.9307 4.00857 10.8736 3.96399 10.8288L3.36079 10.2224L3.95919 9.62398L4.90319 10.568C4.93309 10.5976 4.96855 10.6211 5.00754 10.637C5.04653 10.653 5.08828 10.661 5.13039 10.6608C5.2149 10.6608 5.296 10.6275 5.35599 10.568C5.38575 10.5383 5.40935 10.503 5.42545 10.4641C5.44156 10.4253 5.44984 10.3836 5.44984 10.3416C5.44984 10.2995 5.44156 10.2579 5.42545 10.219C5.40935 10.1802 5.38575 10.1449 5.35599 10.1152L4.41199 9.17118L4.99439 8.58878L5.60079 9.19198C5.66079 9.25149 5.74189 9.28485 5.82639 9.28478C5.88962 9.28483 5.95145 9.26615 6.00407 9.23109C6.05669 9.19603 6.09775 9.14617 6.12206 9.0878C6.14636 9.02942 6.15283 8.96516 6.14065 8.90311C6.12846 8.84107 6.09817 8.78402 6.05359 8.73918L5.44079 8.13598L6.03919 7.53758L6.98319 8.48158C7.01309 8.51124 7.04855 8.5347 7.08754 8.55063C7.12653 8.56655 7.16828 8.57462 7.21039 8.57438C7.25342 8.57506 7.29615 8.56704 7.33601 8.55082C7.37588 8.5346 7.41206 8.51051 7.44239 8.47998C7.47215 8.45026 7.49575 8.41497 7.51185 8.37612C7.52796 8.33727 7.53624 8.29563 7.53624 8.25358C7.53624 8.21153 7.52796 8.16989 7.51185 8.13104C7.49575 8.09219 7.47215 8.0569 7.44239 8.02718L6.49839 7.08318L7.08079 6.50078L7.68079 7.10558C7.74079 7.16509 7.82189 7.19845 7.90639 7.19838C7.96962 7.19843 8.03145 7.17975 8.08407 7.14469C8.13669 7.10963 8.17775 7.05977 8.20206 7.0014C8.22636 6.94302 8.23283 6.87876 8.22065 6.81671C8.20846 6.75467 8.17817 6.69762 8.13359 6.65278L7.53039 6.04958L8.12879 5.45118L9.07279 6.39518C9.10269 6.42484 9.13815 6.4483 9.17714 6.46423C9.21613 6.48015 9.25788 6.48822 9.29999 6.48798C9.34204 6.48907 9.38389 6.48186 9.42315 6.46676C9.46241 6.45166 9.49831 6.42897 9.52879 6.39998C9.55855 6.37026 9.58215 6.33497 9.59825 6.29612C9.61436 6.25727 9.62264 6.21563 9.62264 6.17358C9.62264 6.13153 9.61436 6.08989 9.59825 6.05104C9.58215 6.01219 9.55855 5.9769 9.52879 5.94718L8.58479 5.00318L9.16719 4.42078L9.77039 5.02398C9.83039 5.08349 9.91149 5.11685 9.99599 5.11678C10.0592 5.11683 10.1211 5.09815 10.1737 5.06309C10.2263 5.02803 10.2674 4.97817 10.2917 4.9198C10.316 4.86142 10.3224 4.79716 10.3102 4.73511C10.2981 4.67307 10.2678 4.61602 10.2232 4.57118L9.61999 3.96798L10.2408 3.34558L11.1848 4.28958C11.2463 4.33844 11.3236 4.36296 11.4021 4.35847C11.4805 4.35399 11.5545 4.32081 11.6101 4.26527C11.6656 4.20972 11.6988 4.13568 11.7033 4.05726C11.7078 3.97883 11.6832 3.9015 11.6344 3.83998L10.6904 2.89598L11.2712 2.31358L11.8744 2.91678C11.9042 2.94673 11.9396 2.97049 11.9786 2.98669C12.0176 3.00289 12.0594 3.01121 12.1016 3.01118C12.1651 3.01061 12.2271 2.99114 12.2795 2.95524C12.332 2.91933 12.3725 2.86863 12.396 2.80959C12.4195 2.75055 12.4249 2.68585 12.4115 2.62373C12.3981 2.56161 12.3666 2.50488 12.3208 2.46078L11.7176 1.85758L12.324 1.25278L14.74 3.66238L3.68079 14.72Z" />
        </mask>
        <path
            d="M15.42 3.43678L12.556 0.574381C12.5263 0.544629 12.491 0.521026 12.4521 0.504922C12.4133 0.488819 12.3716 0.48053 12.3296 0.48053C12.2875 0.48053 12.2459 0.488819 12.2071 0.504922C12.1682 0.521026 12.1329 0.544629 12.1032 0.574381L11.0408 1.63198L7.90639 4.77118L4.76879 7.90878L1.63439 11.04L0.587992 12.0896C0.55824 12.1193 0.534637 12.1546 0.518533 12.1934C0.502429 12.2323 0.494141 12.2739 0.494141 12.316C0.494141 12.358 0.502429 12.3997 0.518533 12.4385C0.534637 12.4774 0.55824 12.5127 0.587992 12.5424L3.45039 15.4048C3.48011 15.4345 3.5154 15.4581 3.55425 15.4742C3.5931 15.4903 3.63474 15.4986 3.67679 15.4986C3.71885 15.4986 3.76049 15.4903 3.79933 15.4742C3.83818 15.4581 3.87347 15.4345 3.90319 15.4048L15.4232 3.88478C15.4837 3.82635 15.5188 3.74646 15.5208 3.66238C15.5198 3.61997 15.5104 3.57819 15.493 3.53946C15.4757 3.50073 15.4509 3.46583 15.42 3.43678ZM3.68079 14.72L1.26639 12.32L1.85999 11.7248L2.80399 12.6704C2.83389 12.7 2.86935 12.7235 2.90834 12.7394C2.94733 12.7554 2.98908 12.7634 3.03119 12.7632C3.1157 12.7632 3.1968 12.7299 3.25679 12.6704C3.28655 12.6407 3.31015 12.6054 3.32625 12.5665C3.34236 12.5277 3.35064 12.486 3.35064 12.444C3.35064 12.4019 3.34236 12.3603 3.32625 12.3214C3.31015 12.2826 3.28655 12.2473 3.25679 12.2176L2.31279 11.2736L2.90799 10.6784L3.51119 11.2816C3.57119 11.3411 3.65229 11.3744 3.73679 11.3744C3.80002 11.3744 3.86185 11.3557 3.91447 11.3207C3.96709 11.2856 4.00815 11.2358 4.03246 11.1774C4.05676 11.119 4.06323 11.0548 4.05105 10.9927C4.03886 10.9307 4.00857 10.8736 3.96399 10.8288L3.36079 10.2224L3.95919 9.62398L4.90319 10.568C4.93309 10.5976 4.96855 10.6211 5.00754 10.637C5.04653 10.653 5.08828 10.661 5.13039 10.6608C5.2149 10.6608 5.296 10.6275 5.35599 10.568C5.38575 10.5383 5.40935 10.503 5.42545 10.4641C5.44156 10.4253 5.44984 10.3836 5.44984 10.3416C5.44984 10.2995 5.44156 10.2579 5.42545 10.219C5.40935 10.1802 5.38575 10.1449 5.35599 10.1152L4.41199 9.17118L4.99439 8.58878L5.60079 9.19198C5.66079 9.25149 5.74189 9.28485 5.82639 9.28478C5.88962 9.28483 5.95145 9.26615 6.00407 9.23109C6.05669 9.19603 6.09775 9.14617 6.12206 9.0878C6.14636 9.02942 6.15283 8.96516 6.14065 8.90311C6.12846 8.84107 6.09817 8.78402 6.05359 8.73918L5.44079 8.13598L6.03919 7.53758L6.98319 8.48158C7.01309 8.51124 7.04855 8.5347 7.08754 8.55063C7.12653 8.56655 7.16828 8.57462 7.21039 8.57438C7.25342 8.57506 7.29615 8.56704 7.33601 8.55082C7.37588 8.5346 7.41206 8.51051 7.44239 8.47998C7.47215 8.45026 7.49575 8.41497 7.51185 8.37612C7.52796 8.33727 7.53624 8.29563 7.53624 8.25358C7.53624 8.21153 7.52796 8.16989 7.51185 8.13104C7.49575 8.09219 7.47215 8.0569 7.44239 8.02718L6.49839 7.08318L7.08079 6.50078L7.68079 7.10558C7.74079 7.16509 7.82189 7.19845 7.90639 7.19838C7.96962 7.19843 8.03145 7.17975 8.08407 7.14469C8.13669 7.10963 8.17775 7.05977 8.20206 7.0014C8.22636 6.94302 8.23283 6.87876 8.22065 6.81671C8.20846 6.75467 8.17817 6.69762 8.13359 6.65278L7.53039 6.04958L8.12879 5.45118L9.07279 6.39518C9.10269 6.42484 9.13815 6.4483 9.17714 6.46423C9.21613 6.48015 9.25788 6.48822 9.29999 6.48798C9.34204 6.48907 9.38389 6.48186 9.42315 6.46676C9.46241 6.45166 9.49831 6.42897 9.52879 6.39998C9.55855 6.37026 9.58215 6.33497 9.59825 6.29612C9.61436 6.25727 9.62264 6.21563 9.62264 6.17358C9.62264 6.13153 9.61436 6.08989 9.59825 6.05104C9.58215 6.01219 9.55855 5.9769 9.52879 5.94718L8.58479 5.00318L9.16719 4.42078L9.77039 5.02398C9.83039 5.08349 9.91149 5.11685 9.99599 5.11678C10.0592 5.11683 10.1211 5.09815 10.1737 5.06309C10.2263 5.02803 10.2674 4.97817 10.2917 4.9198C10.316 4.86142 10.3224 4.79716 10.3102 4.73511C10.2981 4.67307 10.2678 4.61602 10.2232 4.57118L9.61999 3.96798L10.2408 3.34558L11.1848 4.28958C11.2463 4.33844 11.3236 4.36296 11.4021 4.35847C11.4805 4.35399 11.5545 4.32081 11.6101 4.26527C11.6656 4.20972 11.6988 4.13568 11.7033 4.05726C11.7078 3.97883 11.6832 3.9015 11.6344 3.83998L10.6904 2.89598L11.2712 2.31358L11.8744 2.91678C11.9042 2.94673 11.9396 2.97049 11.9786 2.98669C12.0176 3.00289 12.0594 3.01121 12.1016 3.01118C12.1651 3.01061 12.2271 2.99114 12.2795 2.95524C12.332 2.91933 12.3725 2.86863 12.396 2.80959C12.4195 2.75055 12.4249 2.68585 12.4115 2.62373C12.3981 2.56161 12.3666 2.50488 12.3208 2.46078L11.7176 1.85758L12.324 1.25278L14.74 3.66238L3.68079 14.72Z"
            fill="#83868B" />
        <path
            d="M15.42 3.43678L12.556 0.574381C12.5263 0.544629 12.491 0.521026 12.4521 0.504922C12.4133 0.488819 12.3716 0.48053 12.3296 0.48053C12.2875 0.48053 12.2459 0.488819 12.2071 0.504922C12.1682 0.521026 12.1329 0.544629 12.1032 0.574381L11.0408 1.63198L7.90639 4.77118L4.76879 7.90878L1.63439 11.04L0.587992 12.0896C0.55824 12.1193 0.534637 12.1546 0.518533 12.1934C0.502429 12.2323 0.494141 12.2739 0.494141 12.316C0.494141 12.358 0.502429 12.3997 0.518533 12.4385C0.534637 12.4774 0.55824 12.5127 0.587992 12.5424L3.45039 15.4048C3.48011 15.4345 3.5154 15.4581 3.55425 15.4742C3.5931 15.4903 3.63474 15.4986 3.67679 15.4986C3.71885 15.4986 3.76049 15.4903 3.79933 15.4742C3.83818 15.4581 3.87347 15.4345 3.90319 15.4048L15.4232 3.88478C15.4837 3.82635 15.5188 3.74646 15.5208 3.66238C15.5198 3.61997 15.5104 3.57819 15.493 3.53946C15.4757 3.50073 15.4509 3.46583 15.42 3.43678ZM3.68079 14.72L1.26639 12.32L1.85999 11.7248L2.80399 12.6704C2.83389 12.7 2.86935 12.7235 2.90834 12.7394C2.94733 12.7554 2.98908 12.7634 3.03119 12.7632C3.1157 12.7632 3.1968 12.7299 3.25679 12.6704C3.28655 12.6407 3.31015 12.6054 3.32625 12.5665C3.34236 12.5277 3.35064 12.486 3.35064 12.444C3.35064 12.4019 3.34236 12.3603 3.32625 12.3214C3.31015 12.2826 3.28655 12.2473 3.25679 12.2176L2.31279 11.2736L2.90799 10.6784L3.51119 11.2816C3.57119 11.3411 3.65229 11.3744 3.73679 11.3744C3.80002 11.3744 3.86185 11.3557 3.91447 11.3207C3.96709 11.2856 4.00815 11.2358 4.03246 11.1774C4.05676 11.119 4.06323 11.0548 4.05105 10.9927C4.03886 10.9307 4.00857 10.8736 3.96399 10.8288L3.36079 10.2224L3.95919 9.62398L4.90319 10.568C4.93309 10.5976 4.96855 10.6211 5.00754 10.637C5.04653 10.653 5.08828 10.661 5.13039 10.6608C5.2149 10.6608 5.296 10.6275 5.35599 10.568C5.38575 10.5383 5.40935 10.503 5.42545 10.4641C5.44156 10.4253 5.44984 10.3836 5.44984 10.3416C5.44984 10.2995 5.44156 10.2579 5.42545 10.219C5.40935 10.1802 5.38575 10.1449 5.35599 10.1152L4.41199 9.17118L4.99439 8.58878L5.60079 9.19198C5.66079 9.25149 5.74189 9.28485 5.82639 9.28478C5.88962 9.28483 5.95145 9.26615 6.00407 9.23109C6.05669 9.19603 6.09775 9.14617 6.12206 9.0878C6.14636 9.02942 6.15283 8.96516 6.14065 8.90311C6.12846 8.84107 6.09817 8.78402 6.05359 8.73918L5.44079 8.13598L6.03919 7.53758L6.98319 8.48158C7.01309 8.51124 7.04855 8.5347 7.08754 8.55063C7.12653 8.56655 7.16828 8.57462 7.21039 8.57438C7.25342 8.57506 7.29615 8.56704 7.33601 8.55082C7.37588 8.5346 7.41206 8.51051 7.44239 8.47998C7.47215 8.45026 7.49575 8.41497 7.51185 8.37612C7.52796 8.33727 7.53624 8.29563 7.53624 8.25358C7.53624 8.21153 7.52796 8.16989 7.51185 8.13104C7.49575 8.09219 7.47215 8.0569 7.44239 8.02718L6.49839 7.08318L7.08079 6.50078L7.68079 7.10558C7.74079 7.16509 7.82189 7.19845 7.90639 7.19838C7.96962 7.19843 8.03145 7.17975 8.08407 7.14469C8.13669 7.10963 8.17775 7.05977 8.20206 7.0014C8.22636 6.94302 8.23283 6.87876 8.22065 6.81671C8.20846 6.75467 8.17817 6.69762 8.13359 6.65278L7.53039 6.04958L8.12879 5.45118L9.07279 6.39518C9.10269 6.42484 9.13815 6.4483 9.17714 6.46423C9.21613 6.48015 9.25788 6.48822 9.29999 6.48798C9.34204 6.48907 9.38389 6.48186 9.42315 6.46676C9.46241 6.45166 9.49831 6.42897 9.52879 6.39998C9.55855 6.37026 9.58215 6.33497 9.59825 6.29612C9.61436 6.25727 9.62264 6.21563 9.62264 6.17358C9.62264 6.13153 9.61436 6.08989 9.59825 6.05104C9.58215 6.01219 9.55855 5.9769 9.52879 5.94718L8.58479 5.00318L9.16719 4.42078L9.77039 5.02398C9.83039 5.08349 9.91149 5.11685 9.99599 5.11678C10.0592 5.11683 10.1211 5.09815 10.1737 5.06309C10.2263 5.02803 10.2674 4.97817 10.2917 4.9198C10.316 4.86142 10.3224 4.79716 10.3102 4.73511C10.2981 4.67307 10.2678 4.61602 10.2232 4.57118L9.61999 3.96798L10.2408 3.34558L11.1848 4.28958C11.2463 4.33844 11.3236 4.36296 11.4021 4.35847C11.4805 4.35399 11.5545 4.32081 11.6101 4.26527C11.6656 4.20972 11.6988 4.13568 11.7033 4.05726C11.7078 3.97883 11.6832 3.9015 11.6344 3.83998L10.6904 2.89598L11.2712 2.31358L11.8744 2.91678C11.9042 2.94673 11.9396 2.97049 11.9786 2.98669C12.0176 3.00289 12.0594 3.01121 12.1016 3.01118C12.1651 3.01061 12.2271 2.99114 12.2795 2.95524C12.332 2.91933 12.3725 2.86863 12.396 2.80959C12.4195 2.75055 12.4249 2.68585 12.4115 2.62373C12.3981 2.56161 12.3666 2.50488 12.3208 2.46078L11.7176 1.85758L12.324 1.25278L14.74 3.66238L3.68079 14.72Z"
            stroke="#83868B" strokeWidth="0.2" mask="url(#path-1-outside-1_19647_1067)" />
    </g>
    <defs>
        <clipPath id="clip0_19647_1067">
            <rect width="16" height="16" fill="white" />
        </clipPath>
    </defs>
</svg>