<svg width="64" height="64" viewBox="0 0 64 64" fill="none" xmlns="http://www.w3.org/2000/svg">
<path d="M49.9264 35.6271C49.6448 32.8918 49.2011 30.1756 48.5975 27.4929C47.5283 22.7304 38.0135 14.1089 36.3694 12.648L34.2644 9.35576C34.0626 9.04062 33.7914 8.77579 33.4715 8.58151C33.1517 8.38722 32.7917 8.26863 32.419 8.23478C32.0463 8.20094 31.6708 8.25274 31.3212 8.38624C30.9716 8.51973 30.6572 8.73138 30.4019 9.00501L27.5309 3.10576C27.0637 2.14977 26.2507 1.40704 25.2565 1.02799C24.2623 0.64894 23.1611 0.661907 22.1761 1.06426L5.74613 7.80739C4.94277 8.13452 4.26216 8.70523 3.8 9.43926C2.66738 10.859 2.00688 13.4545 2.7875 15.1945C2.5627 15.6288 2.44598 16.111 2.44725 16.6C2.44725 18.793 4.40325 19.4423 4.48063 19.5083L4.19313 19.551C3.49558 19.6556 2.85313 19.9907 2.36817 20.5029C1.88322 21.0151 1.58368 21.6748 1.51731 22.3771C1.45094 23.0793 1.62156 23.7835 2.00196 24.3775C2.38236 24.9714 2.95066 25.421 3.61625 25.6544C3.81852 26.4376 4.31524 27.1125 5.00288 27.5384L10.225 30.7963L10.5014 31.376C10.0681 31.6889 9.73412 32.12 9.53921 32.6176C9.34429 33.1152 9.29671 33.6584 9.40215 34.1824C9.50759 34.7063 9.76159 35.1888 10.1338 35.5723C10.5061 35.9558 10.9808 36.224 11.5014 36.345L13.0389 36.7006L18.9283 49.0539C19.4036 50.0481 20.2513 50.8152 21.2879 51.189C22.3246 51.5629 23.4667 51.5136 24.4673 51.0516L37.2955 45.1125L48.7695 63.25L49.6515 63.0473C55.8455 61.6231 60.5679 56.9631 62.4974 51.1348L49.9264 35.6271Z" fill="white"/>
<path d="M10.6472 15.7944L5.8554 14.8488C3.82153 14.4475 2.85953 17.277 4.71603 18.1988L12.0035 21.8174L10.6472 15.7944Z" fill="#FFAD92"/>
<path d="M9.46901 20.0538L4.38264 20.8145C4.10801 20.8555 3.8459 20.9569 3.61513 21.1114C3.38437 21.2658 3.1907 21.4695 3.04804 21.7077C2.90538 21.946 2.81727 22.2128 2.79006 22.4892C2.76284 22.7655 2.79719 23.0445 2.89064 23.306C3.00847 23.6356 3.216 23.9257 3.48985 24.1438C3.76371 24.3618 4.093 24.499 4.44064 24.54L12.9494 25.5453L9.46901 20.0538Z" fill="#FFAD92"/>
<path d="M12.141 24.5394L7.216 23.0598C6.95005 22.9799 6.66972 22.96 6.39514 23.0013C6.12056 23.0427 5.85856 23.1444 5.62798 23.2992C5.39739 23.4539 5.20396 23.6578 5.06157 23.8962C4.91919 24.1346 4.83139 24.4016 4.8045 24.6779C4.77059 25.0262 4.8346 25.3771 4.98933 25.691C5.14405 26.0049 5.38334 26.2694 5.68025 26.4547L12.9491 30.9902L12.141 24.5394ZM16.1859 31.9702L12.0704 32.1299C10.3236 32.1977 10.0869 34.7068 11.7897 35.1005L18.475 36.6463L16.1859 31.9702ZM30.8144 14.6547C30.8144 14.6547 30.3826 12.1283 31.1236 10.2233C31.4657 9.3438 32.6797 9.2483 33.1881 10.0439L35.3891 13.4862C35.3891 13.4862 46.3057 23.1164 47.3516 27.7728C47.9748 30.5271 48.4215 33.3183 48.6891 36.1296L61.0671 51.3988C61.0671 51.3988 58.3421 59.7384 49.3654 61.8023L37.8839 43.6523L32.7556 41.6924L24.2487 21.1977L30.8144 14.6547Z" fill="#FFAD92"/>
<path d="M21.9239 4.02564L5.72574 9.49363C4.18049 10.1278 3.25337 13.2051 3.97224 14.7125L20.0824 48.5043C20.4121 49.1957 21.0011 49.7293 21.7217 49.9892C22.4423 50.249 23.2364 50.2143 23.9315 49.8924L40.2886 42.3183C41.7666 41.6338 43.1804 38.8823 42.4677 37.4183L25.6451 5.44439C25.3214 4.77915 24.7565 4.26219 24.0652 3.99864C23.374 3.73509 22.6083 3.74474 21.9239 4.02564Z" fill="#0038A6"/>
<path d="M22.661 2.246L6.23103 8.98925C5.86498 9.13947 5.53342 9.36278 5.25662 9.64551C4.97982 9.92824 4.76359 10.2645 4.62115 10.6336C4.47872 11.0027 4.41307 11.3971 4.42822 11.7924C4.44337 12.1878 4.53901 12.576 4.70928 12.9331L20.8195 46.725C21.1493 47.4163 21.7384 47.9498 22.459 48.2095C23.1795 48.4693 23.9735 48.4344 24.6685 48.1125L41.0258 40.5382C41.3768 40.3757 41.6918 40.1448 41.9525 39.8591C42.2132 39.5734 42.4143 39.2385 42.5441 38.8742C42.6738 38.5098 42.7297 38.1232 42.7083 37.737C42.6869 37.3509 42.5887 36.9728 42.4195 36.625L26.3822 3.66475C26.0585 2.9995 25.4936 2.48252 24.8024 2.21897C24.1111 1.95542 23.3454 1.96508 22.661 2.246Z" fill="#FF3D81"/>
<path d="M6.381 12.1363L22.4901 45.9278C22.61 46.1797 22.8245 46.3741 23.087 46.4686C23.3495 46.5631 23.6387 46.5501 23.8916 46.4324L40.2461 38.8589C40.3741 38.8003 40.489 38.7166 40.5841 38.6128C40.6792 38.509 40.7525 38.3873 40.7998 38.2547C40.847 38.1221 40.8672 37.9814 40.8592 37.8408C40.8512 37.7003 40.8151 37.5628 40.7531 37.4364L24.7162 4.47619C24.5997 4.23349 24.3946 4.04462 24.1432 3.94838C23.8917 3.85214 23.6129 3.85583 23.3641 3.95869L19.6775 5.47119L19.9638 6.42282C20.0358 6.66253 20.0163 6.92047 19.909 7.14661C19.8017 7.37276 19.6143 7.55101 19.383 7.64682L13.3804 10.1337C13.1776 10.2177 12.953 10.2334 12.7405 10.1783C12.5281 10.1233 12.3393 10.0005 12.2029 9.82857L11.4318 8.85744L6.9345 10.7032C6.80137 10.7576 6.68075 10.8387 6.58004 10.9414C6.47934 11.0441 6.40067 11.1663 6.34884 11.3004C6.29702 11.4346 6.27314 11.578 6.27867 11.7217C6.2842 11.8654 6.31902 12.0065 6.381 12.1363Z" fill="#394CFF"/>
<path d="M28.8391 42.4016C28.8228 42.3639 28.814 42.3234 28.8133 42.2823C28.8127 42.2413 28.8201 42.2005 28.8352 42.1623C28.8503 42.1242 28.8727 42.0893 28.9013 42.0598C28.9298 42.0303 28.9639 42.0068 29.0016 41.9904L34.3281 39.6727C34.4037 39.6417 34.4885 39.6415 34.5643 39.6722C34.64 39.703 34.7007 39.7622 34.7333 39.8371C34.7659 39.9121 34.7678 39.9969 34.7387 40.0732C34.7095 40.1496 34.6516 40.2115 34.5774 40.2457L29.25 42.5634C29.174 42.5964 29.0881 42.5979 29.0111 42.5675C28.934 42.5372 28.8722 42.4775 28.8391 42.4016Z" fill="white"/>
<path d="M24.782 28.8487L25.3576 28.6046L26.8456 32.1131L26.2701 32.3572L24.782 28.8487Z" fill="#FCC836"/>
<path d="M32.0311 25.8544L31.7159 25.9834C31.7159 25.9834 27.7598 18.0534 22.3034 18.7752L22.2635 18.6777C21.9088 17.8112 21.047 17.345 20.3368 17.6358L20.3423 17.6494L20.3339 17.6369C19.6236 17.9277 19.3359 18.8642 19.6905 19.7307L19.7304 19.8282C15.0624 23.7782 18.7089 31.3067 18.7089 31.3067L18.3936 31.4357C17.98 31.6049 17.8115 32.1534 18.0186 32.6581C18.2194 33.1484 18.7165 33.4411 19.1436 33.2663L25.9608 30.4762L25.9579 30.4613L25.9635 30.4751L32.7806 27.685C33.1943 27.5158 33.3635 26.9691 33.1556 26.4627C32.9573 25.9773 32.4625 25.6782 32.0311 25.8544Z" fill="#FCC836"/>
<path d="M26.5579 33.5412C27.279 33.5412 27.8635 32.9566 27.8635 32.2356C27.8635 31.5145 27.279 30.9299 26.5579 30.9299C25.8368 30.9299 25.2523 31.5145 25.2523 32.2356C25.2523 32.9566 25.8368 33.5412 26.5579 33.5412Z" fill="#FCC836"/>
</svg>
