<svg width="64" height="64" viewBox="0 0 64 64" fill="none" xmlns="http://www.w3.org/2000/svg">
<path d="M4.16698 49.095L4.60916 51.8377L20.9408 48.3421L31.1086 51.456C31.1086 51.456 43.4374 48.1513 43.6282 48.0885C43.819 48.0256 59.0697 51.1384 59.0697 51.1384L59.833 48.6598C59.833 48.6598 48.0128 43.1954 47.3774 43.1954C46.7421 43.1954 39.1796 43.3851 39.1796 43.3851L31.3635 43.0674C31.3635 43.0674 23.2297 43.4491 22.7212 43.4491C22.2126 43.4491 15.5392 44.2752 15.5392 44.2752C15.5392 44.2752 10.5821 45.7368 10.3284 45.7368C10.0748 45.7368 7.1517 46.7538 7.1517 46.7538L4.16698 49.095Z" fill="#095DA4"/>
<path d="M35.0336 47.6997C35.1139 47.6729 43.1965 46.6629 43.3024 46.6629C43.4083 46.6629 51.9715 47.14 51.9715 47.14L38.8364 45.1467L35.0336 47.6997ZM9.72684 47.9324C9.84669 47.9324 20.6906 46.9387 20.6906 46.9387L29.2748 48.1733L22.77 45.071H17.3172L9.72684 47.9324Z" fill="black"/>
<path d="M59.8307 48.6541L43.5084 46.2314L36.6243 47.6743L31.5159 48.7495L31.3972 48.7728C31.2785 48.746 20.2414 46.2709 20.921 46.4222L4.16698 49.0951C8.9821 38.4827 3.01614 51.6004 14.1905 27.0093L19.1662 25.6839L23.1994 24.5982H23.2111L31.4566 27.6411L31.4798 27.6295C31.5962 27.5864 41.7897 23.8593 41.1683 24.0851L50.3086 27.4503L59.8307 48.6541Z" fill="#F2F8FD"/>
<path d="M57.2044 47.5159L42.3296 45.305L36.594 46.5129L36.0564 46.6199L31.4089 47.5997L31.3006 47.623L21.9101 45.5215L21.7425 45.4854L6.48494 47.922C6.22894 48.4876 10.1294 39.8743 15.6137 27.7911C15.73 27.7586 23.9383 25.5604 23.822 25.5919H23.8336L31.0144 28.245L31.3484 28.3636H31.3728L31.6113 28.2799L39.9395 25.2218L40.2025 25.1252L40.2618 25.1497L40.4887 25.2335L48.5294 28.1961L57.2044 47.5159Z" fill="#D0DCEE"/>
<path d="M42.3331 45.3096L36.5905 46.5175L36.0588 46.6257L31.4042 47.6043C31.3926 42.1887 31.3612 32.1524 31.3716 28.3578L39.9407 25.2264L40.2013 25.1287L40.2665 25.1496L42.3331 45.3096ZM23.822 25.5918L22.8294 35.9749L22.8177 35.9982L21.9101 45.5214L21.7425 45.4853L19.8307 45.796L6.48494 47.922L9.1613 42.0084C18.4238 21.5959 6.3069 48.2955 15.6137 27.7899L23.822 25.5918Z" fill="#A5C0DD"/>
<path d="M20.2973 45.0431C20.1796 45.3154 20.0228 45.569 19.8318 45.796L6.48494 47.922L9.1613 42.0084L9.30443 42.1271C9.38821 41.7815 9.76988 41.5778 10.1294 41.5778C11.0813 41.5464 12.9408 43.2418 14.8364 43.5967C16.1396 43.8364 17.4778 43.4897 18.7916 43.3338C19.3175 43.2756 19.9261 43.2756 20.2612 43.6933C20.5603 44.0634 20.4881 44.601 20.2961 45.0431H20.2973Z" fill="#28B6F4"/>
<path d="M15.9244 46.0346C15.9244 46.1905 15.8289 46.3209 15.7207 46.4535L6.48494 47.922L8.58763 43.2756L8.71912 43.4432C9.04145 43.2756 9.46036 43.4199 9.72334 43.6701C9.97352 43.9215 10.1294 44.2671 10.2842 44.601C10.4518 44.9245 10.6426 45.2596 10.9661 45.4505C11.527 45.7728 12.2205 45.5343 12.8652 45.4028C13.6329 45.2334 14.4288 45.2373 15.1948 45.4144C15.5299 45.4865 15.9244 45.6879 15.9244 46.0346Z" fill="#095DA4"/>
<path d="M57.2078 47.5171L44.594 45.6472C44.2743 45.4692 44.008 45.209 43.8226 44.8935C43.6373 44.578 43.5396 44.2188 43.5398 43.8528C43.5502 43.1023 44.0169 42.3634 44.7139 42.048C45.3446 41.7548 46.1486 41.7874 46.649 41.2975C47.3344 40.6226 47.1377 39.253 48.0081 38.8294C48.4969 38.5792 49.0845 38.7968 49.5965 39.004C51.2163 39.6882 52.8477 40.384 54.3907 41.2428L57.2078 47.5171Z" fill="#8EECD3"/>
<path d="M57.2078 47.517L46.0078 45.853C45.6494 45.5714 45.3329 45.2561 45.127 44.8639C44.8221 44.31 44.8116 43.549 45.2573 43.1022C45.9089 42.4831 47.0412 42.852 47.8569 42.461C48.27 42.2655 48.5737 41.8629 48.6609 41.4067C48.7366 40.982 48.6726 40.4386 49.0519 40.221C49.2916 40.1011 49.5849 40.1779 49.792 40.3409C49.998 40.4921 50.1504 40.7214 50.3028 40.9273C50.8032 41.558 51.5642 42.07 52.3578 41.9606C53.056 41.8629 53.7751 41.2485 54.457 41.3846L57.2078 47.517Z" fill="#00C6C5"/>
<path d="M27.0359 39.4647C27.4316 39.6509 27.7318 39.9872 28.0355 40.3013C28.338 40.6155 28.6755 40.9262 29.0967 41.0402C29.518 41.1543 30.0439 41.0018 30.2138 40.6004C30.4593 40.0197 29.938 39.481 29.9148 38.8852C29.8961 38.4197 30.1801 38.0008 30.2988 37.5505C30.4698 36.8896 30.2499 36.1332 29.7239 35.6968C29.1991 35.2616 28.3892 35.1918 27.8156 35.5618C26.994 36.0925 26.873 37.1537 26.7904 38.0404L27.0359 39.4647Z" fill="#FFD880"/>
<path d="M28.1914 39.4497C28.5405 39.3287 28.8046 38.9959 28.843 38.6294C28.9129 37.9556 28.2892 37.2958 28.5196 36.6593C28.6627 36.266 29.0781 36.0554 29.4039 35.7936C29.8147 35.4654 30.1265 34.979 30.1312 34.4531C30.1358 33.9283 29.7705 33.3895 29.2515 33.3034C28.9082 33.2464 28.8081 33.3069 26.2028 34.0167C24.9018 34.3716 23.5427 34.7591 22.5676 35.6912C22.4896 35.7645 25.074 37.937 25.3172 38.1185C25.998 38.6294 27.2349 39.7802 28.1914 39.4497Z" fill="#FFCA28"/>
<path d="M21.0304 26.3459C17.2974 30.9889 11.5561 38.0742 10.0922 39.9489L11.0057 37.959C12.4078 36.1868 15.0714 32.86 20.1495 26.5857L21.0304 26.3459ZM49.3894 30.1091C48.4538 31.6742 46.9539 34.1423 45.4644 36.622C45.3667 36.7733 45.2782 36.9269 45.1817 37.0898C44.1158 38.8515 43.072 40.5912 42.2563 41.9503C42.169 42.1016 41.9363 42.1318 41.8211 41.9934L36.4823 36.1542C36.5044 39.4706 36.5475 43.5596 36.5905 46.5176L36.0588 46.6258C36.0355 45.6146 36.0262 44.4614 36.0041 43.2664C36.0041 43.0918 35.9924 42.9068 35.9924 42.7218C35.9715 40.2316 35.9494 37.5681 35.9273 35.4584C35.9273 35.1977 36.2473 35.0918 36.4067 35.2734L41.9735 41.3522C42.4622 40.5377 43.5933 38.677 44.8442 36.6115L49.1171 29.511L49.3894 30.1091Z" fill="#729BBF"/>
<path d="M36.0913 43.2664H36.0878L31.3286 43.2082C31.2673 43.207 31.2084 43.1843 31.1622 43.1442L22.5745 35.7807C22.539 35.7499 22.512 35.7105 22.4961 35.6663C22.4802 35.6221 22.4759 35.5746 22.4836 35.5282C22.4913 35.4819 22.5108 35.4383 22.5401 35.4016C22.5695 35.3649 22.6078 35.3364 22.6513 35.3187L31.2401 32.0524C31.2731 32.0401 31.3082 32.0344 31.3434 32.0359C31.3786 32.0373 31.4131 32.0457 31.445 32.0607C31.4769 32.0756 31.5054 32.0968 31.529 32.123C31.5526 32.1491 31.5707 32.1797 31.5822 32.213C31.607 32.2802 31.6043 32.3544 31.575 32.4196C31.5456 32.4849 31.4918 32.536 31.4252 32.5621L23.2657 35.6643L31.431 42.6648L36.0937 42.723C36.1291 42.7237 36.164 42.7315 36.1964 42.7457C36.2288 42.76 36.258 42.7806 36.2825 42.8062C36.3069 42.8318 36.326 42.862 36.3388 42.8951C36.3515 42.9281 36.3576 42.9633 36.3566 42.9987C36.3566 43.0693 36.3288 43.137 36.2791 43.1872C36.2294 43.2373 36.1619 43.2658 36.0913 43.2664Z" fill="#729BBF"/>
<path d="M31.6113 28.2798C31.5997 29.7611 31.5404 38.8898 31.5404 39.0574C31.5404 39.474 30.9422 39.4635 30.9422 39.0574C30.9422 38.8898 31.0028 29.618 31.0144 28.2437L31.3484 28.3636H31.3728L31.6113 28.2798ZM21.7472 43.7294L22.4861 33.4894C22.492 33.4178 22.5258 33.3513 22.5802 33.3043C22.6346 33.2573 22.7053 33.2335 22.777 33.238C22.9271 33.2497 23.04 33.38 23.0284 33.529L22.2894 43.769C22.2627 44.1297 21.7216 44.089 21.7472 43.7294ZM54.642 41.7978L45.1817 37.0897L44.9641 36.9803C44.9002 36.9463 44.852 36.8889 44.8297 36.8201C44.8073 36.7513 44.8125 36.6765 44.8442 36.6114C44.8782 36.5473 44.9359 36.4989 45.0049 36.4765C45.074 36.4541 45.1491 36.4595 45.2142 36.4916L45.4644 36.6219L54.2825 41.0042L54.642 41.7978ZM41.3102 32.0442C41.3324 32.1954 41.223 32.3269 41.0705 32.349H41.038C40.9723 32.3492 40.909 32.3247 40.8607 32.2802C40.8123 32.2358 40.7826 32.1748 40.7773 32.1093L39.9395 25.2264L40.2013 25.1287L40.4945 25.2369L41.3102 32.0442Z" fill="#729BBF"/>
<path d="M21.881 40.2187L14.7351 33.8804C14.7072 33.8559 14.6845 33.8261 14.6683 33.7928C14.652 33.7594 14.6426 33.7231 14.6406 33.6861C14.6385 33.649 14.6439 33.6119 14.6563 33.577C14.6687 33.542 14.688 33.5099 14.713 33.4825C14.764 33.4268 14.8347 33.3935 14.91 33.3895C14.9853 33.3856 15.0592 33.4115 15.1156 33.4615L22.2615 39.7998C22.3779 39.9034 22.3895 40.0814 22.2836 40.1966C22.2328 40.2524 22.1622 40.286 22.0868 40.2901C22.0115 40.2943 21.9376 40.2686 21.881 40.2187Z" fill="#729BBF"/>
<path d="M6.48145 47.9769C6.47187 47.9767 6.46248 47.9742 6.45411 47.9695C6.44574 47.9649 6.43865 47.9582 6.43347 47.9501C6.42828 47.9421 6.42517 47.9329 6.42441 47.9233C6.42365 47.9138 6.42525 47.9042 6.42909 47.8954C8.12567 44.1671 11.3489 37.0538 11.4013 36.8211C11.4013 36.7489 11.5165 36.7466 11.5165 36.8292C11.5165 36.9828 7.79869 45.1655 6.58036 47.8442C17.8222 45.9766 17.2718 45.9812 17.2881 46.0987C17.2905 46.1137 17.287 46.129 17.2783 46.1413C17.2696 46.1537 17.2565 46.1622 17.2416 46.1651L6.48145 47.9769ZM57.2078 47.5754H57.1985C42.2237 45.2283 43.0301 45.4413 43.0487 45.3249C43.0662 45.2086 42.1993 45.162 57.1136 47.4439L56.1454 45.1515C56.1424 45.1445 56.1407 45.137 56.1406 45.1293C56.1404 45.1216 56.1418 45.114 56.1446 45.1069C56.1474 45.0997 56.1516 45.0932 56.1569 45.0877C56.1623 45.0822 56.1687 45.0778 56.1757 45.0747C56.2048 45.0596 56.2397 45.0747 56.2513 45.105L57.2614 47.4951C57.2652 47.504 57.2668 47.5137 57.266 47.5233C57.2652 47.533 57.262 47.5422 57.2567 47.5503C57.2514 47.5584 57.2441 47.5651 57.2356 47.5696C57.2271 47.5742 57.2175 47.5766 57.2078 47.5766V47.5754Z" fill="black"/>
<path d="M17.0461 12.1834C13.0432 12.3696 9.94792 15.9373 10.1283 20.131C10.2353 22.5921 11.4432 24.7157 13.2236 26.033L17.2846 30.2907L18.6705 30.3024L18.4076 29.1096L21.0246 26.36H21.0362C23.282 24.9659 24.7401 22.3536 24.6086 19.441C24.4352 15.4602 21.3271 12.0368 17.0449 12.1822L17.0461 12.1834ZM18.5158 23.1949C16.9507 23.0203 15.7312 21.6379 15.7312 19.9425C15.7312 18.2599 16.9507 16.8658 18.5158 16.6901H18.539C20.1041 16.8658 21.3236 18.261 21.3236 19.9425C21.3236 21.6379 20.1041 23.0192 18.539 23.1949H18.5158Z" fill="#F72F43"/>
<path d="M17.536 12.295C11.186 13.4144 9.28582 22.1277 14.6083 26.0329L18.6705 30.3034L22.4221 26.3587C23.341 25.7905 24.1243 25.0279 24.7168 24.1245C28.3648 18.6089 23.7638 11.0685 17.536 12.295ZM18.5158 16.69H18.5391C20.1041 16.8658 21.3236 18.261 21.3236 19.9424C21.3236 21.6378 20.1041 23.0191 18.5391 23.1948H18.5158C16.9507 23.0202 15.7312 21.6378 15.7312 19.9424C15.7312 18.2598 16.9507 16.8658 18.5158 16.69Z" fill="#F72F43"/>
<path d="M24.7156 24.1245C24.1238 25.0276 23.3413 25.7902 22.4233 26.3586L18.6705 30.3034L14.6094 26.0328C9.28232 22.1253 11.1884 13.4143 17.536 12.2949C13.7367 14.8642 12.6441 19.9761 14.6083 23.9231C16.1501 27.0021 18.6926 27.6898 21.6099 26.1841C22.7095 25.6314 23.6998 24.8401 24.7156 24.1245Z" fill="#E2212E"/>
<path d="M21.9322 19.9424C21.9322 21.7507 20.5475 23.2075 18.8253 23.2075C18.731 23.2075 18.6345 23.2075 18.539 23.1959C20.1041 23.019 21.3236 21.6378 21.3236 19.9424C21.3236 18.2597 20.1041 16.8657 18.539 16.69C20.2252 16.4701 21.9322 17.9409 21.9322 19.9424ZM21.0606 27.7911L18.6705 30.3034L16.5318 28.0552C17.7966 28.9931 19.1907 29.0059 20.0809 28.4439C20.4183 28.2403 20.7581 27.897 21.0606 27.7923V27.7911Z" fill="black"/>
<path d="M14.1475 25.6769C11.5758 23.6138 10.6973 19.5806 12.1379 16.6703C12.1705 16.604 12.2775 16.6517 12.2426 16.7227C10.8497 19.5085 11.7132 23.5742 14.2208 25.5861C15.1484 26.3322 15.967 27.2045 16.6528 28.1776C16.6572 28.1839 16.6603 28.191 16.6619 28.1985C16.6636 28.2061 16.6637 28.2139 16.6623 28.2214C16.6609 28.229 16.658 28.2362 16.6537 28.2427C16.6495 28.2491 16.6441 28.2547 16.6377 28.259C16.4573 28.3789 16.1245 27.2641 14.1475 25.6769ZM31.3484 28.4219C31.3416 28.4219 31.3349 28.4207 31.3286 28.4184L27.57 27.0407C27.4979 27.0139 27.5374 26.9045 27.6108 26.9313L31.3484 28.3021L40.242 25.0951C40.3142 25.0683 40.3549 25.1789 40.2816 25.2045L31.3681 28.4184C31.3622 28.4206 31.3547 28.4218 31.3484 28.4219Z" fill="black"/>
<path d="M44.1437 33.11C44.2891 32.6632 44.1053 32.1442 43.7434 31.8533C43.1895 31.4111 42.9614 32.349 43.2617 32.9564C43.4502 33.3369 43.9482 33.7105 44.1437 33.11ZM45.0234 31.0899C45.0569 30.9712 45.0547 30.8451 45.017 30.7276C44.9794 30.61 44.9079 30.5062 44.8116 30.429C44.5207 30.1963 44.4009 30.6897 44.5591 31.0085C44.658 31.2098 44.9198 31.4065 45.0234 31.0899Z" fill="#A5C0DD"/>
<path d="M23.1529 18.6252C23.5078 18.8812 24.1652 18.5577 23.9057 17.7769C23.7684 17.3603 23.3902 16.9275 23.0633 16.8542C22.6956 16.7727 22.528 17.1509 22.578 17.4604C22.6327 17.799 22.8724 18.4216 23.1529 18.624V18.6252ZM21.8857 15.8092C22.13 15.9861 22.5827 15.7627 22.4046 15.2251C22.3092 14.9376 22.0486 14.6398 21.8228 14.5897C21.5703 14.5327 21.4551 14.7945 21.49 15.0075C21.5273 15.2402 21.6925 15.6684 21.8857 15.8092Z" fill="#E2212E"/>
</svg>
