<svg width="64" height="64" viewBox="0 0 64 64" fill="none" xmlns="http://www.w3.org/2000/svg">
  <!-- blue, yellow, red shapes -->
  <path d="M0.999756 13.1252L41.7556 0L58.1255 45.375L16.0625 64L0.999756 13.1252Z" fill="#394CFF"/>
  <path d="M16.7565 63.2548L1.47998 12.9673L1.83873 12.8584L16.9936 62.7457L58.0517 45.2027L58.1992 45.5475L16.7565 63.2548Z" fill="#FF3C3C"/>
  <path d="M63.0002 37.5002L24.1877 58.0001C24.1877 58.0001 8.56249 47.4999 5.25024 13.8752L40.8125 1.43774C40.8125 1.43774 44.0002 20.9379 63.0002 37.5002Z" fill="#FFCC00"/>

  <!-- white boxes -->
  <path d="M9.18762 19.6877L18.25 15.9377L21.2499 24.5002L13.125 28.0629L9.18762 19.6877ZM15.2187 32.8129L23.8127 29.0004L26.4999 36.6879L19 40.4377L15.2187 32.8129ZM21.8124 45.3751L29.5626 40.8127L33.0625 48.8124L25.6876 53.0001L21.8124 45.3751Z" fill="white"/>

  <!-- text lines -->
  <path d="M21.8472 19.312L40.9723 11.8743L41.652 13.6219L22.5268 21.0596L21.8472 19.312Z" fill="#394CFF"/>
  <path d="M27.5479 31.9629L40.1107 26.2136L40.891 27.9185L28.3282 33.6678L27.5479 31.9629Z" fill="#394CFF"/>
  <path d="M33.1182 44.4199L51.3686 34.6141L52.256 36.2658L34.0057 46.0716L33.1182 44.4199Z" fill="#394CFF"/>

  <!-- clip + bookmark -->
  <path d="M14.6251 7.00023L17.1876 12.0627L30.3127 7.93773V2.50023L25.3126 4.31248C25.3126 4.31248 24.5626 0.0626042 21.5626 1.06248C18.5626 2.0626 20.1249 5.5626 20.1249 5.5626L14.6251 7.00023Z" fill="#00D98D"/>
  <path d="M17.9375 8.18762C17.9375 8.29432 17.9164 8.39997 17.8756 8.49855C17.8348 8.59712 17.7749 8.68668 17.6994 8.76211C17.624 8.83755 17.5344 8.89738 17.4358 8.9382C17.3372 8.97902 17.2316 9.00002 17.1249 9C17.0182 9 16.9126 8.97899 16.814 8.93816C16.7155 8.89733 16.6259 8.83749 16.5505 8.76205C16.4751 8.68662 16.4152 8.59706 16.3744 8.4985C16.3336 8.39994 16.3126 8.2943 16.3126 8.18762C16.3153 7.9739 16.402 7.76983 16.5541 7.61963C16.7062 7.46943 16.9113 7.3852 17.1251 7.3852C17.3388 7.3852 17.5439 7.46943 17.696 7.61963C17.8481 7.76983 17.9348 7.9739 17.9375 8.18762ZM29.5626 4.75025C29.5626 4.85697 29.5416 4.96263 29.5007 5.06122C29.4599 5.1598 29.4 5.24938 29.3245 5.32483C29.249 5.40027 29.1595 5.46012 29.0609 5.50094C28.9623 5.54176 28.8566 5.56277 28.7499 5.56275C28.6432 5.56273 28.5375 5.5417 28.4389 5.50084C28.3403 5.45999 28.2507 5.40012 28.1753 5.32465C28.0229 5.17223 27.9373 4.96552 27.9374 4.75C27.9374 4.53448 28.0231 4.3278 28.1755 4.17542C28.3279 4.02305 28.5346 3.93747 28.7501 3.9375C28.9656 3.93753 29.1723 4.02318 29.3247 4.1756C29.4771 4.32802 29.5627 4.53473 29.5626 4.75025Z" fill="#000355"/>

  <!-- Animated checkmarks -->
  <polyline
    points="11.5,22.5 14.2,25.5 19.5,19.2"
    fill="none"
    stroke="#394CFF"
    stroke-width="2"
    stroke-linecap="round"
    stroke-linejoin="round"
    stroke-dasharray="14"
    stroke-dashoffset="14"
  >
    <animate
      attributeName="stroke-dashoffset"
      values="14;0;0;0;0;14"
      keyTimes="0;0.2;0.5;0.8;0.95;1"
      dur="5s"
      repeatCount="indefinite"
      calcMode="spline"
      keySplines="0.4 0 0.2 1;0 0 1 1;0 0 1 1;0 0 1 1;0.4 0 0.6 1"
    />
  </polyline>

  <polyline
    points="17.2,35.2 19.9,38.2 25.2,31.8"
    fill="none"
    stroke="#394CFF"
    stroke-width="2"
    stroke-linecap="round"
    stroke-linejoin="round"
    stroke-dasharray="14"
    stroke-dashoffset="14"
  >
    <animate
      attributeName="stroke-dashoffset"
      values="14;14;0;0;0;14"
      keyTimes="0;0.24;0.44;0.7;0.95;1"
      dur="5s"
      repeatCount="indefinite"
      calcMode="spline"
      keySplines="0 0 1 1;0.4 0 0.2 1;0 0 1 1;0 0 1 1;0.4 0 0.6 1"
    />
  </polyline>

  <polyline
    points="23.5,47.8 26.2,50.8 31.5,44.4"
    fill="none"
    stroke="#394CFF"
    stroke-width="2"
    stroke-linecap="round"
    stroke-linejoin="round"
    stroke-dasharray="14"
    stroke-dashoffset="14"
  >
    <animate
      attributeName="stroke-dashoffset"
      values="14;14;14;0;0;14"
      keyTimes="0;0.48;0.68;0.88;0.97;1"
      dur="5s"
      repeatCount="indefinite"
      calcMode="spline"
      keySplines="0 0 1 1;0 0 1 1;0.4 0 0.2 1;0 0 1 1;0.4 0 0.6 1"
    />
  </polyline>
</svg>