<svg width="40" height="40" viewBox="0 0 40 40" fill="none" xmlns="http://www.w3.org/2000/svg">
<path d="M30 10.4167H27.5667L26.7566 7.98179C26.2449 6.44846 24.8149 5.41669 23.1982 5.41669H16.8018C15.1851 5.41669 13.7551 6.44846 13.2434 7.98179L12.4333 10.4167H10C5.97 10.4167 3.75 12.6367 3.75 16.6667V30C3.75 34.03 5.97 36.25 10 36.25H30C34.03 36.25 36.25 34.03 36.25 30V16.6667C36.25 12.6367 34.03 10.4167 30 10.4167ZM33.75 30C33.75 32.6284 32.6283 33.75 30 33.75H10C7.37167 33.75 6.25 32.6284 6.25 30V16.6667C6.25 14.0384 7.37167 12.9167 10 12.9167H13.3333C13.8717 12.9167 14.3482 12.5718 14.5199 12.0618L15.6169 8.76996C15.7869 8.25829 16.2634 7.91506 16.8018 7.91506H23.1982C23.7366 7.91506 24.2131 8.25829 24.3831 8.76996L25.4801 12.0602C25.6518 12.5702 26.1283 12.9151 26.6667 12.9151H30C32.6283 12.9151 33.75 14.0367 33.75 16.6651V30ZM20 17.0834C16.555 17.0834 13.75 19.8867 13.75 23.3334C13.75 26.78 16.555 29.5834 20 29.5834C23.445 29.5834 26.25 26.78 26.25 23.3334C26.25 19.8867 23.445 17.0834 20 17.0834ZM20 27.0834C17.9333 27.0834 16.25 25.4017 16.25 23.3334C16.25 21.265 17.9333 19.5834 20 19.5834C22.0667 19.5834 23.75 21.265 23.75 23.3334C23.75 25.4017 22.0667 27.0834 20 27.0834ZM30.8333 17.5C30.8333 18.42 30.0867 19.1667 29.1667 19.1667C28.2467 19.1667 27.5 18.42 27.5 17.5C27.5 16.58 28.2467 15.8334 29.1667 15.8334C30.0867 15.8334 30.8333 16.58 30.8333 17.5Z" fill="#AFB3BA"/>
</svg>
