<svg width="24" height="25" viewBox="0 0 24 25" fill="none" xmlns="http://www.w3.org/2000/svg">
<path d="M18 2.75H6C3.58 2.75 2.25 4.08 2.25 6.5V18.5C2.25 20.92 3.58 22.25 6 22.25H18C20.42 22.25 21.75 20.92 21.75 18.5V6.5C21.75 4.08 20.42 2.75 18 2.75ZM20.25 18.5C20.25 20.08 19.58 20.75 18 20.75H6C4.42 20.75 3.75 20.08 3.75 18.5V6.5C3.75 4.92 4.42 4.25 6 4.25H18C19.58 4.25 20.25 4.92 20.25 6.5V18.5ZM6.71 17.79C6.89 17.98 7 18.23 7 18.5C7 18.63 6.97 18.76 6.92 18.88C6.87 19.01 6.8 19.12 6.71 19.21C6.52 19.39 6.26 19.5 6 19.5C5.74 19.5 5.48 19.39 5.29 19.21C5.11 19.02 5 18.76 5 18.5C5 18.44 5 18.37 5.02 18.3C5.02 18.24 5.05 18.18 5.08 18.12C5.1 18.06 5.13 18 5.17 17.94C5.2 17.89 5.25 17.84 5.29 17.79C5.66 17.42 6.33 17.42 6.71 17.79ZM18.71 17.79C18.89 17.98 19 18.24 19 18.5C19 18.76 18.89 19.02 18.71 19.21C18.61 19.3 18.51 19.37 18.38 19.42C18.26 19.47 18.13 19.5 18 19.5C17.74 19.5 17.48 19.39 17.29 19.21C17.11 19.02 17 18.76 17 18.5C17 18.24 17.11 17.98 17.29 17.79C17.57 17.51 18.02 17.43 18.38 17.58C18.51 17.63 18.61 17.7 18.71 17.79ZM16.86 6.98C13.9 5.38 10.1 5.38 7.13 6.98C6.35 7.4 6.03 8.35 6.4 9.14L7.51 11.53C7.71 11.97 8.16 12.25 8.64 12.25H15.34C15.82 12.25 16.27 11.97 16.47 11.53L17.58 9.14C17.95 8.35 17.63 7.4 16.85 6.98H16.86ZM16.23 8.51L15.19 10.75H12.75V9C12.75 8.59 12.41 8.25 12 8.25C11.59 8.25 11.25 8.59 11.25 9V10.75H8.81L7.77 8.51C7.73 8.43 7.79 8.34 7.86 8.3C10.39 6.93 13.63 6.93 16.16 8.3C16.23 8.34 16.29 8.43 16.25 8.51H16.23Z" fill="#0F1B31"/>
</svg>
