<svg width="17" height="16" viewBox="0 0 17 16" fill="none" xmlns="http://www.w3.org/2000/svg">
<path d="M12.668 1.5H4.66797C3.05464 1.5 2.16797 2.38667 2.16797 4V12C2.16797 13.6133 3.05464 14.5 4.66797 14.5H12.668C14.2813 14.5 15.168 13.6133 15.168 12V4C15.168 2.38667 14.2813 1.5 12.668 1.5ZM14.168 12C14.168 13.0533 13.7213 13.5 12.668 13.5H4.66797C3.61464 13.5 3.16797 13.0533 3.16797 12V4C3.16797 2.94667 3.61464 2.5 4.66797 2.5H12.668C13.7213 2.5 14.168 2.94667 14.168 4V12ZM5.1413 11.5267C5.2613 11.6533 5.33464 11.82 5.33464 12C5.33464 12.0867 5.31463 12.1733 5.2813 12.2533C5.24797 12.34 5.2013 12.4133 5.1413 12.4733C5.01463 12.5933 4.8413 12.6667 4.66797 12.6667C4.49464 12.6667 4.3213 12.5933 4.19464 12.4733C4.07464 12.3467 4.0013 12.1733 4.0013 12C4.0013 11.96 4.0013 11.9133 4.01464 11.8667C4.01464 11.8267 4.03464 11.7867 4.05464 11.7467C4.06797 11.7067 4.08797 11.6667 4.11463 11.6267C4.13463 11.5933 4.16797 11.56 4.19464 11.5267C4.4413 11.28 4.88797 11.28 5.1413 11.5267ZM13.1413 11.5267C13.2613 11.6533 13.3346 11.8267 13.3346 12C13.3346 12.1733 13.2613 12.3467 13.1413 12.4733C13.0746 12.5333 13.008 12.58 12.9213 12.6133C12.8413 12.6467 12.7546 12.6667 12.668 12.6667C12.4946 12.6667 12.3213 12.5933 12.1946 12.4733C12.0746 12.3467 12.0013 12.1733 12.0013 12C12.0013 11.8267 12.0746 11.6533 12.1946 11.5267C12.3813 11.34 12.6813 11.2867 12.9213 11.3867C13.008 11.42 13.0746 11.4667 13.1413 11.5267ZM11.908 4.32C9.93464 3.25333 7.4013 3.25333 5.4213 4.32C4.9013 4.6 4.68797 5.23333 4.93464 5.76L5.67463 7.35333C5.80797 7.64667 6.10797 7.83333 6.42797 7.83333H10.8946C11.2146 7.83333 11.5146 7.64667 11.648 7.35333L12.388 5.76C12.6346 5.23333 12.4213 4.6 11.9013 4.32H11.908ZM11.488 5.34L10.7946 6.83333H9.16797V5.66667C9.16797 5.39333 8.9413 5.16667 8.66797 5.16667C8.39464 5.16667 8.16797 5.39333 8.16797 5.66667V6.83333H6.5413L5.84797 5.34C5.8213 5.28667 5.8613 5.22667 5.90797 5.2C7.59464 4.28667 9.75464 4.28667 11.4413 5.2C11.488 5.22667 11.528 5.28667 11.5013 5.34H11.488Z" fill="#83868B"/>
</svg>
