<svg width="16" height="16" viewBox="0 0 16 16" fill="none" xmlns="http://www.w3.org/2000/svg">
<path d="M13.3322 3.33329V9.99996C13.3322 10.368 13.0342 10.6666 12.6656 10.6666C12.2969 10.6666 11.9989 10.368 11.9989 9.99996V4.94267L4.47024 12.4713C4.34024 12.6013 4.16955 12.6666 3.99889 12.6666C3.82822 12.6666 3.65753 12.6013 3.52753 12.4713C3.26686 12.2106 3.26686 11.7893 3.52753 11.5286L11.0562 3.99996H5.99889C5.63022 3.99996 5.33222 3.70129 5.33222 3.33329C5.33222 2.96529 5.63022 2.66663 5.99889 2.66663H12.6656C12.7522 2.66663 12.8389 2.68456 12.9203 2.7179C13.0836 2.78523 13.2136 2.91524 13.2809 3.07857C13.3149 3.15991 13.3322 3.24663 13.3322 3.33329Z" fill="white"/>
</svg>
