<svg width="100" height="100" viewBox="0 0 100 100" fill="none" xmlns="http://www.w3.org/2000/svg">
    <ellipse opacity="0.1" cx="50" cy="97" rx="50" ry="3" fill="#AFB3BA" />
    <path fillRule="evenodd" clipRule="evenodd"
        d="M71.6264 16.3621C72.4879 15.1895 74.1368 14.9372 75.3094 15.7986C76.4821 16.6601 76.7343 18.309 75.8729 19.4817L72.6641 23.8495C71.8027 25.0222 70.1537 25.2744 68.9811 24.413C67.8085 23.5515 67.5562 21.9026 68.4176 20.7299L71.6264 16.3621ZM74.1253 17.4105C73.8429 17.203 73.4457 17.2637 73.2382 17.5462L70.0295 21.914C69.822 22.1965 69.8827 22.5937 70.1652 22.8012C70.4476 23.0087 70.8448 22.9479 71.0523 22.6654L74.2611 18.2976C74.4686 18.0151 74.4078 17.618 74.1253 17.4105ZM24.1159 42.2423C24.1159 29.4337 34.4993 19.0504 47.3078 19.0504C60.1163 19.0504 70.4997 29.4337 70.4997 42.2423C70.4997 55.0508 60.1163 65.4342 47.3078 65.4342C34.4993 65.4342 24.1159 55.0508 24.1159 42.2423ZM47.3078 17.0504C33.3947 17.0504 22.1159 28.3292 22.1159 42.2423C22.1159 56.1554 33.3947 67.4342 47.3078 67.4342C51.8816 67.4342 56.1706 66.2153 59.8679 64.0846L63.1377 67.3545C63.0443 68.7441 63.5287 70.1653 64.5909 71.2275L74.6805 81.3171C76.6331 83.2698 79.799 83.2698 81.7516 81.3171L83.9271 79.1416C85.8798 77.189 85.8797 74.0231 83.9271 72.0705L73.8375 61.9809C72.7751 60.9184 71.3534 60.4341 69.9635 60.5278L67.1725 57.7368C70.5106 53.4634 72.4997 48.0851 72.4997 42.2423C72.4997 28.3292 61.2209 17.0504 47.3078 17.0504ZM67.7957 61.1885L65.8754 59.2682C64.5965 60.6622 63.1627 61.9117 61.6012 62.9895L63.7981 65.1864C64.0115 64.8183 64.2758 64.4716 64.5909 64.1564L66.7664 61.9809C67.0814 61.666 67.4279 61.4018 67.7957 61.1885ZM30.654 42.242C30.654 33.0445 38.11 25.5885 47.3075 25.5885C56.505 25.5885 63.9611 33.0445 63.9611 42.242C63.9611 51.4395 56.505 58.8956 47.3075 58.8956C38.11 58.8956 30.654 51.4395 30.654 42.242ZM47.3075 23.5885C37.0055 23.5885 28.654 31.9399 28.654 42.242C28.654 52.5441 37.0055 60.8956 47.3075 60.8956C57.6096 60.8956 65.9611 52.5441 65.9611 42.242C65.9611 31.9399 57.6096 23.5885 47.3075 23.5885ZM82.7322 26.0476C82.2899 24.6614 80.8076 23.8963 79.4214 24.3386L74.2581 25.9862C72.8719 26.4285 72.1068 27.9108 72.5491 29.297C72.9914 30.6832 74.4737 31.4483 75.8599 31.006L81.0232 29.3584C82.4094 28.9161 83.1746 27.4338 82.7322 26.0476ZM80.0294 26.2439C80.3633 26.1374 80.7203 26.3217 80.8269 26.6556C80.9334 26.9895 80.7491 27.3465 80.4152 27.453L75.2519 29.1007C74.918 29.2072 74.561 29.0229 74.4545 28.689C74.3479 28.3551 74.5322 27.9981 74.8661 27.8915L80.0294 26.2439ZM15.2947 57.1248C13.8978 57.5319 13.0953 58.9943 13.5024 60.3913C13.9094 61.7882 15.3719 62.5907 16.7688 62.1836L21.9722 60.6673C23.3692 60.2603 24.1716 58.7978 23.7645 57.4009C23.3575 56.0039 21.895 55.2015 20.4981 55.6086L15.2947 57.1248ZM15.4225 59.8318C15.3245 59.4953 15.5177 59.143 15.8542 59.045L21.0576 57.5287C21.3941 57.4306 21.7464 57.6239 21.8444 57.9604C21.9425 58.2969 21.7492 58.6491 21.4127 58.7472L16.2093 60.2635C15.8728 60.3615 15.5206 60.1682 15.4225 59.8318ZM20.5847 70.8793C19.4342 69.9884 19.2238 68.3336 20.1147 67.1832L23.4331 62.898C24.324 61.7476 25.9788 61.5372 27.1292 62.428C28.2796 63.3189 28.4901 64.9737 27.5992 66.1241L24.2808 70.4093C23.3899 71.5597 21.7351 71.7701 20.5847 70.8793ZM21.696 68.4077C21.4814 68.6848 21.5321 69.0834 21.8092 69.298C22.0863 69.5126 22.4849 69.4619 22.6995 69.1848L26.0179 64.8996C26.2325 64.6225 26.1818 64.2239 25.9047 64.0093C25.6276 63.7947 25.229 63.8454 25.0144 64.1225L21.696 68.4077Z"
        fill="#AFB3BA" />
</svg>