<svg width="21" height="21" viewBox="0 0 21 21" fill="none" xmlns="http://www.w3.org/2000/svg">
<path d="M14.0697 9.08491L14.3787 10.036C14.6344 10.8228 14.2018 11.6706 13.4156 11.9261L9.80861 13.0981L9.9934 13.1922C10.2395 13.3176 10.3374 13.6188 10.212 13.865C10.1495 13.9876 10.043 14.0741 9.92124 14.1136C9.79951 14.1532 9.66272 14.1465 9.53987 14.0833L8.27979 13.4413C8.22183 13.4118 8.16997 13.3705 8.12692 13.32C8.04103 13.2196 7.99839 13.0884 8.00888 12.9567C8.01402 12.8905 8.03168 12.8265 8.06121 12.7686L8.70325 11.5085C8.82866 11.2624 9.12985 11.1645 9.37599 11.2899C9.62212 11.4153 9.71998 11.7165 9.59457 11.9626L9.50042 12.1474L13.1068 10.9756C13.3687 10.8906 13.5131 10.6081 13.4278 10.3456L13.1188 9.39455C13.0335 9.13205 13.1773 8.8498 13.4398 8.76451C13.7023 8.67922 13.9844 8.82242 14.0697 9.08491ZM13.203 6.89205L11.9429 6.25001C11.6968 6.1246 11.3956 6.22247 11.2702 6.4686C11.1448 6.71473 11.2426 7.01592 11.4888 7.14134L11.6735 7.23549L8.06652 8.40748C7.28032 8.66293 6.8478 9.51075 7.10346 10.2976L7.41248 11.2486C7.49777 11.5111 7.78002 11.655 8.04252 11.5697C8.30501 11.4844 8.44883 11.2021 8.36354 10.9396L8.05452 9.98857C7.96923 9.72608 8.11368 9.44362 8.37554 9.35854L11.9826 8.18655L11.8884 8.37133C11.763 8.61747 11.8609 8.91866 12.107 9.04407C12.2296 9.10656 12.3666 9.1139 12.4884 9.07435C12.6101 9.03479 12.7168 8.94897 12.7791 8.82568L13.4211 7.56561C13.4507 7.50765 13.4684 7.44378 13.4735 7.37763C13.484 7.24594 13.4414 7.11469 13.3555 7.01432C13.3129 6.96298 13.2609 6.92159 13.203 6.89205ZM17.5569 7.95185C18.7781 11.7104 16.7142 15.7611 12.9556 16.9824C9.19702 18.2036 5.14631 16.1397 3.92507 12.3811C2.70384 8.62252 4.76778 4.5718 8.52635 3.35056C12.2849 2.12933 16.3356 4.19327 17.5569 7.95185ZM16.6058 8.26086C15.555 5.02664 12.0696 3.25076 8.83537 4.30162C5.60115 5.35248 3.82526 8.83785 4.87613 12.0721C5.92699 15.3063 9.41236 17.0822 12.6466 16.0313C15.8808 14.9805 17.6567 11.4951 16.6058 8.26086Z" fill="#0F1B31"/>
</svg>
