<svg width="24" height="24" viewBox="0 0 24 24" fill="none" xmlns="http://www.w3.org/2000/svg">
<path d="M12 3.457C11.8011 3.457 11.6103 3.37798 11.4697 3.23733C11.329 3.09668 11.25 2.90591 11.25 2.707V0.75C11.25 0.551088 11.329 0.360322 11.4697 0.21967C11.6103 0.0790176 11.8011 0 12 0C12.1989 0 12.3897 0.0790176 12.5303 0.21967C12.671 0.360322 12.75 0.551088 12.75 0.75V2.707C12.75 2.90591 12.671 3.09668 12.5303 3.23733C12.3897 3.37798 12.1989 3.457 12 3.457ZM18.571 6.179C18.4226 6.17907 18.2774 6.13508 18.154 6.05261C18.0306 5.97014 17.9344 5.8529 17.8776 5.71573C17.8209 5.57856 17.8061 5.42764 17.8352 5.28207C17.8643 5.1365 17.9359 5.00283 18.041 4.898L19.425 3.514C19.4947 3.44433 19.5774 3.38907 19.6684 3.35137C19.7594 3.31367 19.857 3.29426 19.9555 3.29426C20.054 3.29426 20.1516 3.31367 20.2426 3.35137C20.3336 3.38907 20.4163 3.44433 20.486 3.514C20.5557 3.58367 20.6109 3.66637 20.6486 3.7574C20.6863 3.84842 20.7057 3.94598 20.7057 4.0445C20.7057 4.14302 20.6863 4.24058 20.6486 4.3316C20.6109 4.42263 20.5557 4.50533 20.486 4.575L19.102 5.959C18.9611 6.09975 18.7701 6.17887 18.571 6.179ZM23.25 12.75H21.293C21.0941 12.75 20.9033 12.671 20.7627 12.5303C20.622 12.3897 20.543 12.1989 20.543 12C20.543 11.8011 20.622 11.6103 20.7627 11.4697C20.9033 11.329 21.0941 11.25 21.293 11.25H23.25C23.4489 11.25 23.6397 11.329 23.7803 11.4697C23.921 11.6103 24 11.8011 24 12C24 12.1989 23.921 12.3897 23.7803 12.5303C23.6397 12.671 23.4489 12.75 23.25 12.75ZM19.955 20.705C19.8565 20.7052 19.7589 20.6859 19.6679 20.6482C19.577 20.6104 19.4944 20.5549 19.425 20.485L18.041 19.101C17.9713 19.0313 17.9161 18.9486 17.8784 18.8576C17.8407 18.7666 17.8213 18.669 17.8213 18.5705C17.8213 18.472 17.8407 18.3744 17.8784 18.2834C17.9161 18.1924 17.9713 18.1097 18.041 18.04C18.1107 17.9703 18.1934 17.9151 18.2844 17.8774C18.3754 17.8397 18.473 17.8203 18.5715 17.8203C18.67 17.8203 18.7676 17.8397 18.8586 17.8774C18.9496 17.9151 19.0323 17.9703 19.102 18.04L20.486 19.424C20.5912 19.5289 20.6628 19.6627 20.6919 19.8083C20.7209 19.954 20.7061 20.105 20.6492 20.2422C20.5923 20.3794 20.496 20.4966 20.3724 20.579C20.2488 20.6614 20.1035 20.7053 19.955 20.705ZM4.045 20.705C3.89655 20.7051 3.75143 20.6611 3.628 20.5786C3.50457 20.4961 3.40839 20.3789 3.35163 20.2417C3.29488 20.1046 3.28011 19.9536 3.30919 19.8081C3.33827 19.6625 3.4099 19.5288 3.515 19.424L4.899 18.04C4.96867 17.9703 5.05137 17.9151 5.1424 17.8774C5.23342 17.8397 5.33098 17.8203 5.4295 17.8203C5.52802 17.8203 5.62558 17.8397 5.7166 17.8774C5.80763 17.9151 5.89033 17.9703 5.96 18.04C6.02967 18.1097 6.08493 18.1924 6.12263 18.2834C6.16033 18.3744 6.17974 18.472 6.17974 18.5705C6.17974 18.669 6.16033 18.7666 6.12263 18.8576C6.08493 18.9486 6.02967 19.0313 5.96 19.101L4.576 20.485C4.50637 20.5549 4.42361 20.6103 4.33247 20.648C4.24134 20.6858 4.14364 20.7052 4.045 20.705ZM2.707 12.75H0.75C0.551088 12.75 0.360322 12.671 0.21967 12.5303C0.0790176 12.3897 0 12.1989 0 12C0 11.8011 0.0790176 11.6103 0.21967 11.4697C0.360322 11.329 0.551088 11.25 0.75 11.25H2.707C2.90591 11.25 3.09668 11.329 3.23733 11.4697C3.37798 11.6103 3.457 11.8011 3.457 12C3.457 12.1989 3.37798 12.3897 3.23733 12.5303C3.09668 12.671 2.90591 12.75 2.707 12.75ZM5.429 6.179C5.33049 6.17924 5.23292 6.15992 5.14194 6.12215C5.05095 6.08439 4.96838 6.02893 4.899 5.959L3.515 4.575C3.44533 4.50533 3.39007 4.42263 3.35237 4.3316C3.31467 4.24058 3.29526 4.14302 3.29526 4.0445C3.29526 3.94598 3.31467 3.84842 3.35237 3.7574C3.39007 3.66637 3.44533 3.58367 3.515 3.514C3.58467 3.44433 3.66737 3.38907 3.7584 3.35137C3.84942 3.31367 3.94698 3.29426 4.0455 3.29426C4.14402 3.29426 4.24158 3.31367 4.3326 3.35137C4.42363 3.38907 4.50633 3.44433 4.576 3.514L5.96 4.898C6.06516 5.00289 6.13681 5.13665 6.16586 5.28231C6.19491 5.42798 6.18005 5.57899 6.12318 5.7162C6.0663 5.8534 5.96996 5.97064 5.84638 6.05303C5.7228 6.13542 5.57753 6.17927 5.429 6.179ZM15 21V22.25C15 23.21 14.21 24 13.25 24H10.75C9.91 24 9 23.36 9 21.96V21H15ZM16.41 6.56C15.5924 5.89941 14.6369 5.43071 13.6141 5.18841C12.5913 4.94611 11.5271 4.9364 10.5 5.16C7.85 5.71 5.7 7.87 5.15 10.52C4.59 13.24 5.61 15.94 7.79 17.59C8.38 18.03 8.79 18.71 8.93 19.5V19.51C8.95 19.5 8.98 19.5 9 19.5H15C15.02 19.5 15.03 19.5 15.05 19.51V19.5C15.19 18.74 15.64 18.04 16.33 17.5C17.1629 16.8457 17.8361 16.0105 18.2987 15.0576C18.7613 14.1048 19.0011 13.0592 19 12C19 9.88 18.06 7.9 16.41 6.56ZM15.75 12.5C15.34 12.5 15 12.16 15 11.75C15 10.23 13.77 9 12.25 9C11.84 9 11.5 8.66 11.5 8.25C11.5 7.84 11.84 7.5 12.25 7.5C13.3764 7.50264 14.4558 7.95126 15.2523 8.74771C16.0487 9.54417 16.4974 10.6236 16.5 11.75C16.5 12.16 16.16 12.5 15.75 12.5Z" fill="#1F6BFF"/>
<path d="M8.92969 19.5H8.99969C8.97969 19.5 8.94969 19.5 8.92969 19.51V19.5ZM15.0497 19.5V19.51C15.0297 19.5 15.0197 19.5 14.9997 19.5H15.0497Z" fill="#1F6BFF"/>
</svg>
