<svg width="24" height="24" viewBox="0 0 24 24" fill="none" xmlns="http://www.w3.org/2000/svg">
<path d="M4.68318 12.9858L4.68334 12.9856L4.67646 12.9821C4.62882 12.9583 4.55594 12.9333 4.47863 12.9333C4.47704 12.9333 4.47529 12.9333 4.47339 12.9333C4.44993 12.9331 4.40343 12.9328 4.36214 12.9534C4.32513 12.9719 4.30104 13.0009 4.28516 13.0337C4.16926 13.0773 4.02875 13.1056 3.90448 13.1056C3.34728 13.1056 2.89445 12.6527 2.89445 12.0955C2.89445 11.5383 3.34728 11.0855 3.90448 11.0855C4.0415 11.0855 4.18117 11.1199 4.30527 11.1731L4.30526 11.1731L4.30752 11.174C4.42796 11.2222 4.55698 11.2235 4.68318 11.1478C4.80618 11.074 4.87814 10.9524 4.90204 10.8329L4.90209 10.8329L4.90262 10.8297C5.48777 7.31882 8.50764 4.78898 12.0766 4.78898C15.6235 4.78898 18.623 7.31498 19.2302 10.7846C19.235 10.9284 19.3482 11.0285 19.4231 11.0846L19.4337 11.0926L19.446 11.0975C19.5498 11.139 19.6743 11.1686 19.8044 11.1178C19.9079 11.0836 20.0113 11.0664 20.1338 11.0664C20.691 11.0664 21.1438 11.5192 21.1438 12.0764C21.1438 12.6336 20.691 13.0864 20.1338 13.0864C20.0179 13.0864 19.8979 13.0533 19.7853 13.0159C19.6718 12.9714 19.5209 12.9644 19.4084 13.0458C19.2946 13.1153 19.2188 13.2132 19.1937 13.339L19.1933 13.3407C18.5706 16.7562 15.5508 19.2298 12.0574 19.2298C8.52666 19.2298 5.52527 16.7188 4.90238 13.2834L4.90239 13.2834L4.90204 13.2816C4.87656 13.1542 4.79921 13.0555 4.68318 12.9858ZM3.88534 13.9371C3.97666 13.9371 4.0672 13.926 4.1537 13.9126C5.02044 17.5276 8.27276 20.0997 12.0574 20.0997C15.8228 20.0997 19.0751 17.5279 19.9233 13.9314C19.9836 13.9371 20.0435 13.9371 20.0901 13.9371H20.0955C21.1261 13.9371 21.9754 13.1084 21.9754 12.0573C21.9754 11.0061 21.1261 10.1774 20.0955 10.1774C20.0618 10.1774 20.0243 10.1824 19.9931 10.1866C19.9901 10.1871 19.9871 10.1874 19.9842 10.1878C19.9774 10.1887 19.9707 10.1896 19.9641 10.1904C19.1377 6.51392 15.8639 3.9 12.0383 3.9C8.21519 3.9 4.94374 6.52911 4.11432 10.2012C4.03552 10.1882 3.95588 10.1774 3.8662 10.1774C2.83421 10.1774 2.00547 11.0075 2.00547 12.0573C2.00547 13.1084 2.85475 13.9371 3.88534 13.9371Z" fill="#394CFF" stroke="#394CFF" strokeWidth="0.2"/>
<path d="M14.532 13.494H14.532V13.4926C14.532 13.246 14.3341 13.0481 14.0875 13.0481H9.85793C9.61131 13.0481 9.41344 13.246 9.41344 13.4926C9.41344 14.9057 10.5481 16.0615 11.9631 16.0615C13.3785 16.0615 14.5121 14.9057 14.532 13.494ZM12.3865 7.38318L12.3865 7.38319L12.3877 7.38267C13.1346 7.03948 13.3356 6.43945 13.228 5.98674C13.1032 5.44691 12.6059 5.02916 12.0588 5.02916C11.199 5.02916 10.4852 5.74462 10.4852 6.62196C10.4852 7.63338 11.2948 8.44441 12.2885 8.44441C13.4368 8.44441 14.3588 7.49831 14.3789 6.33661L14.3789 6.33661V6.33488C14.3789 4.99846 13.3017 3.9 11.9631 3.9C11.7165 3.9 11.5187 4.09788 11.5187 4.34449C11.5187 4.5911 11.7165 4.78898 11.9631 4.78898C12.8067 4.78898 13.509 5.48985 13.509 6.35402C13.509 7.02605 12.9605 7.57457 12.2885 7.57457C11.7719 7.57457 11.355 7.14328 11.355 6.62196C11.355 6.21633 11.6754 5.89901 12.0588 5.89901C12.2033 5.89901 12.353 6.01921 12.3818 6.16311C12.4021 6.2647 12.3644 6.3477 12.2934 6.42065C12.2203 6.4958 12.1189 6.55177 12.0374 6.58799C11.8161 6.68635 11.7148 6.93607 11.8144 7.16017C11.9127 7.38148 12.1624 7.48278 12.3865 7.38318ZM9.5474 10.8898C9.5474 11.1364 9.74528 11.3343 9.9919 11.3343C10.2306 11.3343 10.4436 11.1404 10.3981 10.8804C10.3929 10.0639 9.71863 9.39271 8.90101 9.39271C8.08024 9.39271 7.40391 10.0691 7.40391 10.8898C7.40391 11.1364 7.60178 11.3343 7.8484 11.3343C8.09501 11.3343 8.29289 11.1364 8.29289 10.8898C8.29289 10.5431 8.57347 10.2626 8.92015 10.2626C9.26682 10.2626 9.5474 10.5431 9.5474 10.8898ZM15.5951 10.8898C15.5951 11.1364 15.793 11.3343 16.0396 11.3343C16.2784 11.3343 16.4914 11.1404 16.4458 10.8804C16.4407 10.0639 15.7664 9.39271 14.9487 9.39271C14.128 9.39271 13.4516 10.0691 13.4516 10.8898C13.4516 11.1364 13.6495 11.3343 13.8961 11.3343C14.1427 11.3343 14.3406 11.1364 14.3406 10.8898C14.3406 10.5431 14.6212 10.2626 14.9679 10.2626C15.3146 10.2626 15.5951 10.5431 15.5951 10.8898ZM11.9631 15.1725C11.1745 15.1725 10.5162 14.6358 10.3273 13.918H13.5964C13.3924 14.6379 12.7496 15.1725 11.9631 15.1725Z" fill="#394CFF" stroke="#394CFF" strokeWidth="0.2"/>
</svg>
