<svg width="30" height="30" viewBox="0 0 30 30" fill="none" xmlns="http://www.w3.org/2000/svg">
    <path fillRule="evenodd" clipRule="evenodd"
        d="M15.0036 29.337L28.3548 14.1271L23.2557 7.5127H6.75142L1.65234 14.1271L15.0036 29.337Z" fill="#87DAFF" />
    <path fillRule="evenodd" clipRule="evenodd" d="M1.65234 14.1289L15.0036 29.3388L9.9045 14.1289H1.65234Z"
        fill="#0096DC" />
    <path fillRule="evenodd" clipRule="evenodd"
        d="M28.3548 14.1271L23.2557 7.5127H15.0036L9.9045 14.1271H1.65234L6.75142 7.5127H15.0036L20.1026 14.1271H28.3548Z"
        fill="#00C3FF" />
    <path fillRule="evenodd" clipRule="evenodd" d="M28.3498 14.1271L23.2507 7.5127L20.0977 14.1271H28.3498Z"
        fill="#9DE5FF" />
    <path fillRule="evenodd" clipRule="evenodd" d="M9.9045 14.1271L6.75142 7.5127L1.65234 14.1271H9.9045Z"
        fill="#00AAF0" />
    <path fillRule="evenodd" clipRule="evenodd"
        d="M9.90165 14.1282H20.0998L15.0007 29.3381L9.90165 14.1282ZM13.2036 2.45927C14.1007 2.65381 14.8062 3.35931 15.0007 4.25642C15.1964 3.35931 15.9008 2.65381 16.7979 2.45927C15.9025 2.26297 15.1964 1.55746 15.0007 0.662109C14.8062 1.55746 14.1007 2.26355 13.2036 2.45927ZM26.4071 22.2637C27.3042 22.4594 28.0097 23.1655 28.2043 24.0627C28.4 23.1655 29.1043 22.46 30.0014 22.2637C29.1043 22.0692 28.4 21.3637 28.2043 20.4666C28.0097 21.3637 27.3037 22.0692 26.4071 22.2637ZM0 22.2637C0.897113 22.4594 1.60262 23.1655 1.79716 24.0627C1.99287 23.1655 2.6972 22.46 3.59431 22.2637C2.69896 22.0692 1.99287 21.3637 1.79716 20.4666C1.6032 21.3637 0.897113 22.0692 0 22.2637Z"
        fill="#00C3FF" />
</svg>