<svg width="24" height="24" viewBox="0 0 24 24" fill="none" xmlns="http://www.w3.org/2000/svg">
<path d="M12.0018 8.24997C9.93375 8.24997 8.25175 9.93197 8.25175 12C8.25175 14.068 9.93375 15.75 12.0018 15.75C14.0698 15.75 15.7518 14.068 15.7518 12C15.7518 9.93197 14.0698 8.24997 12.0018 8.24997ZM12.0018 14.25C10.7608 14.25 9.75175 13.241 9.75175 12C9.75175 10.759 10.7608 9.74997 12.0018 9.74997C13.2428 9.74997 14.2518 10.759 14.2518 12C14.2518 13.241 13.2428 14.25 12.0018 14.25ZM21.2098 13.953C20.5158 13.551 20.0837 12.803 20.0827 12C20.0817 11.199 20.5108 10.452 21.2138 10.045C21.7288 9.74598 21.9048 9.08296 21.6068 8.56696L19.9348 5.68097C19.6368 5.16597 18.9737 4.98898 18.4577 5.28598C17.7587 5.68898 16.8898 5.68898 16.1888 5.28198C15.4978 4.88098 15.0678 4.13598 15.0678 3.33698C15.0678 2.73798 14.5798 2.25098 13.9808 2.25098H10.0257C9.42574 2.25098 8.93877 2.73798 8.93877 3.33698C8.93877 4.13598 8.50875 4.88097 7.81575 5.28397C7.11675 5.68897 6.24876 5.68996 5.54976 5.28696C5.03276 4.98896 4.37077 5.16698 4.07277 5.68198L2.39876 8.57098C2.10076 9.08598 2.27774 9.74796 2.79774 10.05C3.49074 10.451 3.92276 11.198 3.92476 11.999C3.92676 12.801 3.49675 13.55 2.79475 13.957C2.54475 14.102 2.36476 14.335 2.29076 14.615C2.21676 14.894 2.25476 15.185 2.39976 15.436L4.07075 18.32C4.36875 18.836 5.03176 19.015 5.54976 18.716C6.24876 18.313 7.11576 18.314 7.80476 18.713L7.80675 18.714C7.80975 18.716 7.81276 18.718 7.81676 18.72C8.50776 19.121 8.93674 19.866 8.93574 20.666C8.93574 21.265 9.42274 21.752 10.0217 21.752H13.9808C14.5798 21.752 15.0668 21.265 15.0668 20.667C15.0668 19.867 15.4967 19.122 16.1908 18.719C16.8888 18.314 17.7567 18.312 18.4567 18.716C18.9727 19.014 19.6348 18.837 19.9338 18.322L21.6077 15.433C21.9047 14.916 21.7278 14.253 21.2098 13.953ZM18.8327 17.227C17.7427 16.752 16.4777 16.817 15.4357 17.42C14.4027 18.019 13.7208 19.078 13.5888 20.25H10.4118C10.2818 19.078 9.59774 18.017 8.56474 17.419C7.52474 16.816 6.25776 16.752 5.17076 17.227L3.89476 15.024C4.84976 14.321 5.42674 13.193 5.42274 11.993C5.41974 10.801 4.84375 9.68097 3.89375 8.97797L5.17076 6.77396C6.25876 7.24796 7.52576 7.18396 8.56776 6.57996C9.59976 5.98196 10.2817 4.92198 10.4137 3.75098H13.5888C13.7198 4.92298 14.4028 5.98197 15.4378 6.58197C16.4768 7.18497 17.7437 7.24896 18.8327 6.77496L20.1098 8.97797C19.1568 9.67997 18.5807 10.806 18.5827 12.004C18.5837 13.198 19.1598 14.32 20.1108 15.025L18.8327 17.227Z" fill="#83868B"/>
</svg>
