<svg width="24" height="24" viewBox="0 0 24 24" fill="none" xmlns="http://www.w3.org/2000/svg">
<path d="M18.157 10.7583C17.2816 9.2923 15.3169 6.83301 12.0002 6.83301C8.68357 6.83301 6.71883 9.2923 5.8435 10.7583C5.3855 11.5236 5.3855 12.475 5.8435 13.241C6.71883 14.707 8.68357 17.1663 12.0002 17.1663C15.3169 17.1663 17.2816 14.707 18.157 13.241C18.615 12.475 18.615 11.5243 18.157 10.7583ZM17.2989 12.7277C16.5322 14.0117 14.8236 16.1663 12.0002 16.1663C9.17691 16.1663 7.46824 14.0124 6.70157 12.7277C6.43357 12.2784 6.43357 11.7203 6.70157 11.271C7.46824 9.987 9.17691 7.83236 12.0002 7.83236C14.8236 7.83236 16.5322 9.98633 17.2989 11.271C17.5676 11.721 17.5676 12.2784 17.2989 12.7277ZM12.0002 9.16634C10.4376 9.16634 9.16691 10.4377 9.16691 11.9997C9.16691 13.5617 10.4376 14.833 12.0002 14.833C13.5629 14.833 14.8336 13.5617 14.8336 11.9997C14.8336 10.4377 13.5629 9.16634 12.0002 9.16634ZM12.0002 13.833C10.9889 13.833 10.1669 13.011 10.1669 11.9997C10.1669 10.9883 10.9889 10.1663 12.0002 10.1663C13.0116 10.1663 13.8336 10.9883 13.8336 11.9997C13.8336 13.011 13.0116 13.833 12.0002 13.833Z" fill="#0F1B31"/>
</svg>
