<svg width="40" height="40" viewBox="0 0 40 40" fill="none" xmlns="http://www.w3.org/2000/svg">
<path d="M20.2015 36.4155C29.1429 36.4155 36.3914 29.1671 36.3914 20.2257C36.3914 11.2843 29.1429 4.03589 20.2015 4.03589C11.2602 4.03589 4.01172 11.2843 4.01172 20.2257C4.01172 29.1671 11.2602 36.4155 20.2015 36.4155Z" fill="#FFBF0B"/>
<path d="M11.5994 25.7404C12.6113 25.8922 13.522 26.0439 14.4833 26.0945C15.3939 26.1451 16.3046 26.1451 17.1647 26.0439C18.0754 25.9427 18.9355 25.7404 19.7955 25.4874C20.7062 25.2344 21.5663 24.8803 22.5276 24.5261C22.8817 24.4249 23.2359 24.5767 23.3877 24.9309C23.4889 25.1838 23.4383 25.3862 23.2865 25.5886C22.5782 26.4487 21.6675 27.1064 20.7062 27.6123C19.6944 28.1183 18.5813 28.4724 17.4683 28.6242C16.3046 28.7254 15.141 28.6748 14.0785 28.3712C12.9655 28.0677 11.9536 27.6123 11.0935 26.9546C10.79 26.7016 10.7394 26.2969 10.9417 25.9427C11.0429 25.8416 11.3465 25.7404 11.5994 25.7404Z" fill="#0F1B31"/>
<path d="M22.0757 21.1363C24.1714 21.1363 25.8702 19.4375 25.8702 17.3419C25.8702 15.2462 24.1714 13.5474 22.0757 13.5474C19.9801 13.5474 18.2812 15.2462 18.2812 17.3419C18.2812 19.4375 19.9801 21.1363 22.0757 21.1363Z" fill="white"/>
<path d="M22.0736 19.6186C23.331 19.6186 24.3503 18.5993 24.3503 17.3419C24.3503 16.0845 23.331 15.0652 22.0736 15.0652C20.8162 15.0652 19.7969 16.0845 19.7969 17.3419C19.7969 18.5993 20.8162 19.6186 22.0736 19.6186Z" fill="#0F1B31"/>
<path d="M10.4859 22.4012C12.5815 22.4012 14.2804 20.7024 14.2804 18.6067C14.2804 16.5111 12.5815 14.8123 10.4859 14.8123C8.39026 14.8123 6.69141 16.5111 6.69141 18.6067C6.69141 20.7024 8.39026 22.4012 10.4859 22.4012Z" fill="white"/>
<path d="M10.4876 20.8835C11.745 20.8835 12.7643 19.8642 12.7643 18.6068C12.7643 17.3494 11.745 16.3301 10.4876 16.3301C9.23025 16.3301 8.21094 17.3494 8.21094 18.6068C8.21094 19.8642 9.23025 20.8835 10.4876 20.8835Z" fill="#0F1B31"/>
<path d="M34.1313 34.7255C36.3227 32.7329 36.8191 29.7099 35.24 27.9733C33.661 26.2368 30.6045 26.4443 28.4131 28.4369C26.2218 30.4295 25.7254 33.4526 27.3044 35.1891C28.8834 36.9257 31.9399 36.7181 34.1313 34.7255Z" fill="#394CFF"/>
<path d="M24.6521 28.1689C24.6521 28.4218 24.7027 28.7254 24.7533 29.0289C24.8039 29.3325 24.9556 29.6361 25.0568 29.9396C25.3098 30.4961 25.7145 31.0021 26.1699 31.3562C26.6252 31.7104 27.1311 31.9128 27.6877 32.0645C28.2442 32.2163 28.9019 32.2163 29.509 32.2163H29.6102C30.7233 32.2163 31.6339 33.127 31.6339 34.2906C31.6339 35.4037 30.7233 36.3144 29.5596 36.3144C29.4078 36.3144 29.2561 36.3144 29.1043 36.2638C28.143 36.0614 27.1817 35.8084 26.2711 35.3531C25.3604 34.8978 24.5003 34.24 23.8932 33.4305C23.2355 32.6211 22.8307 31.6598 22.6283 30.6985C22.5272 30.2432 22.4766 29.7372 22.4766 29.2819C22.4766 28.776 22.5272 28.3206 22.6789 27.7641C22.8307 27.2582 23.3872 26.9546 23.8932 27.1064C24.3485 27.2582 24.6015 27.6629 24.6015 28.0677L24.6521 28.1689ZM35.479 23.3625C35.6308 23.9696 35.7826 24.5261 35.9344 25.1333C36.0861 25.7404 36.1873 26.2969 36.2379 26.904C36.3391 27.5111 36.3897 28.1183 36.3897 28.776C36.3897 29.4337 36.3391 30.0914 36.1367 30.8503V30.9515C35.9344 31.7104 35.1249 32.1657 34.3154 31.9633C33.5565 31.761 33.1011 30.9515 33.3035 30.142L33.4553 29.8384C33.6577 29.4843 33.8094 29.0289 33.9106 28.523C34.0118 28.0171 34.113 27.5111 34.113 26.9546C34.1636 26.3981 34.1636 25.8416 34.1636 25.285C34.1636 24.7285 34.1636 24.172 34.113 23.6155C34.0624 23.2107 34.366 22.9072 34.7707 22.8566C35.1249 22.8566 35.3778 23.0589 35.479 23.3625Z" fill="#394CFF"/>
<path d="M23.6937 25.3862C23.8961 24.9814 24.1491 24.6779 24.4526 24.4249C24.7562 24.172 25.1103 24.0202 25.4139 23.919C26.0716 23.7166 26.7799 23.666 27.4376 23.7166C28.0953 23.8178 28.753 24.0202 29.3602 24.4249C29.9673 24.8297 30.5238 25.4874 30.7768 26.1957C31.0803 26.9546 31.1309 27.7135 31.0297 28.4218C30.9286 29.1301 30.7768 29.7372 30.5238 30.2937C30.0685 31.4574 29.4108 32.368 28.753 33.2787C28.0953 34.1894 26.7799 34.3412 25.8692 33.6835C24.9586 33.0258 24.8068 31.7103 25.4645 30.7997C25.5151 30.6985 25.6163 30.5973 25.7174 30.5467C26.3752 29.9396 26.9317 29.3325 27.3364 28.7253C27.7412 28.1182 27.9436 27.5111 27.893 27.157C27.893 26.9546 27.7918 26.7522 27.64 26.6004C27.4882 26.3981 27.1847 26.2463 26.8811 26.1451C26.5775 26.0439 26.2234 25.9933 25.9704 26.0439C25.8186 26.0439 25.7174 26.0945 25.6163 26.1451C25.5151 26.1957 25.4645 26.2463 25.4139 26.2969L25.1609 26.5498C24.7562 26.904 24.1491 26.8534 23.7949 26.4486C23.5925 26.1451 23.5419 25.7403 23.6937 25.3862Z" fill="#394CFF"/>
<path d="M34.9237 23.1601C35.0755 23.8684 35.1767 24.5261 35.2779 25.2344C35.3285 25.9427 35.3791 26.651 35.3285 27.4099C35.2779 27.6629 35.0755 27.8653 34.8225 27.8653C34.5696 27.8147 34.3672 27.6123 34.3672 27.3593V27.3088C34.6202 26.0439 34.519 24.6779 34.3672 23.3119C34.3672 23.1601 34.4684 23.0083 34.6202 22.9577C34.7719 22.9071 34.9237 23.0083 34.9237 23.1601Z" fill="#B0B7FF"/>
<path d="M34.1127 20.6305C34.2645 21.2882 34.4163 21.8953 34.5175 22.553C34.6187 23.2107 34.7199 23.8684 34.7705 24.5262C34.821 25.1839 34.8716 25.8922 34.8211 26.6005C34.7705 27.3088 34.7199 28.0677 34.5175 28.8266V28.8772C34.2645 29.7879 33.3538 30.3444 32.3926 30.0914C31.4819 29.8384 30.9254 28.9278 31.1783 27.9665C31.2289 27.8147 31.2795 27.7135 31.3301 27.5618C31.7855 26.7523 32.089 25.5886 32.2408 24.425C32.342 23.8179 32.3926 23.2107 32.3926 22.6036C32.4432 21.9965 32.4432 21.3894 32.3926 20.7823V20.7317C32.3926 20.2763 32.7467 19.8716 33.2021 19.8716C33.6574 20.0234 34.0116 20.2763 34.1127 20.6305Z" fill="#394CFF"/>
<path d="M33.1032 20.7316L33.5586 23.3119C33.6597 24.1719 33.7609 25.0826 33.8115 25.9933C33.8115 26.3475 33.5586 26.6004 33.2044 26.6004C32.8502 26.6004 32.5973 26.3475 32.5973 25.9933V25.9427C32.6479 25.1332 32.6479 24.2731 32.6479 23.413L32.4961 20.8328C32.4961 20.6304 32.5973 20.4786 32.7997 20.4786C32.9514 20.4786 33.0526 20.5798 33.1032 20.7316Z" fill="#B0B7FF"/>
<path d="M32.2421 17.8478C32.4445 18.7584 32.5962 19.6185 32.748 20.4786C32.8998 21.3387 33.001 22.2494 33.1022 23.1601C33.254 24.9308 33.3046 26.8028 33.001 28.6747C32.8492 29.636 31.9385 30.2937 30.9773 30.1419C30.016 29.9901 29.3583 29.0795 29.5101 28.1182C29.5101 28.017 29.5607 27.9158 29.5607 27.8652C30.016 26.398 30.2184 24.779 30.3701 23.1601C30.4207 22.3506 30.4207 21.4905 30.4207 20.681C30.4207 19.8715 30.3701 19.0114 30.3196 18.2019V18.1513C30.269 17.5948 30.6737 17.1395 31.2302 17.0889C31.6856 17.0889 32.1409 17.3924 32.2421 17.8478Z" fill="#394CFF"/>
<path d="M29.3593 32.3681C29.5617 31.9128 29.8653 31.5586 30.1688 31.2551C30.4724 30.9515 30.8771 30.6986 31.2819 30.5468C31.6866 30.395 32.0914 30.2432 32.5467 30.2432C32.7491 30.1926 32.9515 30.2432 33.1538 30.1926C33.3562 30.1926 33.5586 30.2432 33.761 30.2432C33.9127 30.2432 34.0645 30.395 34.0645 30.5468C34.0645 30.6986 33.9127 30.7997 33.761 30.8503H33.1538C32.9515 30.8503 32.7997 30.8503 32.5973 30.9009C32.2432 30.9515 31.889 31.1033 31.5854 31.2551C31.3325 31.4069 31.0289 31.6092 30.8265 31.8622C30.6242 32.1152 30.3712 32.4187 30.3206 32.6717V32.7223C30.2194 32.9753 29.9665 33.0764 29.7135 33.0258C29.4099 32.9247 29.2582 32.6211 29.3593 32.3681Z" fill="#B0B7FF"/>
<path d="M30.7753 30.6479C30.8259 30.4455 30.8765 30.1925 30.8765 29.9902C30.8765 29.7372 30.8765 29.5348 30.8259 29.2819C30.7753 29.0795 30.7247 28.8771 30.6235 28.6748C30.5223 28.4724 30.3705 28.3206 30.2188 28.1688C30.067 28.0676 30.067 27.8653 30.1682 27.7641C30.2694 27.6629 30.4211 27.6123 30.5729 27.7135C30.8259 27.8653 31.0789 28.0676 31.2306 28.3206C31.433 28.5736 31.5342 28.8265 31.6354 29.1301C31.7366 29.4336 31.7872 29.6866 31.7872 29.9902C31.7872 30.2937 31.7872 30.5467 31.7366 30.9009C31.686 31.1538 31.433 31.3562 31.18 31.3056C30.9271 31.255 30.7247 31.002 30.7753 30.7491V30.6479Z" fill="#B0B7FF"/>
</svg>
