<svg width="41" height="40" viewBox="0 0 41 40" fill="none" xmlns="http://www.w3.org/2000/svg">
    <path
        d="M20.3307 36.6667C29.5355 36.6667 36.9974 29.2048 36.9974 20C36.9974 10.7953 29.5355 3.33337 20.3307 3.33337C11.126 3.33337 3.66406 10.7953 3.66406 20C3.66406 29.2048 11.126 36.6667 20.3307 36.6667Z"
        fill="#FFBF0B" />
    <path
        d="M28.4062 19.5312C30.5636 19.5312 32.3125 17.7824 32.3125 15.625C32.3125 13.4676 30.5636 11.7188 28.4062 11.7188C26.2489 11.7188 24.5 13.4676 24.5 15.625C24.5 17.7824 26.2489 19.5312 28.4062 19.5312Z"
        fill="white" />
    <path
        d="M28.7145 22.3958C27.6728 26.875 23.1937 29.6875 18.7145 28.6458C14.2353 27.6042 11.4749 23.0729 12.5166 18.5938L28.7145 22.3958Z"
        fill="#0F1B31" />
    <path
        d="M19.7552 24.1146C17.3073 23.5417 15.0156 23.8542 13.4531 24.7917C14.599 26.6667 16.4219 28.0729 18.7135 28.5937C21.0052 29.1146 23.2969 28.6458 25.1198 27.4479C24.1823 25.9896 22.2031 24.6875 19.7552 24.1146Z"
        fill="#DC2863" />
    <path
        d="M28.4062 17.9688C29.7007 17.9688 30.75 16.9194 30.75 15.625C30.75 14.3306 29.7007 13.2812 28.4062 13.2812C27.1118 13.2812 26.0625 14.3306 26.0625 15.625C26.0625 16.9194 27.1118 17.9688 28.4062 17.9688Z"
        fill="#0F1B31" />
    <path
        d="M15.7461 16.5626C17.9035 16.5626 19.6523 14.8137 19.6523 12.6564C19.6523 10.499 17.9035 8.75012 15.7461 8.75012C13.5887 8.75012 11.8398 10.499 11.8398 12.6564C11.8398 14.8137 13.5887 16.5626 15.7461 16.5626Z"
        fill="white" />
    <path
        d="M15.7461 15.0001C17.0405 15.0001 18.0898 13.9508 18.0898 12.6564C18.0898 11.362 17.0405 10.3126 15.7461 10.3126C14.4517 10.3126 13.4023 11.362 13.4023 12.6564C13.4023 13.9508 14.4517 15.0001 15.7461 15.0001Z"
        fill="#0F1B31" />
    <path
        d="M15.9041 30.9375C14.7062 35.1042 13.4562 37.5 7.83118 35.8334C4.08118 34.6875 2.93534 32.0834 4.08118 27.8646C5.22701 23.6459 7.98742 20.8334 11.6853 22.0834C17.8833 24.2188 17.0499 26.7188 15.9041 30.9375Z"
        fill="#394CFF" />
    <path
        d="M9.44525 15.7292C9.86192 16.7708 10.2786 17.8646 10.4869 19.1146C10.6952 20.3646 10.6432 21.6667 10.4869 22.8125C10.3307 23.9583 10.1744 25 10.0182 25.9896C9.86192 26.9792 9.75775 27.9688 9.70567 28.9583C9.54942 30.5208 8.19525 31.6667 6.63275 31.5104C5.07025 31.3542 3.92442 30 4.08067 28.4375C4.08067 28.2292 4.13275 28.0729 4.18483 27.8646C4.49733 26.8229 4.80983 25.7812 5.17442 24.7396C5.539 23.6979 5.90358 22.7083 6.21608 21.8229C6.52858 20.9375 6.68483 20.1563 6.73692 19.3229C6.789 18.4896 6.63275 17.5521 6.42442 16.6146V16.5625C6.26817 15.7292 6.789 14.8958 7.62233 14.6875C8.45567 14.6875 9.18483 15.0521 9.44525 15.7292Z"
        fill="#394CFF" />
    <path d="M12.9362 34.7917L10.1758 33.8021L12.9362 34.7917Z" fill="#0F1B31" />
    <path d="M12.9362 34.7917L10.1758 33.8021" stroke="#394CFF" strokeWidth="3.70469" stroke-miterlimit="10"
        strokeLinecap="round" strokeLinejoin="round" />
    <path d="M14.1836 33.9065L12.6211 33.3856L14.1836 33.9065Z" fill="#0F1B31" />
    <path d="M14.1836 33.9065L12.6211 33.3856" stroke="#B0B7FF" strokeWidth="1.2349" stroke-miterlimit="10"
        strokeLinecap="round" />
    <path d="M14.4987 32.0835L11.7383 31.0419L14.4987 32.0835Z" fill="#0F1B31" />
    <path d="M14.4987 32.0835L11.7383 31.0419" stroke="#394CFF" strokeWidth="3.70469" stroke-miterlimit="10"
        strokeLinecap="round" strokeLinejoin="round" />
    <path d="M15.2266 31.0417L13.3516 30.4688L15.2266 31.0417Z" fill="#0F1B31" />
    <path d="M15.2266 31.0417L13.3516 30.4688" stroke="#B0B7FF" strokeWidth="1.2349" stroke-miterlimit="10"
        strokeLinecap="round" />
    <path d="M15.3815 29.1667L12.6211 28.125L15.3815 29.1667Z" fill="#0F1B31" />
    <path d="M15.3815 29.1667L12.6211 28.125" stroke="#394CFF" strokeWidth="3.70469" stroke-miterlimit="10"
        strokeLinecap="round" strokeLinejoin="round" />
    <path d="M16.2148 27.6044L14.1836 26.9794L16.2148 27.6044Z" fill="#0F1B31" />
    <path d="M16.2148 27.6044L14.1836 26.9794" stroke="#B0B7FF" strokeWidth="1.2349" stroke-miterlimit="10"
        strokeLinecap="round" />
    <path d="M16.1107 25.6772L11.8398 24.1147L16.1107 25.6772Z" fill="#0F1B31" />
    <path d="M16.1107 25.6772L11.8398 24.1147" stroke="#394CFF" strokeWidth="3.70469" stroke-miterlimit="10"
        strokeLinecap="round" strokeLinejoin="round" />
</svg>