<svg width="24" height="24" viewBox="0 0 24 24" fill="none" xmlns="http://www.w3.org/2000/svg">
    <g clipPath="url(#clip0_19293_179)">
        <path
            d="M12 22C17.5228 22 22 17.5228 22 12C22 6.47715 17.5228 2 12 2C6.47715 2 2 6.47715 2 12C2 17.5228 6.47715 22 12 22Z"
            fill="#0765FF" />
        <path
            d="M15.2516 5.06934H13.0364C11.7218 5.06934 10.2596 5.62224 10.2596 7.52781C10.266 8.19178 10.2596 8.82767 10.2596 9.54333H8.73877V11.9634H10.3066V18.9304H13.1877V11.9174H15.0893L15.2613 9.53653H13.1381C13.1381 9.53653 13.1428 8.47742 13.1381 8.16985C13.1381 7.41681 13.9216 7.45993 13.9688 7.45993C14.3416 7.45993 15.0666 7.46102 15.2527 7.45993V5.06934H15.2516Z"
            fill="white" />
    </g>
    <defs>
        <clipPath id="clip0_19293_179">
            <rect width="20" height="20" fill="white" transform="translate(2 2)" />
        </clipPath>
    </defs>
</svg>